<svg overflow="visible" style="display: block;" viewBox="0 0 431.179 674.646" fill="none" xmlns="http://www.w3.org/2000/svg">
<g id="Vector">
<path d="M235.104 302.94V652.344C235.104 661.017 233.865 666.903 231.387 670C228.909 673.098 224.263 674.646 217.448 674.646H146.824C140.629 674.646 136.292 673.098 133.814 670C131.956 666.283 131.026 659.778 131.026 650.485V302.94H0C21.6828 299.223 32.5243 288.072 32.5243 269.487V249.043C32.5243 238.511 35.6218 232.006 41.8169 229.528C48.6315 226.431 56.0656 224.882 64.1193 224.882H131.026V180.277C131.026 148.063 135.053 120.495 143.107 97.5728C151.78 74.651 163.551 56.0657 178.419 41.8169C193.287 27.5682 210.943 17.0365 231.387 10.2219C251.831 3.4073 273.823 0 297.365 0C317.189 0 338.872 4.33657 362.413 13.0097C386.574 21.0633 409.496 31.9048 431.179 45.534C429.32 54.2071 427.772 62.5705 426.533 70.6241C425.294 78.0582 423.125 84.2534 420.028 89.2094C417.55 93.546 413.523 96.3338 407.947 97.5728C402.372 98.1923 394.628 96.3338 384.716 91.9972C372.326 87.0411 360.245 82.7046 348.474 78.9875C337.323 75.2704 328.031 73.4119 320.596 73.4119C288.382 73.4119 266.08 82.7046 253.689 101.29C241.299 119.256 235.104 146.514 235.104 183.065V224.882H360.555C374.804 224.882 387.504 222.714 398.655 218.377C410.425 213.421 419.718 204.748 426.533 192.358V227.67C427.152 251.831 421.577 270.416 409.806 283.426C398.035 296.436 379.45 302.94 354.05 302.94H235.104Z" fill="var(--fill-0, white)" fill-opacity="0.1"/>
<path d="M131.022 224.876L131.026 224.882H64.1193C56.0656 224.882 48.6315 226.431 41.8169 229.528C35.6218 232.006 32.5243 238.511 32.5243 249.043V269.487C32.5243 288.072 21.6828 299.223 0 302.94H131.026L131.022 302.948H235.1L235.104 302.94H354.05C379.45 302.94 398.035 296.436 409.806 283.426C421.577 270.416 427.152 251.831 426.533 227.67V192.358C419.718 204.748 410.425 213.421 398.655 218.377C387.504 222.714 374.804 224.882 360.555 224.882H235.104L235.1 224.876H131.022Z" fill="var(--fill-0, white)" fill-opacity="0.1"/>
</g>
</svg>
