<svg overflow="visible" style="display: block;" viewBox="0 0 112 28" fill="none" xmlns="http://www.w3.org/2000/svg">
<g id="g3674">
<path id="path3121" d="M0.00169067 28H112V0H0.00169067V28V28Z" fill="var(--fill-0, #2B6FC0)"/>
<path id="path3123" d="M0 28H27.5801V0H0V28Z" fill="var(--fill-0, #131C49)"/>
<path id="path3125" d="M27.5802 28H111.999V19.3851H27.5802V28Z" fill="var(--fill-0, #FAB60A)"/>
<path id="path3127" d="M31.7846 25.7909H32.3378V21.8709H31.7846V25.7909Z" fill="var(--fill-0, #131C49)"/>
<path id="path3129" d="M31.7846 25.7909H32.3378V21.8709H31.7846V25.7909Z" stroke="var(--stroke-0, #131C49)" stroke-width="0.428037"/>
<path id="path3131" d="M36.3045 21.8709H37.0567L38.7608 25.0274H38.7717V21.8709H39.3249V25.7909H38.6169L36.8686 22.5675H36.8577V25.7909H36.3045" fill="var(--fill-0, #131C49)"/>
<path id="path3133" d="M36.3045 21.8709H37.0567L38.7608 25.0274H38.7717V21.8709H39.3249V25.7909H38.6169L36.8686 22.5675H36.8577V25.7909H36.3045V21.8709Z" stroke="var(--stroke-0, #131C49)" stroke-width="0.428037"/>
<path id="path3135" d="M44.0618 22.3652H42.8611V21.8709H45.8152V22.3652H44.6149V25.7909H44.0618" fill="var(--fill-0, #131C49)"/>
<path id="path3137" d="M44.0618 22.3652H42.8611V21.8709H45.8152V22.3652H44.6149V25.7909H44.0618V22.3652Z" stroke="var(--stroke-0, #131C49)" stroke-width="0.428037"/>
<path id="path3139" d="M49.3845 21.8709H51.5475V22.3652H49.9375V23.5106H51.4039V24.0049H49.9375V25.2967H51.5475V25.7909H49.3845" fill="var(--fill-0, #131C49)"/>
<path id="path3141" d="M49.3845 21.8709H51.5475V22.3652H49.9375V23.5106H51.4039V24.0049H49.9375V25.2967H51.5475V25.7909H49.3845V21.8709V21.8709Z" stroke="var(--stroke-0, #131C49)" stroke-width="0.428037"/>
<path id="path3143" d="M55.9409 23.5555H56.4113C56.9365 23.5555 57.2465 23.32 57.2465 22.9435C57.2465 22.5896 56.9807 22.3652 56.4714 22.3652H55.9409V23.5555ZM55.3875 21.8709H56.3335C57.0968 21.8709 57.8329 21.9944 57.8329 22.9324C57.8329 23.4097 57.4841 23.7467 57.0366 23.8254V23.8364C57.2076 23.9041 57.2902 23.988 57.4121 24.2299L58.1425 25.7909H57.5118L56.9199 24.4317C56.7484 24.0498 56.5663 24.0498 56.2728 24.0498H55.9409V25.7909H55.3875" fill="var(--fill-0, #131C49)"/>
<path id="path3145" d="M55.9409 23.5555H56.4113C56.9365 23.5555 57.2465 23.32 57.2465 22.9435C57.2465 22.5896 56.9807 22.3652 56.4714 22.3652H55.9409V23.5555ZM55.3875 21.8709H56.3335C57.0968 21.8709 57.8329 21.9944 57.8329 22.9324C57.8329 23.4097 57.4841 23.7467 57.0366 23.8254V23.8364C57.2076 23.904 57.2902 23.988 57.4121 24.2299L58.1425 25.7909H57.5118L56.9199 24.4316C56.7484 24.0498 56.5663 24.0498 56.2728 24.0498H55.9409V25.7909H55.3875V21.8709V21.8709Z" stroke="var(--stroke-0, #131C49)" stroke-width="0.428037"/>
<path id="path3147" d="M61.7837 21.8709H62.5359L64.2394 25.0274H64.2505V21.8709H64.804V25.7909H64.0955L62.3473 22.5675H62.3366V25.7909H61.7837" fill="var(--fill-0, #131C49)"/>
<path id="path3149" d="M61.7837 21.8709H62.5359L64.2394 25.0274H64.2505V21.8709H64.804V25.7909H64.0955L62.3473 22.5675H62.3366V25.7909H61.7837V21.8709H61.7837Z" stroke="var(--stroke-0, #131C49)" stroke-width="0.428037"/>
<path id="path3151" d="M70.2649 22.399L69.4958 24.3418H71.0341L70.2649 22.399ZM69.9943 21.8709H70.5749L72.207 25.7909H71.6035L71.2114 24.8023H69.3189L68.9263 25.7909H68.3452" fill="var(--fill-0, #131C49)"/>
<path id="path3153" d="M70.2649 22.399L69.4958 24.3418H71.0341L70.2649 22.399ZM69.9943 21.8709H70.5749L72.207 25.7909H71.6035L71.2114 24.8023H69.3189L68.9263 25.7909H68.3452L69.9943 21.8709Z" stroke="var(--stroke-0, #131C49)" stroke-width="0.428037"/>
<path id="path3155" d="M76.1136 22.3652H74.913V21.8709H77.8677V22.3652H76.6671V25.7909H76.1136" fill="var(--fill-0, #131C49)"/>
<path id="path3157" d="M76.1136 22.3652H74.913V21.8709H77.8677V22.3652H76.6671V25.7909H76.1136V22.3652Z" stroke="var(--stroke-0, #131C49)" stroke-width="0.428037"/>
<path id="path3159" d="M81.4094 25.7909H81.9618V21.8709H81.4094V25.7909Z" fill="var(--fill-0, #131C49)"/>
<path id="path3161" d="M81.4094 25.7909H81.9618V21.8709H81.4094V25.7909Z" stroke="var(--stroke-0, #131C49)" stroke-width="0.428037"/>
<path id="path3163" d="M87.5942 25.3643C88.4848 25.3643 88.8668 24.6117 88.8668 23.8312C88.8668 23.0332 88.4459 22.2918 87.5942 22.2976C86.7419 22.2918 86.3217 23.0332 86.3217 23.8312C86.3217 24.6117 86.7036 25.3643 87.5942 25.3643ZM87.5942 21.8033C88.7666 21.8033 89.4522 22.6683 89.4522 23.8312C89.4522 25.0216 88.772 25.8585 87.5942 25.8585C86.4154 25.8585 85.7352 25.0216 85.7352 23.8312C85.7352 22.6683 86.4208 21.8033 87.5942 21.8033Z" fill="var(--fill-0, #131C49)"/>
<path id="path3165" d="M87.5942 25.3643C88.4848 25.3643 88.8668 24.6117 88.8668 23.8312C88.8668 23.0332 88.4459 22.2918 87.5942 22.2976C86.7419 22.2918 86.3217 23.0332 86.3217 23.8312C86.3217 24.6117 86.7036 25.3643 87.5942 25.3643ZM87.5942 21.8033C88.7666 21.8033 89.4522 22.6683 89.4522 23.8312C89.4522 25.0216 88.772 25.8585 87.5942 25.8585C86.4154 25.8585 85.7352 25.0216 85.7352 23.8312C85.7352 22.6683 86.4208 21.8033 87.5942 21.8033Z" stroke="var(--stroke-0, #131C49)" stroke-width="0.428037"/>
<path id="path3167" d="M93.2203 21.8709H93.9724L95.6769 25.0274H95.6882V21.8709H96.2416V25.7909H95.5331L93.7855 22.5675H93.7737V25.7909H93.2203" fill="var(--fill-0, #131C49)"/>
<path id="path3169" d="M93.2203 21.8709H93.9724L95.6769 25.0274H95.6882V21.8709H96.2416V25.7909H95.5331L93.7855 22.5675H93.7737V25.7909H93.2203V21.8709Z" stroke="var(--stroke-0, #131C49)" stroke-width="0.428037"/>
<path id="path3171" d="M101.702 22.399L100.934 24.3418H102.472L101.702 22.399ZM101.431 21.8709H102.012L103.644 25.7909H103.042L102.649 24.8023H100.757L100.364 25.7909H99.7833" fill="var(--fill-0, #131C49)"/>
<path id="path3173" d="M101.702 22.399L100.934 24.3418H102.472L101.702 22.399ZM101.431 21.8709H102.012L103.644 25.7909H103.042L102.649 24.8023H100.757L100.364 25.7909H99.7833L101.431 21.8709Z" stroke="var(--stroke-0, #131C49)" stroke-width="0.428037"/>
<path id="path3175" d="M107.186 21.8709H107.739V25.2967H109.354V25.7909H107.186" fill="var(--fill-0, #131C49)"/>
<path id="path3177" d="M107.186 21.8709H107.739V25.2967H109.354V25.7909H107.186V21.8709Z" stroke="var(--stroke-0, #131C49)" stroke-width="0.428037"/>
<path id="path3179" d="M13.825 3.97945C14.8128 4.9496 15.9169 5.97885 16.8728 6.9817L15.7556 8.44344V8.51552L18.7176 9.85957L20.7193 8.46329L19.5116 7.09971V7.00148C20.7515 6.10978 21.8168 5.2511 23.018 4.4318L22.4366 10.5411H5.14699L4.56595 4.4318C5.76683 5.2511 6.83216 6.10978 8.07196 7.00148V7.09971L6.86437 8.46329L8.86602 9.85957L11.8283 8.51552V8.44344L10.7111 6.9817C11.6667 5.97885 12.7708 4.9496 13.7587 3.97945" fill="var(--fill-0, white)"/>
<path id="path3181" d="M22.3042 11.6425L22.1297 13.6785L15.7291 13.6759L15.7311 20.7103L18.8483 20.6896C19.5435 20.6886 20.2755 19.9456 20.1267 19.4576C19.9589 18.7495 19.3326 18.2776 18.7516 17.9238C18.8678 17.9238 21.005 16.3242 22.0058 15.636C21.9606 16.0751 21.2437 21.824 21.2375 21.9159L13.8506 24.7671H13.7328L6.34624 21.9159C6.33972 21.824 5.62313 16.0751 5.57794 15.636C6.57873 16.3242 8.71592 17.9238 8.83217 17.9238C8.25087 18.2776 7.62483 18.7495 7.45682 19.4576C7.30829 19.9456 8.04018 20.6886 8.73515 20.6896L11.8526 20.7103L11.8547 13.6759L5.45429 13.6785L5.27977 11.6425" fill="var(--fill-0, white)"/>
<path id="path3183" d="M33.1056 9.70535C34.3439 9.69242 35.7887 9.11628 35.7887 7.66269C35.7887 6.13065 34.4599 5.51486 33.1056 5.5281V9.70535ZM31.9706 7.97684C31.9706 5.97357 31.906 5.67226 30.4615 5.54127V5.35805L33.6086 5.25326C36.859 5.14841 37.1173 6.75909 37.1173 7.38779C37.1173 8.48759 36.4465 9.11628 35.5177 9.53535L35.5822 9.6269C36.5753 11.3947 37.8138 13.6471 39.9419 14.0922L39.9034 14.2884C38.5358 14.2232 37.53 14.2626 36.7817 13.4768C35.9305 12.5732 35.2597 11.4209 34.9887 10.858C34.4729 9.77081 34.0087 10.0853 33.1056 9.92802V12.0364C33.1056 13.4768 33.1313 13.7387 34.8984 13.9874V14.1839H30.371V13.9874C31.9191 13.7781 31.9318 13.3851 31.9705 12.0364" fill="var(--fill-0, white)"/>
<path id="path3185" d="M41.7987 8.5451C40.4057 8.5451 39.8381 10.0116 39.8381 11.2165C39.8381 12.4343 40.5089 14.0185 41.9019 14.0185C43.2047 14.0185 43.785 12.5127 43.785 11.3866C43.785 10.182 43.2047 8.5451 41.7987 8.5451ZM41.8117 14.3067C40.0446 14.3067 38.6386 13.1676 38.6386 11.3081C38.6386 9.501 40.0961 8.25677 41.8244 8.25677C43.5787 8.25677 44.9848 9.40938 44.9848 11.2556C44.9848 13.0366 43.5142 14.3067 41.8117 14.3067" fill="var(--fill-0, white)"/>
<path id="path3187" d="M45.395 9.56596C45.1629 8.97658 45.1115 8.84565 44.4664 8.74073V8.54434H47.1365V8.74073C46.1563 8.79303 46.414 9.39564 46.672 10.0634L47.9363 13.3897L48.7359 11.0325C49.3164 9.33017 49.4194 8.87173 48.4651 8.74073V8.54434H50.7224V8.74073C50.1544 8.80626 49.9744 9.04204 49.7289 9.53981L49.1873 10.8096L47.2008 15.8775C46.7238 17.0954 46.3882 17.5014 45.8725 17.5014C45.524 17.5014 45.2402 17.2133 45.2402 16.8465C45.2402 16.5717 45.395 16.3227 45.6532 16.231C45.7822 16.3095 46.182 16.5978 46.3368 16.5978C46.6205 16.5978 46.8528 15.8907 46.943 15.6942L47.3686 14.6859" fill="var(--fill-0, white)"/>
<path id="path3189" d="M51.5787 12.1019C51.5271 12.2719 51.4881 12.4422 51.4881 12.6257C51.4881 13.1754 51.7982 13.66 52.3912 13.66C52.7398 13.66 53.0877 13.4245 53.3202 13.1755V11.1983L51.5787 12.1019ZM53.3202 10.9363C53.423 9.50888 53.0622 8.91982 52.0427 8.91982C51.1532 8.91982 51.2437 9.35206 51.2437 10.0721L50.5986 10.1114C50.4951 10.1114 50.3016 10.1244 50.3016 9.98048C50.3016 9.62688 51.7207 8.26496 52.7657 8.26496C53.9519 8.26496 54.3131 9.18172 54.3131 10.2292V12.0889C54.3131 13.241 54.2044 13.961 55.4354 13.7648V14.0605C54.9454 14.2045 54.5197 14.2493 54.1325 14.2493C53.5908 14.2493 53.3847 13.9351 53.3202 13.4245C52.9072 13.8958 52.3397 14.3149 51.6816 14.3149C50.8567 14.3149 50.3916 13.6077 50.3916 12.8219C50.3916 12.6257 50.4176 12.4422 50.4696 12.2457" fill="var(--fill-0, white)"/>
<path id="path3191" d="M54.8415 14.1839V13.8665C55.7369 13.7574 55.8471 13.5489 55.8471 12.6648V7.09869C55.8471 6.54863 55.8605 6.37863 55.2154 5.90695V5.77602L56.6984 5.19988L56.8405 5.25211V12.6648C56.8405 13.7387 56.8917 13.8433 57.8468 13.9874V14.1839" fill="var(--fill-0, white)"/>
<path id="path3193" d="M68.2951 12.1019C68.2445 12.2719 68.2051 12.4422 68.2051 12.6257C68.2051 13.1754 68.5146 13.66 69.1079 13.66C69.4563 13.66 69.8047 13.4245 70.0369 13.1755V11.1983L68.2951 12.1019ZM70.0369 10.9363C70.1397 9.50888 69.7791 8.91982 68.7596 8.91982C67.87 8.91982 67.96 9.35206 67.96 10.0721L67.3155 10.1114C67.2122 10.1114 67.0188 10.1244 67.0188 9.98048C67.0188 9.62688 68.4373 8.26496 69.4824 8.26496C70.6687 8.26496 71.0298 9.18172 71.0298 10.2292V12.0889C71.0298 13.241 70.9014 14.0376 72.1521 13.7648V14.0605C71.6621 14.2045 71.2365 14.2493 70.8492 14.2493C70.3075 14.2493 70.1014 13.9351 70.0369 13.4245C69.6241 13.8958 69.0568 14.3149 68.399 14.3149C67.5733 14.3149 67.1088 13.6077 67.1088 12.8219C67.1088 12.6257 67.1349 12.4422 67.1861 12.2457" fill="var(--fill-0, white)"/>
<path id="path3195" d="M66.2725 7.97233H66.0786C65.8336 6.49265 64.983 5.43197 63.4345 5.43197C61.0742 5.43197 59.7458 7.39624 59.7458 9.64853C59.7458 12.2283 61.6932 14.0222 63.5639 14.0222C65.253 14.0222 65.9242 12.7651 66.5048 11.3509L66.6848 11.4296C66.5304 12.2283 66.2853 13.0141 65.9759 13.7735C65.1502 14.1794 64.2601 14.3365 63.3439 14.3365C60.6486 14.3365 58.2495 12.7651 58.2495 9.80574C58.2495 7.47494 60.0419 5.11775 63.4473 5.11775C64.4284 5.11775 65.4208 5.31421 66.2725 5.82488" fill="var(--fill-0, white)"/>
<path id="path3197" d="M98.9443 12.0974C98.8937 12.2677 98.8548 12.4377 98.8548 12.6213C98.8548 13.1713 99.1643 13.6558 99.7582 13.6558C100.106 13.6558 100.454 13.42 100.686 13.1713V11.1938L98.9443 12.0974ZM100.686 10.9318C100.79 9.50462 100.428 8.91531 99.4094 8.91531C98.5203 8.91531 98.6098 9.34754 98.6098 10.0677L97.9648 10.107C97.8614 10.107 97.668 10.1199 97.668 9.97596C97.668 9.62242 99.0871 8.26044 100.132 8.26044C101.318 8.26044 101.68 9.17727 101.68 10.2247V12.0841C101.68 13.2368 101.497 13.9689 102.675 13.9034V14.1348C102.185 14.2789 101.886 14.2449 101.498 14.2449C100.958 14.2449 100.751 13.9307 100.686 13.42C100.274 13.8913 99.706 14.3103 99.0487 14.3103C98.2226 14.3103 97.7586 13.6031 97.7586 12.8177C97.7586 12.6212 97.7847 12.4377 97.8353 12.2413" fill="var(--fill-0, white)"/>
<path id="path3199" d="M73.5552 12.6603C73.5552 13.7342 73.6069 13.8391 74.8448 13.983V14.1794H71.6205V13.8676C72.4888 13.7907 72.5495 13.5763 72.5618 12.5547V10.1593C72.5618 9.60921 72.5751 9.43916 71.9301 8.96761V8.83668L73.4646 8.26046L73.6069 8.31301L73.5552 9.85822H73.5808C73.8641 9.16406 74.5875 8.26046 75.3999 8.26046C75.761 8.26046 76.0577 8.49624 76.0577 8.86301C76.0577 9.21655 75.6832 9.54375 75.3865 9.68792C75.1676 9.5176 74.8448 9.22952 74.5614 9.25567C73.4646 9.36046 73.5552 11.1415 73.5552 11.3377" fill="var(--fill-0, white)"/>
<path id="path3201" d="M78.5596 6.07918C78.5596 6.44589 78.2624 6.74719 77.9018 6.74719C77.5401 6.74719 77.2434 6.44589 77.2434 6.07918C77.2434 5.71267 77.5401 5.41167 77.9018 5.41167C78.2624 5.41167 78.5596 5.71267 78.5596 6.07918ZM76.4572 14.1794V13.983C77.4112 13.8391 77.4501 13.6819 77.4628 12.6603V10.1593C77.4628 9.60921 77.4756 9.43916 76.6761 8.96761V8.83668L78.314 8.26046L78.4568 8.31301V12.6603C78.4568 13.7342 78.5074 13.8391 79.4625 13.983V14.1794" fill="var(--fill-0, white)"/>
<path id="path3203" d="M80.9262 11.5212C80.9262 12.739 81.0552 13.9045 82.5515 13.9045C83.261 13.9045 84.4083 13.3283 84.4083 11.508C84.4083 9.93667 83.3776 8.91531 82.1258 8.91531C81.6869 8.91531 81.3257 9.03307 80.9262 9.20338V11.5212V11.5212ZM79.9329 7.09417C79.9329 6.54411 79.9461 6.37387 79.3011 5.9025V5.77157L80.7851 5.19536L80.9262 5.24766V8.99369C81.558 8.64047 82.3453 8.26046 83.0799 8.26046C84.5127 8.26046 85.5051 9.60921 85.5051 10.9842C85.5051 13.3019 83.4027 14.3104 81.9847 14.3104C81.2102 14.3104 80.6301 14.1009 79.9329 13.7865" fill="var(--fill-0, white)"/>
<path id="path3205" d="M87.0946 11.5212C87.0946 12.739 87.224 13.9045 88.7198 13.9045C89.4293 13.9045 90.5767 13.3283 90.5767 11.508C90.5767 9.93667 89.5448 8.91531 88.2941 8.91531C87.8552 8.91531 87.4941 9.03307 87.0946 9.20338V11.5212V11.5212ZM86.1012 7.09417C86.1012 6.54411 86.114 6.37387 85.4699 5.9025V5.77157L86.9524 5.19536L87.0946 5.24766V8.99369C87.7263 8.64047 88.5136 8.26046 89.2482 8.26046C90.68 8.26046 91.6734 9.60921 91.6734 10.9842C91.6734 13.3019 89.571 14.3104 88.1519 14.3104C87.3779 14.3104 86.7984 14.1009 86.1012 13.7865" fill="var(--fill-0, white)"/>
<path id="path3207" d="M95.9273 9.83208C95.8122 9.22953 95.45 8.54854 94.7666 8.54854C94.032 8.54854 93.5931 9.28182 93.4514 9.93667L95.9273 9.83208V9.83208ZM93.3609 10.8403C93.258 12.2022 94.1732 13.4723 95.6311 13.4723C96.3023 13.4723 96.7663 13.1713 97.153 12.6474L97.3463 12.7913C96.8568 13.6425 95.9795 14.3104 94.9732 14.3104C93.3732 14.3104 92.2641 12.9748 92.2641 11.4032C92.2641 9.71406 93.4254 8.26046 95.1672 8.26046C96.3268 8.26046 97.1013 9.00692 97.153 10.1854H93.412" fill="var(--fill-0, white)"/>
<path id="path3209" d="M103.244 10.1593C103.244 9.60921 103.256 9.43916 102.611 8.96761V8.83668L104.146 8.26046L104.288 8.31301L104.185 9.26885C104.919 8.71885 105.629 8.26046 106.455 8.26046C108.003 8.26046 108.08 9.55699 108.08 10.3295V12.6603C108.08 13.7342 108.132 13.8391 109.086 13.983V14.1794H106.081V13.983C107.036 13.8391 107.074 13.6819 107.088 12.6603V11.1545C107.088 10.2379 107.126 8.94146 105.552 8.94146C105.024 8.94146 104.663 9.11177 104.237 9.50462V12.6603C104.237 13.7342 104.288 13.8391 105.243 13.983V14.1794H102.237L102.235 13.9407C103.161 13.8681 103.23 13.6819 103.244 12.6603" fill="var(--fill-0, white)"/>
</g>
</svg>
