<svg overflow="visible" style="display: block;" viewBox="0 0 144 86" fill="none" xmlns="http://www.w3.org/2000/svg">
<g id="Vector">
<path d="M18.8279 24.2413V52.2005C18.8279 52.8945 18.7287 53.3655 18.5302 53.6133C18.3318 53.8612 17.9597 53.9851 17.4139 53.9851H11.7581C11.262 53.9851 10.9147 53.8612 10.7163 53.6133C10.5674 53.3159 10.493 52.7954 10.493 52.0518V24.2413H0C1.73643 23.9438 2.60465 23.0515 2.60465 21.5643V19.9284C2.60465 19.0857 2.85271 18.5651 3.34883 18.3668C3.89457 18.119 4.48992 17.995 5.13488 17.995H10.493V14.4258C10.493 11.848 10.8155 9.64197 11.4604 7.80777C12.155 5.97356 13.0977 4.48637 14.2883 3.34619C15.479 2.20601 16.893 1.36326 18.5302 0.817955C20.1674 0.272652 21.9286 0 23.8139 0C25.4015 0 27.1379 0.347012 29.0232 1.04104C30.9581 1.68549 32.7937 2.55302 34.5302 3.64363C34.3813 4.33765 34.2573 5.00689 34.1581 5.65133C34.0589 6.24621 33.8852 6.74195 33.6372 7.13853C33.4387 7.48554 33.1162 7.70862 32.6697 7.80777C32.2232 7.85734 31.6031 7.70862 30.8093 7.36161C29.817 6.96502 28.8496 6.61801 27.9069 6.32057C27.0139 6.02313 26.2697 5.87441 25.6744 5.87441C23.0945 5.87441 21.3085 6.61801 20.3162 8.10521C19.324 9.54283 18.8279 11.724 18.8279 14.6489V17.995H28.8744C30.0155 17.995 31.0325 17.8215 31.9255 17.4745C32.8682 17.0779 33.6123 16.3839 34.1581 15.3925V18.2181C34.2077 20.1515 33.7612 21.6387 32.8186 22.6797C31.8759 23.7207 30.3875 24.2413 28.3534 24.2413H18.8279Z" fill="#FFE400"/>
<path d="M32.8269 31.8684V54.2082H40.7478V31.6769C40.7478 28.7408 41.8976 27.5919 44.7721 27.5919H48.0938V20.4432H44.0056C36.7873 20.4432 32.8269 23.9537 32.8269 31.8684Z" fill="#FFE400"/>
<path d="M68.0768 54.9741C75.2312 54.9741 80.4693 51.4636 83.7909 46.6765L78.5529 42.5277C76.0616 46.1659 72.4844 48.1446 68.2685 48.1446C62.5194 48.1446 58.495 44.4425 57.8563 39.081H83.8548C84.6214 25.8047 76.5727 19.7411 67.6297 19.7411C57.8563 19.7411 50.4464 27.0813 50.4464 37.4214C50.4464 47.5701 57.5369 54.9741 68.0768 54.9741ZM58.1118 33.4003C59.2616 29.1876 62.8388 26.2515 67.5658 26.2515C72.0373 26.2515 75.4229 28.677 76.381 33.4003H58.1118Z" fill="#FFE400"/>
<path d="M95.9728 54.655C104.085 54.655 108.812 50.953 108.812 44.6978C108.812 40.7405 106.896 37.8044 102.297 34.6768L100.253 33.2726C97.6336 31.5493 96.6116 30.4642 96.6116 29.1876C96.6116 27.4004 98.3363 26.3792 101.722 26.3792C102.616 26.3792 104.085 26.443 106.002 26.6983V20.4432C104.085 20.124 102.233 19.9964 100.7 19.9964C93.2899 19.9964 88.9461 23.5069 88.9461 29.3153C88.9461 33.0173 90.7347 35.6981 94.8868 38.5703L96.9948 40.0384C99.6777 41.8894 100.7 43.1021 100.7 44.7617C100.7 46.868 99.1028 47.8892 95.5895 47.8892C94.1203 47.8892 91.9484 47.7616 89.2655 47.3786V54.2082C91.7568 54.4635 94.2481 54.655 95.9728 54.655Z" fill="#FFE400"/>
<path d="M114.74 54.2082H122.661V34.4853C122.661 29.6344 124.832 27.0813 128.857 27.0813C132.817 27.0813 134.925 29.6344 134.925 34.4853V54.2082H142.846V33.9747C142.846 24.9111 138.502 19.6772 131.029 19.6772C127.388 19.6772 124.449 20.9538 122.533 23.1878C122.597 20.89 122.661 18.4007 122.661 15.8476V4.93295H114.74V54.2082Z" fill="#FFE400"/>
<path d="M10.4927 17.9946L10.493 17.995H5.13488C4.48992 17.995 3.89457 18.119 3.34883 18.3668C2.85271 18.5651 2.60465 19.0857 2.60465 19.9284V21.5643C2.60465 23.0515 1.73643 23.9438 0 24.2413H10.493L10.4927 24.2418H18.8276L18.8279 24.2413H28.3534C30.3875 24.2413 31.8759 23.7207 32.8186 22.6797C33.7612 21.6387 34.2077 20.1515 34.1581 18.2181V15.3925C33.6123 16.3839 32.8682 17.0779 31.9255 17.4745C31.0325 17.8215 30.0155 17.995 28.8744 17.995H18.8279L18.8276 17.9946H10.4927Z" fill="var(--fill-0, #45D7F7)"/>
<path d="M20.9999 79.9108C18.9008 79.9108 17.0501 79.4034 15.4476 78.3885C13.8676 77.3736 12.6488 75.9979 11.7912 74.2614C10.9335 72.5023 10.5047 70.5515 10.5047 68.409C10.5047 66.1988 10.9673 64.1578 11.8927 62.286C12.8407 60.4141 14.1159 58.9369 15.7184 57.8544C17.3435 56.7719 19.104 56.2306 20.9999 56.2306C22.8055 56.2306 24.3855 56.49 25.7397 57.0087C27.1165 57.5048 28.1321 58.1476 28.7867 58.9369C29.1704 59.4105 29.4074 60.042 29.4977 60.8313C29.5879 61.5981 29.6331 62.6581 29.6331 64.0112H28.956C28.5271 61.8236 27.7372 60.2111 26.5861 59.1737C25.435 58.1137 23.9115 57.5837 22.0156 57.5837C19.578 57.5837 17.6143 58.4407 16.1247 60.1547C14.635 61.8687 13.8902 64.6202 13.8902 68.409C13.8902 70.1906 14.1723 71.8483 14.7366 73.3818C15.3234 74.9154 16.2263 76.1671 17.4451 77.1368C18.6639 78.084 20.1874 78.5576 22.0156 78.5576C23.6632 78.5576 25.0964 78.163 26.3152 77.3736C27.5566 76.5843 28.6625 75.4003 29.6331 73.8216L30.3102 74.329C29.2719 76.3588 27.9854 77.8021 26.4506 78.6591C24.9384 79.4936 23.1215 79.9108 20.9999 79.9108Z" fill="var(--fill-0, #45D7F7)"/>
<path d="M36.3717 67.3941C36.3717 66.2439 36.2137 65.3982 35.8977 64.857C35.5817 64.2931 34.9497 64.0112 34.0018 64.0112H33.6632V63.3347H36.3717C37.2293 63.3347 37.8726 63.4587 38.3014 63.7068C38.7528 63.9323 39.0688 64.3157 39.2494 64.857H39.4187C39.8249 64.3382 40.3666 63.8985 41.0437 63.5376C41.7434 63.1768 42.556 62.9964 43.4813 62.9964C44.3842 62.9964 45.0613 63.1655 45.5127 63.5038C45.8964 63.797 46.2914 64.3044 46.6976 65.0261L45.3434 66.041C45.0951 65.7027 44.734 65.4546 44.26 65.2967C43.786 65.1163 43.2444 65.0261 42.635 65.0261C41.9578 65.0261 41.3372 65.184 40.7729 65.4997C40.2086 65.7929 39.7572 66.1988 39.4187 66.7175V79.2342H36.3717V67.3941Z" fill="var(--fill-0, #45D7F7)"/>
<path d="M57.4793 79.5725C55.7865 79.5725 54.3985 79.1215 53.3151 78.2194C52.2543 77.3173 51.7239 75.7386 51.7239 73.4833V67.3941C51.7239 66.2439 51.5659 65.3982 51.2499 64.857C50.9339 64.2931 50.3019 64.0112 49.354 64.0112H49.0154V63.3347H51.7239C52.559 63.3347 53.1797 63.4474 53.5859 63.6729C54.0148 63.8759 54.3195 64.2593 54.5 64.8231C54.6806 65.3869 54.7709 66.2439 54.7709 67.3941V73.4833C54.7709 75.062 55.1207 76.2235 55.8204 76.9677C56.5426 77.6894 57.4342 78.0502 58.495 78.0502C59.6912 78.0502 60.8197 77.4526 61.8806 76.2573V63.3347H64.9276V79.2342H63.2348L62.0498 77.8811H61.8806C61.4066 78.3547 60.7859 78.7606 60.0185 79.0989C59.2737 79.4147 58.4273 79.5725 57.4793 79.5725Z" fill="var(--fill-0, #45D7F7)"/>
<path d="M73.7353 61.3049C73.2162 61.3049 72.7648 61.0907 72.3811 60.6622C72.02 60.2337 71.8394 59.7262 71.8394 59.1399C71.8394 58.6663 71.9748 58.2942 72.2457 58.0235C72.5391 57.7529 72.9228 57.6176 73.3968 57.6176C73.9159 57.6176 74.356 57.8318 74.7171 58.2603C75.1008 58.6888 75.2927 59.1963 75.2927 59.7826C75.2927 60.2562 75.146 60.6283 74.8525 60.899C74.5817 61.1696 74.2093 61.3049 73.7353 61.3049ZM72.4488 67.3941C72.4488 66.2439 72.2908 65.3982 71.9748 64.857C71.6588 64.2931 71.0269 64.0112 70.0789 64.0112H69.4018V63.3347H72.4488C73.2839 63.3347 73.9046 63.4474 74.3109 63.6729C74.7397 63.8759 75.0444 64.2593 75.225 64.8231C75.4055 65.3869 75.4958 66.2439 75.4958 67.3941V79.2342H72.4488V67.3941Z" fill="var(--fill-0, #45D7F7)"/>
<path d="M87.7208 79.5725C85.1253 79.5725 83.376 79.1215 82.4732 78.2194C82.0895 77.836 81.8525 77.4075 81.7623 76.9339C81.672 76.4377 81.6268 75.6822 81.6268 74.6673H82.304C82.5071 75.795 82.9924 76.6745 83.7598 77.306C84.5497 77.9149 85.6444 78.2194 87.0437 78.2194C88.2851 78.2194 89.2105 78.0051 89.8199 77.5766C90.4519 77.1481 90.7679 76.573 90.7679 75.8513C90.7679 75.1973 90.5196 74.6335 90.023 74.1599C89.5491 73.6863 88.7817 73.2352 87.7208 72.8067L85.6895 71.961C84.3353 71.4198 83.3196 70.7883 82.6425 70.0666C81.9654 69.3449 81.6268 68.4541 81.6268 67.3941C81.6268 66.0184 82.146 64.9472 83.1842 64.1804C84.2224 63.391 85.5654 62.9964 87.213 62.9964C89.6958 62.9964 91.3885 63.4474 92.2914 64.3495C92.6751 64.7329 92.912 65.1614 93.0023 65.635C93.0926 66.1086 93.1378 66.8641 93.1378 67.9016H92.4606C92.2801 66.7739 91.8061 65.9056 91.0387 65.2967C90.2713 64.6653 89.2218 64.3495 87.8901 64.3495C86.8293 64.3495 85.9942 64.575 85.3848 65.0261C84.798 65.4546 84.5046 66.0184 84.5046 66.7175C84.5046 67.8903 85.4074 68.8488 87.213 69.593L89.2444 70.4387C90.7791 71.0702 91.8964 71.7468 92.5961 72.4685C93.2957 73.1676 93.6456 74.0697 93.6456 75.1748C93.6456 76.5505 93.0926 77.633 91.9867 78.4223C90.8807 79.1891 89.4588 79.5725 87.7208 79.5725Z" fill="var(--fill-0, #45D7F7)"/>
<path d="M101.442 61.3049C100.923 61.3049 100.472 61.0907 100.088 60.6622C99.7268 60.2337 99.5462 59.7262 99.5462 59.1399C99.5462 58.6663 99.6817 58.2942 99.9525 58.0235C100.246 57.7529 100.63 57.6176 101.104 57.6176C101.623 57.6176 102.063 57.8318 102.424 58.2603C102.808 58.6888 103 59.1963 103 59.7826C103 60.2562 102.853 60.6283 102.559 60.899C102.289 61.1696 101.916 61.3049 101.442 61.3049ZM100.156 67.3941C100.156 66.2439 99.9977 65.3982 99.6817 64.857C99.3657 64.2931 98.7337 64.0112 97.7858 64.0112H97.1087V63.3347H100.156C100.991 63.3347 101.611 63.4474 102.018 63.6729C102.447 63.8759 102.751 64.2593 102.932 64.8231C103.112 65.3869 103.203 66.2439 103.203 67.3941V79.2342H100.156V67.3941Z" fill="var(--fill-0, #45D7F7)"/>
<path d="M110.62 67.3941C110.62 66.2439 110.462 65.3982 110.146 64.857C109.83 64.2931 109.198 64.0112 108.25 64.0112H107.573V63.3347H110.62C111.455 63.3347 112.087 63.4474 112.516 63.6729C112.968 63.8985 113.295 64.2368 113.498 64.6878H113.667C114.141 64.2142 114.751 63.8195 115.495 63.5038C116.263 63.1655 117.12 62.9964 118.068 62.9964C119.761 62.9964 121.138 63.4474 122.199 64.3495C123.282 65.2516 123.824 66.8303 123.824 69.0856V79.2342H120.777V69.0856C120.777 67.5069 120.416 66.3567 119.694 65.635C118.994 64.8908 118.114 64.5187 117.053 64.5187C115.857 64.5187 114.728 65.1163 113.667 66.3116V79.2342H110.62V67.3941Z" fill="var(--fill-0, #45D7F7)"/>
<path d="M136.552 86C134.272 86 132.455 85.5828 131.101 84.7483C129.769 83.9139 129.104 82.5833 129.104 80.7565C129.104 79.7191 129.453 78.817 130.153 78.0502C130.853 77.2834 131.744 76.7196 132.828 76.3588C131.925 75.8626 131.473 75.186 131.473 74.329C131.473 73.878 131.575 73.5284 131.778 73.2803C131.981 73.0323 132.275 72.7616 132.658 72.4685C131.936 72.1076 131.327 71.5438 130.83 70.777C130.356 70.0102 130.119 69.1081 130.119 68.0707C130.119 64.6878 132.263 62.9964 136.552 62.9964H142.815V63.8421L140.614 64.1804V64.3495C141.314 64.7104 141.878 65.2178 142.307 65.8718C142.759 66.5033 142.984 67.2362 142.984 68.0707C142.984 71.4536 140.84 73.145 136.552 73.145C134.182 73.145 132.997 73.5397 132.997 74.329C132.997 75.1184 134.182 75.513 136.552 75.513C138.741 75.513 140.524 75.9528 141.901 76.8324C143.3 77.6894 144 78.9974 144 80.7565C144 82.5833 143.323 83.9139 141.969 84.7483C140.637 85.5828 138.831 86 136.552 86ZM136.552 71.961C137.567 71.961 138.38 71.6566 138.989 71.0476C139.621 70.4162 139.937 69.4238 139.937 68.0707C139.937 66.7852 139.621 65.8154 138.989 65.1614C138.38 64.5074 137.567 64.1804 136.552 64.1804C135.536 64.1804 134.712 64.4961 134.08 65.1276C133.471 65.7365 133.166 66.7175 133.166 68.0707C133.166 69.4238 133.471 70.4162 134.08 71.0476C134.712 71.6566 135.536 71.961 136.552 71.961ZM136.552 84.6469C137.906 84.6469 138.978 84.3198 139.768 83.6658C140.558 83.0343 140.953 82.0646 140.953 80.7565C140.953 78.5013 139.599 77.2045 136.89 76.8662L135.028 76.6971C134.103 77.0579 133.392 77.5653 132.895 78.2194C132.399 78.8734 132.151 79.7191 132.151 80.7565C132.151 82.0646 132.546 83.0343 133.335 83.6658C134.125 84.3198 135.198 84.6469 136.552 84.6469Z" fill="var(--fill-0, #45D7F7)"/>
</g>
</svg>
