<svg overflow="visible" style="display: block;" viewBox="0 0 86.2135 36.6235" fill="none" xmlns="http://www.w3.org/2000/svg">
<g id="cdnlogo.com_p-amp-o-cruises 2" clip-path="url(#clip0_3258_122)">
<path id="Vector" d="M46.8 20.8924C42.1332 20.3052 35.952 19.8725 35.3339 18.7908C35.3339 18.7599 35.303 18.729 35.303 18.6981C35.303 17.74 39.259 14.9894 43.4004 12.3005C43.4313 12.2696 43.4004 12.2078 43.3385 12.2387C38.8572 14.464 34.5613 16.6892 33.8813 16.2256C33.7577 16.1638 33.7268 15.9783 33.7268 15.762C33.665 14.773 35.3648 10.7243 37.7137 6.55205C37.7446 6.52114 37.6828 6.45933 37.6519 6.49024C34.654 10.9098 32.1506 14.773 31.1925 14.5876C30.3272 14.4331 29.8636 6.7993 29.6781 -0.030908C29.7399 -2.07453e-06 29.7399 -2.07453e-06 29.709 -2.07453e-06C29.6781 -2.07453e-06 29.6781 -2.07453e-06 29.6781 0.0309038C29.4927 6.86111 29.0291 14.464 28.1637 14.6494C27.2057 14.8039 24.7023 10.9716 21.7044 6.52114C21.6735 6.49024 21.6117 6.52114 21.6426 6.58296C24.0224 10.7553 25.6913 14.8348 25.6295 15.7929C25.6295 16.0093 25.5986 16.1638 25.4749 16.2565C24.795 16.7201 20.53 14.4949 16.0177 12.2696C15.9868 12.2387 15.925 12.3005 15.9559 12.3315C20.1282 15.0203 24.0842 17.74 24.0842 18.6981C24.0842 18.729 24.0842 18.7599 24.0533 18.7908C23.4661 19.9034 17.2849 20.3052 12.6181 20.8924C12.5254 20.8924 12.5872 20.9542 12.6181 20.9542C15.6159 20.9851 17.3158 20.9851 21.5808 21.1087C22.6316 21.1087 22.6007 21.0778 24.2387 21.2014C25.6913 21.2942 26.6185 21.4178 27.3911 21.8196C28.5346 22.4377 29.0909 23.3649 29.3382 23.8903C29.5236 24.292 29.6163 24.5084 29.6781 24.6938C29.6781 24.7247 29.709 24.7556 29.709 24.7556C29.7399 24.7556 29.7399 24.7247 29.7399 24.6938C29.8018 24.5084 29.8636 24.292 30.0799 23.8903C30.3272 23.3649 30.8835 22.4377 32.027 21.8196C32.7996 21.4178 33.6959 21.2633 35.1794 21.2014C36.8174 21.1087 36.7865 21.1087 37.8373 21.1087C42.1023 20.9851 43.8021 20.9851 46.8 20.9542C46.8309 20.9542 46.8927 20.9233 46.8 20.8924V20.8924ZM29.709 20.2434C26.9584 20.2434 24.4241 20.3052 22.4462 20.3979C22.4771 20.3979 23.5279 20.2125 24.1151 20.1197C24.6405 20.027 25.6913 19.9034 25.8767 19.9034C26.0621 17.9254 27.7002 16.3801 29.709 16.3801C31.7179 16.3801 33.3559 17.9254 33.5414 19.9034C33.7268 19.9343 34.7776 20.0579 35.303 20.1197C35.8902 20.2125 36.9101 20.3979 36.9719 20.3979C34.9939 20.3052 32.4597 20.2434 29.709 20.2434V20.2434Z" fill="var(--fill-0, white)"/>
<path id="Vector_2" d="M50.7869 36.1599C50.7251 36.129 50.6941 36.0981 50.5396 35.9745C49.8906 35.4491 49.3652 34.7073 48.5616 33.3475L47.7581 31.9258C47.7581 31.9258 47.4181 31.3695 47.3872 31.3077C48.7471 30.875 49.3034 29.8242 49.3034 28.6189C49.3034 27.7844 49.0252 27.0736 48.5616 26.5791C47.9126 25.8991 47.2018 25.8373 46.4291 25.8373H43.4003C43.2767 25.8373 43.2149 25.8991 43.2149 26.0228V36.2526C43.2149 36.3762 43.2767 36.469 43.4003 36.469H44.8838C45.0075 36.469 45.0693 36.3762 45.0693 36.2526V31.5858H45.3165C45.502 31.5858 45.6256 31.5549 45.7492 31.8022C45.7492 31.8331 46.8 33.6565 47.6345 35.0782C48.4998 36.5308 49.9215 36.5308 49.9833 36.5308H50.2924C50.3851 36.5308 50.6014 36.5308 50.756 36.4999C50.8178 36.4999 50.8796 36.469 50.8796 36.4072C50.8796 36.2835 50.8796 36.2217 50.7869 36.1599V36.1599ZM45.8419 30.5659H45.0693V26.5482H45.9346C47.0163 26.5482 47.449 27.5681 47.449 28.4643C47.449 29.7315 46.9545 30.5659 45.8419 30.5659V30.5659ZM80.6111 28.6498C80.6111 29.5769 81.0128 30.3805 81.8164 31.0295L82.9599 31.9567L82.9908 31.9876C83.7016 32.5748 84.227 33.0075 84.227 33.8729C84.227 34.7691 83.4853 35.5727 82.5272 35.5727C81.9091 35.5727 81.1674 35.2018 80.7347 34.8309C80.6111 34.7382 80.5802 34.7382 80.5183 34.7382C80.4256 34.7382 80.3638 34.8309 80.3638 34.9855V35.5418C80.3638 35.8199 80.3947 35.9127 80.642 36.0363C81.2601 36.3453 81.8473 36.5617 82.8981 36.5617C85.2469 36.5617 86.2668 34.8619 86.2668 33.5329C86.2668 32.4821 85.8032 31.5858 84.8452 30.8441L83.3617 29.7006C83.1453 29.546 82.4963 29.0515 82.4963 28.2171C82.4963 27.1045 83.4235 26.5791 84.0725 26.5791C84.8143 26.5791 85.2779 26.9499 85.4942 27.1045C85.556 27.1663 85.5869 27.1972 85.6487 27.1972C85.7414 27.1972 85.8033 27.1045 85.8033 26.9499V26.5173C85.8033 26.27 85.7723 26.2082 85.556 26.0846C84.9997 25.8373 84.3198 25.6828 83.7326 25.6828C82.1564 25.6519 80.6111 26.7645 80.6111 28.6498V28.6498ZM15.3687 29.8551C15.2142 30.0096 15.0287 30.1951 14.4415 30.5041C14.3179 30.5659 12.7108 31.3077 12.7108 31.3077C11.5055 31.8949 11.5055 32.5748 11.4436 33.1311C11.4127 33.4402 11.4746 33.5329 11.7218 33.2857C11.8763 33.1311 12.0618 32.9457 12.649 32.6366C12.6799 32.6057 12.8035 32.5748 12.9889 32.4821C13.1126 32.7912 13.1435 33.1311 13.1435 33.4402C13.1435 34.7382 12.4944 35.6654 11.4127 35.6654C10.4547 35.6654 9.74382 34.7691 9.74382 33.4402C9.74382 31.7404 10.4856 31.0295 11.4746 31.0295H11.6909C11.7836 31.0295 11.8763 30.9677 11.8763 30.8441V30.226C11.8763 30.1023 11.8145 30.0405 11.6909 30.0405H11.5364C11.011 30.0405 10.1456 29.7006 10.1456 28.3716C10.1456 27.0736 11.0419 26.61 11.5673 26.61C12.4326 26.61 12.8653 27.1045 12.958 27.1663C13.1126 27.2899 13.2671 27.2281 13.2671 27.0118V26.4864C13.2671 26.27 13.0817 26.1773 12.958 26.1155C12.649 25.961 12 25.7446 11.2891 25.7446C9.89835 25.7446 8.50759 26.4864 8.50759 28.3407C8.50759 29.3915 9.06389 30.1642 9.65111 30.4114C8.6003 30.875 7.82766 31.8022 7.82766 33.2238C7.82766 35.3563 9.49658 36.5308 11.2582 36.5308C13.6998 36.5308 14.8742 34.9546 14.8742 33.3166C14.8742 32.6366 14.6579 32.1421 14.4415 31.8022C15.5541 31.215 15.5541 30.5659 15.6159 30.0405C15.6778 29.7006 15.585 29.6079 15.3687 29.8551V29.8551ZM21.828 36.6235C18.6138 36.6235 16.914 33.9965 16.914 30.3496C16.914 26.7336 18.6138 24.0757 21.828 24.0757C25.0422 24.0757 26.7421 26.7336 26.7421 30.3805C26.7421 34.0274 25.0113 36.6235 21.828 36.6235V36.6235ZM21.828 25.0338C19.6028 25.0338 18.892 28.1553 18.892 30.3496C18.892 32.6057 19.6028 35.6345 21.828 35.6345C24.0223 35.6345 24.7641 32.6366 24.7641 30.3496C24.7641 28.0626 23.9914 25.0338 21.828 25.0338V25.0338ZM3.46992 31.524H2.07916V36.2217C2.07916 36.3762 1.98644 36.4072 1.89372 36.4072H0.193899C0.0702756 36.4072 0.00846376 36.3453 0.00846376 36.2217V24.5393C0.00846376 24.4157 0.0702756 24.3229 0.193899 24.3229H3.46992C4.42801 24.3229 5.23156 24.4157 6.00421 25.1265C6.71504 25.8064 7.11682 26.7954 7.11682 27.8771C7.08592 30.2878 5.38609 31.524 3.46992 31.524ZM3.03724 25.1265H2.04825V30.6277H2.97543C4.45891 30.6277 5.07703 29.2679 5.07703 27.908C5.07703 26.5173 4.45891 25.1265 3.03724 25.1265V25.1265ZM57.7716 25.8064C57.648 25.8064 57.5862 25.8991 57.5862 25.9919V32.6984C57.5862 33.4711 57.5862 34.3674 56.9062 35.0782C56.5354 35.48 56.01 35.6654 55.3918 35.6654C54.8046 35.6654 54.2792 35.4182 53.8775 34.9546C53.3211 34.3055 53.3521 33.4711 53.3521 32.7603V25.9919C53.3521 25.8682 53.2593 25.7755 53.1357 25.7755H51.714C51.5904 25.7755 51.4977 25.8373 51.4977 25.9919V32.513C51.4977 34.0274 51.714 34.7382 52.4558 35.5109C53.1048 36.1908 54.1865 36.6235 55.2373 36.6235C55.7627 36.6235 57.1226 36.5308 58.0188 35.5727C58.6061 34.9546 59.0387 34.3674 59.0387 32.6366V25.9919C59.0387 25.8373 58.946 25.7755 58.8533 25.7755H57.7716V25.8064ZM61.6657 25.8064C61.573 25.8064 61.4803 25.8682 61.4803 25.9919V36.2526C61.4803 36.3762 61.5421 36.4381 61.6657 36.4381H63.1801C63.2728 36.4381 63.3656 36.3762 63.3656 36.2526V25.961C63.3656 25.8373 63.2728 25.7755 63.211 25.7755H61.6657V25.8064ZM73.41 25.8064C73.2555 25.8064 73.1936 25.8682 73.1936 26.0537V36.1908C73.1936 36.3453 73.2555 36.4381 73.41 36.4381H78.8185C78.9421 36.4381 79.0349 36.3762 79.0349 36.2217V35.789C79.0349 35.6963 79.004 35.5418 78.8185 35.5418H75.048V31.3695H77.8604C78.015 31.3695 78.0768 31.3077 78.0768 31.1531V30.7823C78.0768 30.6277 78.015 30.535 77.8604 30.535H75.048V26.61H78.5404C78.664 26.61 78.7567 26.5482 78.7567 26.3936V26.0228C78.7567 25.8682 78.6949 25.7755 78.5404 25.7755L73.41 25.8064V25.8064ZM65.6217 28.6498C65.6217 29.5769 66.0235 30.3805 66.827 31.0295L67.9705 31.9567L68.0014 31.9876C68.7123 32.5748 69.2377 33.0075 69.2377 33.8729C69.2377 34.7691 68.4959 35.5727 67.5379 35.5727C66.9197 35.5727 66.178 35.2018 65.7453 34.8309C65.6217 34.7382 65.5908 34.7382 65.529 34.7382C65.4363 34.7382 65.3744 34.8309 65.3744 34.9855V35.5418C65.3744 35.8199 65.4054 35.9127 65.6526 36.0363C66.2707 36.3453 66.8579 36.5617 67.9087 36.5617C70.2576 36.5617 71.2775 34.8619 71.2775 33.5329C71.2775 32.4821 70.8139 31.5858 69.8558 30.8441L68.3723 29.7006C68.156 29.546 67.507 29.0515 67.507 28.2171C67.507 27.1045 68.4341 26.5791 69.0832 26.5791C69.8249 26.5791 70.2885 26.9499 70.5048 27.1045C70.5666 27.1663 70.5975 27.1972 70.6594 27.1972C70.7521 27.1972 70.8448 27.1045 70.8448 26.9499V26.5173C70.8448 26.27 70.8139 26.2082 70.5975 26.0846C70.0412 25.8373 69.3613 25.6828 68.7741 25.6828C67.167 25.6519 65.6217 26.7645 65.6217 28.6498V28.6498ZM41.0515 35.8817C40.3098 36.3453 38.8572 36.4999 38.1773 36.4999C34.8394 36.4999 32.6451 34.5837 32.6451 30.5041C32.6451 26.6409 34.7158 24.0757 38.0845 24.0757C38.8881 24.0757 40.1552 24.2302 40.8661 24.5702C41.1133 24.6938 41.2988 24.8174 41.2988 25.1574V25.6519C41.2988 25.7755 41.2678 25.8991 41.1133 25.8991C40.9588 25.8991 40.6188 25.6519 40.4952 25.5901C39.8771 25.2501 39.1971 25.0338 38.5481 25.0338C36.1375 25.0338 34.6849 27.4753 34.6849 30.2878C34.6849 33.162 36.1684 35.5109 38.4554 35.5109C39.568 35.5109 40.3716 35.0473 40.8661 34.7382C40.9279 34.7073 41.0515 34.6455 41.1133 34.6455C41.2369 34.6455 41.2988 34.7691 41.2988 34.9237V35.3563C41.3297 35.6345 41.2678 35.7581 41.0515 35.8817V35.8817Z" fill="var(--fill-0, white)"/>
</g>
<defs>
<clipPath id="clip0_3258_122">
<rect width="86.2135" height="36.6235" fill="white"/>
</clipPath>
</defs>
</svg>
