<svg overflow="visible" style="display: block;" viewBox="0 0 127.463 26.009" fill="none" xmlns="http://www.w3.org/2000/svg">
<g id="g13239">
<path id="path10804" d="M46.9734 26.009L59.5419 12.4418L48.1795 2.41069e-06H56.7489L63.8584 7.69015L71.0314 2.41069e-06H79.6643L68.2384 12.4418L80.8069 26.009H71.9835L63.9219 17.1934L55.8602 26.009H46.9734Z" fill="var(--fill-0, white)"/>
<path id="path10816" d="M125.051 8.12779C126.384 8.12779 127.463 9.19066 127.463 10.5036C127.463 11.8791 126.384 12.9419 125.051 12.9419C123.718 12.9419 122.639 11.8791 122.639 10.5036C122.639 9.19066 123.718 8.12779 125.051 8.12779ZM125.051 8.50293C123.972 8.50293 123.083 9.44075 123.083 10.5036C123.083 11.629 123.972 12.5668 125.051 12.5668C126.13 12.5668 127.019 11.6915 127.019 10.5661C127.019 9.44075 126.13 8.50293 125.051 8.50293ZM124.606 11.9416H124.162V9.25318C124.416 9.19066 124.606 9.19066 124.924 9.19066C125.305 9.19066 125.622 9.25318 125.749 9.37822C125.939 9.50327 126.003 9.69084 126.003 9.94092C126.003 10.3161 125.749 10.5036 125.495 10.5661C125.749 10.6287 125.876 10.8162 125.939 11.1914C126.003 11.629 126.066 11.754 126.13 11.8791H125.685C125.622 11.8166 125.559 11.5665 125.495 11.1914C125.432 10.8787 125.241 10.6912 124.924 10.6912H124.606V11.9416ZM124.606 10.4411H124.924C125.305 10.4411 125.559 10.316 125.559 10.0034C125.559 9.75335 125.368 9.56579 124.924 9.56579C124.797 9.56579 124.67 9.56579 124.606 9.56579V10.4411Z" fill="var(--fill-0, white)"/>
<path id="path10820" d="M6.15733 11.0663C5.90342 10.1285 5.26865 9.37825 4.06257 9.37825C2.22173 9.37825 1.45999 10.9413 1.45999 12.5668C1.45999 14.1924 2.22173 15.7554 4.06257 15.7554C5.3956 15.7554 6.09385 14.7551 6.22081 13.5672H7.68079C7.55383 15.5679 6.09385 16.9434 4.06257 16.9434C1.52347 16.9434 1.2096e-05 14.9427 1.2096e-05 12.5668C1.2096e-05 10.191 1.52347 8.19034 4.06257 8.19034C5.9669 8.19034 7.49036 9.2532 7.68079 11.0663H6.15733Z" fill="var(--fill-0, white)"/>
<path id="path10824" d="M9.77558 14.0673C9.77558 15.0052 10.2834 15.8805 11.426 15.8805C12.1877 15.8805 12.6955 15.5679 12.9495 14.8801H14.219C13.9016 16.1931 12.759 16.9433 11.426 16.9433C9.52167 16.9433 8.44255 15.6304 8.44255 13.7547C8.44255 12.0041 9.58515 10.5661 11.426 10.5661C13.3938 10.5661 14.5364 12.3167 14.346 14.1299L9.77558 14.0673ZM12.9495 13.192C12.886 12.3167 12.3147 11.5665 11.426 11.5665C10.4738 11.5665 9.83906 12.2542 9.77558 13.192H12.9495Z" fill="var(--fill-0, white)"/>
<path id="path10826" d="M15.3616 16.7558H16.6946V8.37791H15.3616V16.7558Z" fill="var(--fill-0, white)"/>
<path id="path10838" d="M19.1067 14.0673C19.1067 15.0052 19.6145 15.8805 20.7571 15.8805C21.5189 15.8805 22.0267 15.5679 22.2806 14.8801H23.5501C23.2328 16.1931 22.0902 16.9433 20.7571 16.9433C18.8528 16.9433 17.7737 15.6304 17.7737 13.7547C17.7737 12.0041 18.9163 10.5661 20.7571 10.5661C22.7249 10.5661 23.8675 12.3167 23.6771 14.1299L19.1067 14.0673ZM22.2806 13.192C22.2171 12.3167 21.6458 11.5665 20.7571 11.5665C19.805 11.5665 19.1702 12.2542 19.1067 13.192H22.2806Z" fill="var(--fill-0, white)"/>
<path id="path10842" d="M24.6293 8.37791H25.9623V11.504C26.3432 10.9413 27.1049 10.5662 27.8032 10.5662C29.771 10.5662 30.6597 12.0042 30.6597 13.8173C30.6597 15.4428 29.8345 17.0059 27.9936 17.0059C27.1684 17.0059 26.2797 16.8183 25.8354 16.0055V16.8183H24.5658L24.6293 8.37791ZM27.6762 11.629C26.5336 11.629 25.9623 12.5043 25.9623 13.7548C25.9623 15.0052 26.5971 15.8805 27.6762 15.8805C28.9458 15.8805 29.3901 14.8176 29.3901 13.7548C29.3901 12.6294 28.8188 11.629 27.6762 11.629Z" fill="var(--fill-0, white)"/>
<path id="path10846" d="M31.9292 10.6912H33.1988V11.8791C33.3257 11.2539 34.1509 10.5661 34.9761 10.5661C35.2935 10.5661 35.357 10.5661 35.4839 10.6287V11.9416C35.2935 11.9416 35.1031 11.8791 34.9126 11.8791C33.9605 11.8791 33.2622 12.6294 33.2622 13.9423V16.8183H31.9292V10.6912Z" fill="var(--fill-0, white)"/>
<path id="path10848" d="M36.6265 8.37791H37.9596V9.62834H36.6265V8.37791ZM36.6265 10.6912H37.9596V16.7558H36.6265V10.6912Z" fill="var(--fill-0, white)"/>
<path id="path10860" d="M39.1021 10.6912H40.1178V8.87806H41.4508V10.6912H42.6569V11.6915H41.4508V14.9426C41.4508 15.5053 41.5143 15.7554 42.0856 15.7554C42.276 15.7554 42.4664 15.7554 42.6569 15.6929V16.7558C42.3395 16.7558 42.0856 16.8183 41.7682 16.8183C40.3717 16.8183 40.1178 16.2556 40.0543 15.2553V11.6915H39.1021V10.6912Z" fill="var(--fill-0, white)"/>
<path id="path10864" d="M43.5456 10.6912H45.0056L46.5925 15.1927L48.1794 10.6912H49.5759L47.1638 17.0684C46.7195 18.1312 46.4021 19.1316 45.0056 19.1316C44.6882 19.1316 44.3708 19.1316 44.0534 19.069V18.0062C44.2438 18.0687 44.4977 18.0687 44.6882 18.0687C45.3229 18.0687 45.4499 17.7561 45.6403 17.1934L45.7673 16.6932L43.5456 10.6912Z" fill="var(--fill-0, white)"/>
<path id="path10868" d="M84.2982 11.0663C84.0443 10.1285 83.4095 9.37825 82.2034 9.37825C80.3626 9.37825 79.6008 10.9413 79.6008 12.5668C79.6008 14.1924 80.3626 15.7554 82.2034 15.7554C83.5365 15.7554 84.2347 14.7551 84.3617 13.5672H85.8216C85.6947 15.5679 84.2347 16.9434 82.2034 16.9434C79.6643 16.9434 78.1409 14.9427 78.1409 12.5668C78.1409 10.191 79.6643 8.19034 82.2034 8.19034C84.1077 8.19034 85.6312 9.2532 85.8216 11.0663H84.2982Z" fill="var(--fill-0, white)"/>
<path id="path10872" d="M87.0277 10.6912H88.2972V11.8791C88.4242 11.2539 89.2494 10.5661 90.0746 10.5661C90.392 10.5661 90.4554 10.5661 90.5824 10.6287V11.9416C90.392 11.9416 90.2015 11.8791 90.0111 11.8791C89.0589 11.8791 88.3607 12.6294 88.3607 13.9423V16.8183H87.0277V10.6912Z" fill="var(--fill-0, white)"/>
<path id="path10876" d="M97.1841 16.7558H95.851V15.8805C95.5337 16.5057 94.7719 16.8808 94.0737 16.8808C92.4867 16.8808 91.7885 16.068 91.7885 14.505V10.6287H93.1215V14.3799C93.1215 15.4428 93.5659 15.8179 94.3276 15.8179C95.4702 15.8179 95.851 15.1302 95.851 14.1924V10.6912H97.1841V16.7558Z" fill="var(--fill-0, white)"/>
<path id="path10878" d="M98.771 8.37791H100.104V9.62834H98.771V8.37791ZM98.771 10.6912H100.104V16.7558H98.771V10.6912Z" fill="var(--fill-0, white)"/>
<path id="path10890" d="M102.834 14.8176C102.897 15.5678 103.532 15.8805 104.23 15.8805C104.738 15.8805 105.627 15.7554 105.627 15.0677C105.563 14.3799 104.611 14.2549 103.595 14.0673C102.58 13.8798 101.628 13.5046 101.628 12.2542C101.628 10.9413 103.087 10.5036 104.23 10.5036C105.5 10.5036 106.642 11.0038 106.833 12.3792H105.436C105.309 11.754 104.801 11.5665 104.167 11.5665C103.786 11.5665 103.024 11.629 103.024 12.1917C103.024 12.8794 104.04 12.9419 105.055 13.192C106.071 13.4421 107.023 13.7547 107.023 14.9426C107.023 16.3806 105.563 16.9433 104.294 16.9433C102.77 16.9433 101.564 16.2556 101.564 14.8176H102.834V14.8176Z" fill="var(--fill-0, white)"/>
<path id="path10894" d="M109.118 14.0673C109.118 15.0052 109.626 15.8805 110.768 15.8805C111.53 15.8805 112.038 15.5679 112.292 14.8801H113.561C113.244 16.1931 112.101 16.9433 110.768 16.9433C108.864 16.9433 107.785 15.6304 107.785 13.7547C107.785 12.0041 108.927 10.5661 110.768 10.5661C112.736 10.5661 113.879 12.3167 113.688 14.1299L109.118 14.0673ZM112.292 13.192C112.228 12.3167 111.657 11.5665 110.768 11.5665C109.816 11.5665 109.181 12.2542 109.118 13.192H112.292Z" fill="var(--fill-0, white)"/>
<path id="path10898" d="M116.037 14.8176C116.1 15.5678 116.735 15.8805 117.433 15.8805C117.941 15.8805 118.83 15.7554 118.83 15.0677C118.766 14.3799 117.814 14.2549 116.799 14.0673C115.783 13.8798 114.831 13.5046 114.831 12.2542C114.831 10.9413 116.291 10.5036 117.433 10.5036C118.703 10.5036 119.846 11.0038 120.036 12.3792H118.64C118.513 11.754 118.005 11.5665 117.37 11.5665C116.989 11.5665 116.227 11.629 116.227 12.1917C116.227 12.8794 117.243 12.9419 118.259 13.192C119.274 13.4421 120.226 13.7547 120.226 14.9426C120.226 16.3806 118.766 16.9433 117.497 16.9433C115.973 16.9433 114.767 16.2556 114.767 14.8176H116.037V14.8176Z" fill="var(--fill-0, white)"/>
</g>
</svg>
