<svg overflow="visible" style="display: block;" viewBox="0 0 170.689 25.3043" fill="none" xmlns="http://www.w3.org/2000/svg">
<g id="NCL">
<g id="Group">
<path id="Vector" d="M29.0912 20.9716C29.0924 20.9716 29.0912 0.251993 29.0912 0.251993H0V24.7823C0 24.7823 2.59279 22.3879 6.15563 22.154C11.2514 21.818 13.3583 24.3052 18.1933 25.13C24.1051 26.1362 27.9672 22.5039 28.8707 21.4534C29.0918 21.1822 29.055 21.1128 29.0813 21.0503L29.0912 20.9716Z" fill="var(--fill-0, white)"/>
<path id="Vector_2" d="M2.75731 20.323C3.73376 19.8102 4.59939 19.5495 6.65263 19.4311C11.6142 19.1429 13.4656 20.9838 18.1583 21.7118C21.8483 22.2834 23.929 21.4598 25.4987 20.4554C26.3316 19.9222 26.1105 20.0622 26.5469 19.6977C26.9342 19.3751 27.0275 19.1499 26.9721 18.9254C26.9552 18.8583 26.8823 18.8583 26.7417 18.9516C26.6314 19.0234 26.4179 19.1645 26.4179 19.1645C22.7256 21.7404 17.8836 20.2261 13.6558 18.9003C9.72198 17.6666 4.89046 18.2067 2.70423 19.7636C2.70423 19.7636 2.44466 19.931 2.25975 20.2127C2.19909 20.3049 2.05909 20.6834 2.23234 20.6035C2.43241 20.5114 2.59399 20.397 2.75731 20.323Z" fill="var(--fill-0, black)"/>
<g id="Group_2">
<path id="Vector_3" d="M8.50226 13.9148L4.31879 8.42237V13.9148H2.44288V5.27485H4.1963L8.24386 10.594V5.27485H10.1204V13.9148H8.50226V13.9148Z" fill="var(--fill-0, black)"/>
<path id="Vector_4" d="M15.765 14.0629C13.2224 14.0629 11.3342 12.1013 11.3342 9.6199V9.59482C11.3342 7.13852 13.1856 5.1267 15.8379 5.1267C17.4671 5.1267 18.4424 5.67034 19.2456 6.45955L18.0358 7.8554C17.3691 7.24935 16.6901 6.88012 15.8257 6.88012C14.3709 6.88012 13.3215 8.08873 13.3215 9.56974V9.59482C13.3215 11.0758 14.3458 12.3095 15.8257 12.3095C16.8132 12.3095 17.4181 11.9152 18.0977 11.2981L19.3074 12.5207C18.4185 13.4703 17.4309 14.0629 15.765 14.0629Z" fill="var(--fill-0, black)"/>
<path id="Vector_5" d="M20.5639 13.9148V5.27485H22.4654V12.187H26.7731V13.9148H20.5639Z" fill="var(--fill-0, black)"/>
</g>
</g>
<path id="Vector_6" d="M43.293 13.2655L36.9769 4.97384V13.2649H34.1456V0.223395H36.7897L42.9021 8.25377V0.223395H45.7341V13.2655H43.293Z" fill="var(--fill-0, white)"/>
<path id="Vector_7" d="M57.0642 13.4895C53.0394 13.4895 50.152 10.489 50.152 6.78151V6.74418C50.152 3.03611 53.0767 0 57.1021 0C61.1258 0 64.0143 3.00111 64.0143 6.70802V6.74418C64.0137 10.4517 61.089 13.4895 57.0642 13.4895ZM61.0144 6.74418C61.0144 4.50779 59.3747 2.64529 57.0648 2.64529C54.7549 2.64529 53.1526 4.47279 53.1526 6.70802V6.74418C53.1526 8.98058 54.7911 10.8431 57.1021 10.8431C59.4114 10.8431 61.0144 9.01674 61.0144 6.78151V6.74418Z" fill="var(--fill-0, white)"/>
<path id="Vector_8" d="M75.9908 13.2655L73.1961 9.09256H70.9417V13.2655H68.073V0.223395H74.0349C77.1095 0.223395 78.9545 1.8444 78.9545 4.52877V4.56494C78.9545 6.67009 77.8188 7.99303 76.1587 8.60842L79.3453 13.2655H75.9908ZM76.0467 4.67577C76.0467 3.44674 75.1899 2.81327 73.7934 2.81327H70.9417V6.55926H73.8477C75.2453 6.55926 76.0467 5.81438 76.0467 4.71485V4.67577Z" fill="var(--fill-0, white)"/>
<path id="Vector_9" d="M97.4593 13.36H94.9633L92.0194 4.82627L89.0743 13.36H86.5783L82.1259 0.223406H85.2L87.9013 9.05524L90.8259 0.187241H93.2857L96.2116 9.05524L98.9129 0.223406H101.913L97.4593 13.36Z" fill="var(--fill-0, white)"/>
<path id="Vector_10" d="M105.349 13.2655V0.223395H115.187V2.77536H108.199V5.42065H114.348V7.97378H108.199V10.7136H115.28V13.2655H105.349V13.2655Z" fill="var(--fill-0, white)"/>
<path id="Vector_11" d="M125.423 13.4895C121.363 13.4895 118.567 10.6395 118.567 6.78151V6.74418C118.567 3.03611 121.455 0 125.405 0C127.752 0 129.168 0.63347 130.529 1.78842L128.72 3.96881C127.714 3.13002 126.82 2.64471 125.31 2.64471C123.223 2.64471 121.566 4.48912 121.566 6.70743V6.7436C121.566 9.12932 123.206 10.8792 125.516 10.8792C126.559 10.8792 127.491 10.6197 128.218 10.0976V8.23394H125.33V5.75781H130.994V11.4211C129.653 12.5568 127.808 13.4895 125.423 13.4895Z" fill="var(--fill-0, white)"/>
<path id="Vector_12" d="M135.471 13.2655V0.223395H138.34V13.2655H135.471Z" fill="var(--fill-0, white)"/>
<path id="Vector_13" d="M152.693 13.2655L151.224 10.3414H145.986L144.793 13.2655H141.868L147.457 0.131231H150.102L155.692 13.2655H152.693V13.2655ZM148.744 3.5774L147.011 7.80637H150.476L148.744 3.5774Z" fill="var(--fill-0, white)"/>
<path id="Vector_14" d="M168.249 13.2655L161.933 4.97384V13.2649H159.101V0.223395H161.746L167.857 8.25435V0.223395H170.689V13.2655H168.249Z" fill="var(--fill-0, white)"/>
<path id="Vector_15" d="M37.3957 24.5566C35.4761 24.5566 34.0499 23.0756 34.0499 21.2037V21.1845C34.0499 19.3296 35.4487 17.8101 37.4517 17.8101C38.6819 17.8101 39.418 18.2213 40.0241 18.8174L39.1107 19.8703C38.6084 19.4147 38.0957 19.1342 37.443 19.1342C36.3434 19.1342 35.5519 20.0476 35.5519 21.1664V21.1845C35.5519 22.3021 36.3254 23.2354 37.443 23.2354C38.189 23.2354 38.6452 22.9367 39.1573 22.4707L40.0708 23.3923C39.4 24.1109 38.6551 24.5566 37.3957 24.5566Z" fill="var(--fill-0, white)"/>
<path id="Vector_16" d="M46.108 24.4463L44.7104 22.3593H43.5823V24.4463H42.1467V17.9238H45.1292C46.6674 17.9238 47.5902 18.7329 47.5902 20.075V20.0931C47.5902 21.1472 47.0214 21.8086 46.1914 22.1166L47.7861 24.4463H46.108V24.4463ZM46.1354 20.1497C46.1354 19.5332 45.7084 19.2176 45.0084 19.2176H43.5823V21.0917H45.0359C45.7352 21.0917 46.1354 20.7178 46.1354 20.1678V20.1497V20.1497Z" fill="var(--fill-0, white)"/>
<path id="Vector_17" d="M52.5366 24.5484C50.7832 24.5484 49.7122 23.5696 49.7122 21.65V17.9232H51.1466V21.6121C51.1466 22.6749 51.6786 23.2243 52.5547 23.2243C53.4308 23.2243 53.9616 22.6935 53.9616 21.6587V17.9232H55.3971V21.6033C55.3977 23.5778 54.2877 24.5484 52.5366 24.5484Z" fill="var(--fill-0, white)"/>
<path id="Vector_18" d="M57.8564 24.4463V17.9238H59.2919V24.4463H57.8564Z" fill="var(--fill-0, white)"/>
<path id="Vector_19" d="M64.1735 24.5385C63.186 24.5385 62.1891 24.1944 61.4052 23.495L62.2539 22.4789C62.8407 22.9642 63.4561 23.2716 64.201 23.2716C64.7889 23.2716 65.143 23.0394 65.143 22.6574V22.6381C65.143 22.2747 64.9196 22.088 63.8294 21.8086C62.5146 21.4727 61.6659 21.1093 61.6659 19.8149V19.7945C61.6659 18.6121 62.6173 17.8282 63.9501 17.8282C64.9003 17.8282 65.7117 18.1268 66.3732 18.6588L65.6271 19.7402C65.0497 19.3389 64.4809 19.0963 63.9321 19.0963C63.3808 19.0963 63.0927 19.3483 63.0927 19.665V19.6842C63.0927 20.1124 63.3727 20.253 64.4996 20.5411C65.8237 20.8864 66.5698 21.3612 66.5698 22.4993V22.5162C66.5692 23.8129 65.5805 24.5385 64.1735 24.5385Z" fill="var(--fill-0, white)"/>
<path id="Vector_20" d="M68.7472 24.4463V17.9238H73.668V19.1989H70.1728V20.523H73.2486V21.7999H70.1728V23.1706H73.7147V24.4469H68.7472V24.4463Z" fill="var(--fill-0, white)"/>
<path id="Vector_21" d="M79.6481 24.4463V17.9238H81.0836V23.1403H84.3361V24.4458H79.6481V24.4463Z" fill="var(--fill-0, white)"/>
<path id="Vector_22" d="M86.4121 24.4463V17.9238H87.8476V24.4463H86.4121Z" fill="var(--fill-0, white)"/>
<path id="Vector_23" d="M94.9849 24.4463L91.8258 20.2996V24.4463H90.4095V17.9238H91.7336L94.7901 21.9399V17.9238H96.2064V24.4463H94.9849Z" fill="var(--fill-0, white)"/>
<path id="Vector_24" d="M98.7012 24.4463V17.9238H103.623V19.1989H100.128V20.523H103.204V21.7999H100.128V23.1706H103.67V24.4469H98.7012V24.4463Z" fill="var(--fill-0, white)"/>
<g id="Group_3">
<path id="Vector_25" d="M108.228 21.237C107.849 21.615 107.392 21.8057 106.855 21.8057C106.32 21.8057 105.863 21.6156 105.487 21.237C105.111 20.859 104.924 20.3994 104.924 19.861C104.924 19.3308 105.114 18.8746 105.491 18.496C105.867 18.1181 106.323 17.9308 106.855 17.9308C107.392 17.9308 107.849 18.1175 108.228 18.496C108.605 18.8729 108.795 19.3273 108.795 19.861C108.795 20.3994 108.605 20.8555 108.228 21.237ZM105.679 18.6862C105.356 19.0099 105.195 19.4031 105.195 19.8651C105.195 20.3276 105.355 20.7243 105.677 21.0509C106 21.3782 106.393 21.5421 106.856 21.5421C107.317 21.5421 107.724 21.335 108.035 21.0509C108.375 20.7406 108.52 20.3276 108.52 19.8651C108.52 19.4031 108.358 19.0094 108.035 18.6862C107.708 18.3584 107.316 18.1939 106.856 18.1939C106.396 18.1939 106.004 18.3578 105.679 18.6862ZM106.819 18.7929C107.082 18.7929 107.276 18.8192 107.399 18.8699C107.619 18.9627 107.727 19.1418 107.727 19.4083C107.727 19.5985 107.658 19.7373 107.521 19.8277C107.446 19.875 107.345 19.9111 107.212 19.931C107.381 19.9566 107.501 20.0284 107.578 20.141C107.657 20.253 107.692 20.362 107.692 20.4688V20.6245C107.692 20.6729 107.695 20.7266 107.697 20.7826C107.702 20.8398 107.708 20.8759 107.717 20.8929L107.731 20.9203H107.381C107.378 20.9133 107.375 20.9057 107.374 20.8987C107.371 20.8917 107.37 20.8841 107.37 20.8742L107.361 20.8065V20.6374C107.361 20.3924 107.294 20.2308 107.16 20.1509C107.08 20.1066 106.94 20.0826 106.743 20.0826H106.448V20.9203H106.071V18.7935H106.819V18.7929ZM107.222 19.1284C107.128 19.0753 106.977 19.0479 106.769 19.0479H106.45V19.819H106.789C106.946 19.819 107.066 19.8021 107.147 19.7717C107.291 19.714 107.366 19.6014 107.366 19.4387C107.366 19.2858 107.316 19.1803 107.222 19.1284Z" fill="var(--fill-0, white)"/>
</g>
</g>
</svg>
