<svg width="386" height="280" viewBox="0 0 386 280" fill="none" xmlns="http://www.w3.org/2000/svg">
<path d="M74.1558 28.0836C74.1558 32.9642 73.0356 37.4448 70.7953 41.5253C68.555 45.5258 65.1146 48.7662 60.474 51.2465C55.8334 53.7268 50.0727 54.967 43.1918 54.967H30.4702V85.2108H9.94761V0.960131H43.1918C49.9127 0.960131 55.5934 2.12028 60.234 4.44057C64.8746 6.76086 68.355 9.96127 70.6753 14.0418C72.9956 18.1223 74.1558 22.8029 74.1558 28.0836ZM41.6316 38.6449C45.5521 38.6449 48.4725 37.7248 50.3927 35.8846C52.313 34.0443 53.2731 31.444 53.2731 28.0836C53.2731 24.7231 52.313 22.1228 50.3927 20.2826C48.4725 18.4423 45.5521 17.5222 41.6316 17.5222H30.4702V38.6449H41.6316ZM132.606 85.2108L115.084 53.4068H110.163V85.2108H89.6405V0.960131H124.085C130.726 0.960131 136.366 2.12028 141.007 4.44057C145.728 6.76086 149.248 9.96127 151.568 14.0418C153.889 18.0423 155.049 22.5229 155.049 27.4835C155.049 33.0842 153.449 38.0848 150.248 42.4854C147.128 46.886 142.487 50.0064 136.326 51.8466L155.769 85.2108H132.606ZM110.163 38.8849H122.885C126.645 38.8849 129.446 37.9648 131.286 36.1246C133.206 34.2844 134.166 31.684 134.166 28.3236C134.166 25.1232 133.206 22.6029 131.286 20.7626C129.446 18.9224 126.645 18.0023 122.885 18.0023H110.163V38.8849ZM193.255 0.960131V85.2108H172.732V0.960131H193.255ZM209.448 42.9655C209.448 34.6444 211.248 27.2435 214.848 20.7626C218.449 14.2018 223.449 9.12117 229.85 5.52071C236.331 1.84024 243.652 7.63036e-06 251.813 7.63036e-06C261.814 7.63036e-06 270.375 2.64034 277.496 7.92101C284.617 13.2017 289.378 20.4026 291.778 29.5238H269.215C267.535 26.0033 265.135 23.323 262.014 21.4827C258.974 19.6425 255.493 18.7224 251.573 18.7224C245.252 18.7224 240.131 20.9227 236.211 25.3232C232.29 29.7238 230.33 35.6045 230.33 42.9655C230.33 50.3264 232.29 56.2071 236.211 60.6077C240.131 65.0083 245.252 67.2085 251.573 67.2085C255.493 67.2085 258.974 66.2884 262.014 64.4482C265.135 62.608 267.535 59.9276 269.215 56.4072H291.778C289.378 65.5283 284.617 72.7292 277.496 78.0099C270.375 83.2106 261.814 85.8109 251.813 85.8109C243.652 85.8109 236.331 84.0107 229.85 80.4102C223.449 76.7297 218.449 71.6491 214.848 65.1683C211.248 58.6875 209.448 51.2865 209.448 42.9655ZM329.669 17.4022V34.4444H357.153V50.2864H329.669V68.7687H360.753V85.2108H309.147V0.960131H360.753V17.4022H329.669Z" fill="white"/>
<path fill-rule="evenodd" clip-rule="evenodd" d="M30.4687 84.9074H9.9486V146.917H0L20.2086 181.92L40.4172 146.917H30.4687V84.9074Z" fill="white"/>
<path d="M93.5182 97.9724C102.399 97.9724 110.16 99.7327 116.801 103.253C123.442 106.774 128.563 111.734 132.163 118.135C135.844 124.456 137.684 131.777 137.684 140.098C137.684 148.339 135.844 155.66 132.163 162.061C128.563 168.461 123.402 173.422 116.681 176.942C110.04 180.463 102.319 182.223 93.5182 182.223H61.9542V97.9724H93.5182ZM92.198 164.461C99.959 164.461 106 162.341 110.32 158.1C114.641 153.86 116.801 147.859 116.801 140.098C116.801 132.337 114.641 126.296 110.32 121.975C106 117.655 99.959 115.495 92.198 115.495H82.4768V164.461H92.198ZM192.118 182.223L174.596 150.419H169.675V182.223H149.153V97.9724H183.597C190.238 97.9724 195.879 99.1326 200.519 101.453C205.24 103.773 208.76 106.974 211.081 111.054C213.401 115.055 214.561 119.535 214.561 124.496C214.561 130.097 212.961 135.097 209.76 139.498C206.64 143.898 201.999 147.019 195.839 148.859L215.281 182.223H192.118ZM169.675 135.897H182.397C186.157 135.897 188.958 134.977 190.798 133.137C192.718 131.297 193.678 128.696 193.678 125.336C193.678 122.135 192.718 119.615 190.798 117.775C188.958 115.935 186.157 115.015 182.397 115.015H169.675V135.897ZM267.289 183.063C259.368 183.063 252.087 181.223 245.446 177.543C238.885 173.862 233.645 168.741 229.724 162.181C225.884 155.54 223.963 148.099 223.963 139.858C223.963 131.617 225.884 124.216 229.724 117.655C233.645 111.094 238.885 105.973 245.446 102.293C252.087 98.6125 259.368 96.7723 267.289 96.7723C275.21 96.7723 282.451 98.6125 289.012 102.293C295.653 105.973 300.853 111.094 304.614 117.655C308.454 124.216 310.374 131.617 310.374 139.858C310.374 148.099 308.454 155.54 304.614 162.181C300.773 168.741 295.573 173.862 289.012 177.543C282.451 181.223 275.21 183.063 267.289 183.063ZM267.289 164.341C274.01 164.341 279.371 162.101 283.371 157.62C287.452 153.139 289.492 147.219 289.492 139.858C289.492 132.417 287.452 126.496 283.371 122.095C279.371 117.615 274.01 115.375 267.289 115.375C260.488 115.375 255.047 117.575 250.967 121.975C246.966 126.376 244.966 132.337 244.966 139.858C244.966 147.299 246.966 153.259 250.967 157.74C255.047 162.141 260.488 164.341 267.289 164.341ZM386 125.096C386 129.976 384.88 134.457 382.64 138.538C380.399 142.538 376.959 145.778 372.318 148.259C367.678 150.739 361.917 151.979 355.036 151.979H342.314V182.223H321.792V97.9724H355.036C361.757 97.9724 367.438 99.1326 372.078 101.453C376.719 103.773 380.199 106.974 382.52 111.054C384.84 115.135 386 119.815 386 125.096ZM353.476 135.657C357.396 135.657 360.317 134.737 362.237 132.897C364.157 131.057 365.117 128.456 365.117 125.096C365.117 121.735 364.157 119.135 362.237 117.295C360.317 115.455 357.396 114.535 353.476 114.535H342.314V135.657H353.476Z" fill="white"/>
<path fill-rule="evenodd" clip-rule="evenodd" d="M342.31 182.223H321.79V244.233H311.842L332.05 279.235L352.259 244.233H342.31V182.223Z" fill="white"/>
</svg>
