<svg overflow="visible" style="display: block;" viewBox="0 0 71.2848 77.6527" fill="none" xmlns="http://www.w3.org/2000/svg">
<g id="Group 42">
<path id="Vector" d="M14.8652 75.335C14.6701 75.3351 14.4775 75.2923 14.3012 75.2095C14.125 75.1268 13.9695 75.0062 13.846 74.8565C6.44118 65.8844 -0.677007 49.3367 0.0515118 35.0708C0.0641988 34.8201 0.149618 34.5783 0.297511 34.3745C0.445404 34.1708 0.649482 34.0137 0.885232 33.9221L35.1638 20.6224C35.4715 20.5031 35.8133 20.5031 36.1211 20.6224L70.3996 33.9221C70.6354 34.0137 70.8395 34.1708 70.9874 34.3745C71.1353 34.5783 71.2207 34.8201 71.2334 35.0708C71.9619 49.3471 64.8358 65.8922 57.4257 74.8578C57.3161 74.9901 57.1813 75.0998 57.029 75.1805C56.8767 75.2612 56.7098 75.3114 56.538 75.3281C56.3661 75.3449 56.1926 75.3279 56.0273 75.2782C55.8621 75.2285 55.7083 75.147 55.5748 75.0383C55.4413 74.9297 55.3307 74.796 55.2493 74.645C55.1679 74.494 55.1173 74.3285 55.1004 74.1581C55.0835 73.9877 55.1006 73.8157 55.1507 73.6518C55.2009 73.4879 55.2831 73.3355 55.3927 73.2031C62.1716 65.0082 69.0136 49.3419 68.6467 36.0422L35.6424 23.2367L2.64472 36.0396C2.27783 49.3276 9.11198 65.0016 15.8843 73.2005C16.0422 73.3914 16.1421 73.6229 16.1725 73.868C16.2029 74.113 16.1626 74.3616 16.0561 74.5848C15.9496 74.808 15.7814 74.9966 15.571 75.1287C15.3607 75.2608 15.1168 75.331 14.8678 75.3311L14.8652 75.335Z" fill="var(--fill-0, #9D9D9D)"/>
<path id="Vector_2" d="M68.9821 47.7746C68.8192 47.7746 68.6578 47.7445 68.506 47.686L35.6425 35.0604L2.77887 47.686C2.61784 47.7479 2.44608 47.7777 2.27342 47.7738C2.10075 47.7699 1.93055 47.7323 1.77254 47.6631C1.61453 47.594 1.4718 47.4947 1.3525 47.3709C1.2332 47.247 1.13967 47.1011 1.07724 46.9415C1.01481 46.7818 0.984712 46.6115 0.988661 46.4403C0.99261 46.2691 1.03053 46.1003 1.10026 45.9436C1.16998 45.787 1.27015 45.6454 1.39503 45.5271C1.51992 45.4089 1.66708 45.3161 1.82811 45.2542L35.1677 32.4422C35.4732 32.3249 35.8117 32.3249 36.1172 32.4422L69.4568 45.2542C69.7434 45.3638 69.9822 45.5694 70.1319 45.8353C70.2815 46.1013 70.3326 46.4108 70.2762 46.7101C70.2198 47.0095 70.0595 47.2798 69.8232 47.4743C69.5868 47.6687 69.2892 47.775 68.9821 47.7746V47.7746Z" fill="var(--fill-0, #9D9D9D)"/>
<path id="Vector_3" d="M35.64 77.5502C35.2913 77.5502 34.9568 77.4128 34.7102 77.1683C34.4636 76.9238 34.325 76.5921 34.325 76.2463V21.8362C34.325 21.4904 34.4636 21.1588 34.7102 20.9143C34.9568 20.6697 35.2913 20.5324 35.64 20.5324C35.9888 20.5324 36.3233 20.6697 36.5699 20.9143C36.8165 21.1588 36.955 21.4904 36.955 21.8362V76.2463C36.955 76.5921 36.8165 76.9238 36.5699 77.1683C36.3233 77.4128 35.9888 77.5502 35.64 77.5502Z" fill="var(--fill-0, #9D9D9D)"/>
<path id="Vector_4" d="M56.4114 31.193C56.0627 31.193 55.7282 31.0556 55.4816 30.8111C55.235 30.5665 55.0964 30.2349 55.0964 29.8891V15.3272C55.0961 14.9198 54.9328 14.5292 54.6424 14.241C54.352 13.9528 53.9582 13.7906 53.5473 13.7899H17.7368C17.326 13.7906 16.9321 13.9528 16.6417 14.241C16.3513 14.5292 16.1881 14.9198 16.1877 15.3272V29.8891C16.1877 30.2349 16.0492 30.5665 15.8026 30.8111C15.5559 31.0556 15.2215 31.193 14.8727 31.193C14.5239 31.193 14.1895 31.0556 13.9428 30.8111C13.6962 30.5665 13.5577 30.2349 13.5577 29.8891V15.3272C13.5587 14.2284 13.9993 13.1749 14.7828 12.3978C15.5663 11.6207 16.6286 11.1835 17.7368 11.1821H53.5473C54.6555 11.1835 55.7179 11.6207 56.5014 12.3978C57.2848 13.1749 57.7254 14.2284 57.7265 15.3272V29.8891C57.7265 30.2349 57.5879 30.5665 57.3413 30.8111C57.0947 31.0556 56.7602 31.193 56.4114 31.193Z" fill="var(--fill-0, #9D9D9D)"/>
<path id="Vector_5" d="M40.384 13.79H30.8948C30.5461 13.79 30.2116 13.6526 29.965 13.4081C29.7184 13.1635 29.5798 12.8319 29.5798 12.4861V1.30389C29.5798 0.958078 29.7184 0.626428 29.965 0.381901C30.2116 0.137374 30.5461 0 30.8948 0H40.384C40.7328 0 41.0673 0.137374 41.3139 0.381901C41.5605 0.626428 41.699 0.958078 41.699 1.30389V12.4861C41.699 12.8319 41.5605 13.1635 41.3139 13.4081C41.0673 13.6526 40.7328 13.79 40.384 13.79ZM32.2099 11.1822H39.069V2.60778H32.2099V11.1822Z" fill="var(--fill-0, #9D9D9D)"/>
<path id="Vector 1" d="M14.603 74.1734C21.656 74.9303 35.762 76.4443 35.762 76.4443" stroke="var(--stroke-0, #9D9D9D)" stroke-width="2.43074"/>
<path id="Vector 2" d="M35.4844 76.4443L56.6058 74.1734" stroke="var(--stroke-0, #9D9D9D)" stroke-width="2.43074"/>
</g>
</svg>
