<svg overflow="visible" style="display: block;" viewBox="0 0 80.0672 79.3898" fill="none" xmlns="http://www.w3.org/2000/svg">
<g id="017-refresh 2" clip-path="url(#clip0_3261_194)">
<path id="Vector" d="M73.3949 5.29265H70.726V3.96949C70.726 2.91672 70.3042 1.90706 69.5535 1.16264C68.8027 0.418213 67.7844 1.67302e-07 66.7227 1.67302e-07C65.6609 1.67302e-07 64.6426 0.418213 63.8919 1.16264C63.1411 1.90706 62.7193 2.91672 62.7193 3.96949V5.29265H57.3815V3.96949C57.3815 2.91672 56.9597 1.90706 56.2089 1.16264C55.4582 0.418213 54.4399 0 53.3781 0C52.3164 0 51.2981 0.418213 50.5473 1.16264C49.7966 1.90706 49.3748 2.91672 49.3748 3.96949V5.29265H44.037V3.96949C44.037 2.91672 43.6152 1.90706 42.8644 1.16264C42.1136 0.418213 41.0954 0 40.0336 0C38.9718 0 37.9536 0.418213 37.2028 1.16264C36.452 1.90706 36.0302 2.91672 36.0302 3.96949V5.29265H30.6924V3.96949C30.6924 2.91672 30.2706 1.90706 29.5199 1.16264C28.7691 0.418213 27.7508 0 26.6891 0C25.6273 0 24.609 0.418213 23.8583 1.16264C23.1075 1.90706 22.6857 2.91672 22.6857 3.96949V5.29265H17.3479V3.96949C17.3479 2.91672 16.9261 1.90706 16.1753 1.16264C15.4246 0.418213 14.4063 0 13.3445 0C12.2828 0 11.2645 0.418213 10.5137 1.16264C9.76295 1.90706 9.34117 2.91672 9.34117 3.96949V5.29265H6.67227C4.90332 5.29476 3.20744 5.99245 1.9566 7.2327C0.705768 8.47296 0.00211892 10.1545 0 11.9085L0 62.1887C0.00211892 63.9427 0.705768 65.6242 1.9566 66.8645C3.20744 68.1047 4.90332 68.8024 6.67227 68.8045H18.7331C21.2084 72.0902 24.4228 74.7578 28.1205 76.5955C31.8183 78.4331 35.8974 79.3899 40.0336 79.3899C44.1698 79.3899 48.2489 78.4331 51.9467 76.5955C55.6444 74.7578 58.8588 72.0902 61.3341 68.8045H73.3949C75.1639 68.8024 76.8598 68.1047 78.1106 66.8645C79.3614 65.6242 80.0651 63.9427 80.0672 62.1887V11.9085C80.0651 10.1545 79.3614 8.47296 78.1106 7.2327C76.8598 5.99245 75.1639 5.29476 73.3949 5.29265V5.29265ZM65.3882 3.96949C65.3882 3.61857 65.5288 3.28201 65.7791 3.03387C66.0293 2.78573 66.3687 2.64633 66.7227 2.64633C67.0766 2.64633 67.416 2.78573 67.6663 3.03387C67.9165 3.28201 68.0571 3.61857 68.0571 3.96949V9.26215C68.0571 9.61307 67.9165 9.94962 67.6663 10.1978C67.416 10.4459 67.0766 10.5853 66.7227 10.5853C66.3687 10.5853 66.0293 10.4459 65.7791 10.1978C65.5288 9.94962 65.3882 9.61307 65.3882 9.26215V3.96949ZM52.0437 3.96949C52.0437 3.61857 52.1843 3.28201 52.4345 3.03387C52.6848 2.78573 53.0242 2.64633 53.3781 2.64633C53.7321 2.64633 54.0715 2.78573 54.3217 3.03387C54.572 3.28201 54.7126 3.61857 54.7126 3.96949V9.26215C54.7126 9.61307 54.572 9.94962 54.3217 10.1978C54.0715 10.4459 53.7321 10.5853 53.3781 10.5853C53.0242 10.5853 52.6848 10.4459 52.4345 10.1978C52.1843 9.94962 52.0437 9.61307 52.0437 9.26215V3.96949ZM38.6991 3.96949C38.6991 3.61857 38.8397 3.28201 39.09 3.03387C39.3403 2.78573 39.6797 2.64633 40.0336 2.64633C40.3875 2.64633 40.7269 2.78573 40.9772 3.03387C41.2275 3.28201 41.3681 3.61857 41.3681 3.96949V9.26215C41.3681 9.61307 41.2275 9.94962 40.9772 10.1978C40.7269 10.4459 40.3875 10.5853 40.0336 10.5853C39.6797 10.5853 39.3403 10.4459 39.09 10.1978C38.8397 9.94962 38.6991 9.61307 38.6991 9.26215V3.96949ZM25.3546 3.96949C25.3546 3.61857 25.4952 3.28201 25.7455 3.03387C25.9957 2.78573 26.3351 2.64633 26.6891 2.64633C27.043 2.64633 27.3824 2.78573 27.6327 3.03387C27.8829 3.28201 28.0235 3.61857 28.0235 3.96949V9.26215C28.0235 9.61307 27.8829 9.94962 27.6327 10.1978C27.3824 10.4459 27.043 10.5853 26.6891 10.5853C26.3351 10.5853 25.9957 10.4459 25.7455 10.1978C25.4952 9.94962 25.3546 9.61307 25.3546 9.26215V3.96949ZM12.0101 3.96949C12.0101 3.61857 12.1507 3.28201 12.4009 3.03387C12.6512 2.78573 12.9906 2.64633 13.3445 2.64633C13.6985 2.64633 14.0379 2.78573 14.2881 3.03387C14.5384 3.28201 14.679 3.61857 14.679 3.96949V9.26215C14.679 9.61307 14.5384 9.94962 14.2881 10.1978C14.0379 10.4459 13.6985 10.5853 13.3445 10.5853C12.9906 10.5853 12.6512 10.4459 12.4009 10.1978C12.1507 9.94962 12.0101 9.61307 12.0101 9.26215V3.96949ZM6.67227 7.93898H9.34117V9.26215C9.34117 10.3149 9.76295 11.3246 10.5137 12.069C11.2645 12.8134 12.2828 13.2316 13.3445 13.2316C14.4063 13.2316 15.4246 12.8134 16.1753 12.069C16.9261 11.3246 17.3479 10.3149 17.3479 9.26215V7.93898H22.6857V9.26215C22.6857 10.3149 23.1075 11.3246 23.8583 12.069C24.609 12.8134 25.6273 13.2316 26.6891 13.2316C27.7508 13.2316 28.7691 12.8134 29.5199 12.069C30.2706 11.3246 30.6924 10.3149 30.6924 9.26215V7.93898H36.0302V9.26215C36.0302 10.3149 36.452 11.3246 37.2028 12.069C37.9536 12.8134 38.9718 13.2316 40.0336 13.2316C41.0954 13.2316 42.1136 12.8134 42.8644 12.069C43.6152 11.3246 44.037 10.3149 44.037 9.26215V7.93898H49.3748V9.26215C49.3748 10.3149 49.7966 11.3246 50.5473 12.069C51.2981 12.8134 52.3164 13.2316 53.3781 13.2316C54.4399 13.2316 55.4582 12.8134 56.2089 12.069C56.9597 11.3246 57.3815 10.3149 57.3815 9.26215V7.93898H62.7193V9.26215C62.7193 10.3149 63.1411 11.3246 63.8919 12.069C64.6426 12.8134 65.6609 13.2316 66.7227 13.2316C67.7844 13.2316 68.8027 12.8134 69.5535 12.069C70.3042 11.3246 70.726 10.3149 70.726 9.26215V7.93898H73.3949C74.4567 7.93898 75.475 8.3572 76.2257 9.10162C76.9765 9.84604 77.3983 10.8557 77.3983 11.9085V15.878H2.66891V11.9085C2.66891 10.8557 3.09069 9.84604 3.84146 9.10162C4.59224 8.3572 5.61051 7.93898 6.67227 7.93898V7.93898ZM40.0336 76.7435C35.2829 76.7435 30.6388 75.3467 26.6887 72.7296C22.7386 70.1126 19.6599 66.3929 17.8419 62.0409C16.0238 57.6889 15.5482 52.9001 16.475 48.2801C17.4018 43.6601 19.6895 39.4163 23.0488 36.0854C26.4081 32.7546 30.688 30.4862 35.3475 29.5672C40.007 28.6483 44.8366 29.1199 49.2257 30.9226C53.6148 32.7252 57.3663 35.7779 60.0056 39.6946C62.645 43.6112 64.0538 48.216 64.0538 52.9265C64.0463 59.2409 61.5133 65.2946 57.0102 69.7596C52.5072 74.2245 46.4019 76.7361 40.0336 76.7435ZM73.3949 66.1582H63.1116C65.4678 62.1363 66.7133 57.5697 66.7226 52.9185C66.7319 48.2673 65.5047 43.6958 63.1646 39.6647C60.8246 35.6335 57.4543 32.2851 53.3934 29.9569C49.3325 27.6286 44.7245 26.4027 40.0336 26.4027C35.3427 26.4027 30.7347 27.6286 26.6738 29.9569C22.6129 32.2851 19.2426 35.6335 16.9026 39.6647C14.5625 43.6958 13.3353 48.2673 13.3446 52.9185C13.3539 57.5697 14.5994 62.1363 16.9556 66.1582H6.67227C5.61051 66.1582 4.59224 65.74 3.84146 64.9955C3.09069 64.2511 2.66891 63.2415 2.66891 62.1887V18.5243H77.3983V62.1887C77.3983 63.2415 76.9765 64.2511 76.2257 64.9955C75.475 65.74 74.4567 66.1582 73.3949 66.1582V66.1582Z" fill="var(--fill-0, #9D9D9D)"/>
<path id="Vector_2" d="M40.0336 31.7559C35.8107 31.7559 31.6827 32.9976 28.1715 35.3238C24.6603 37.6501 21.9236 40.9565 20.3076 44.8249C18.6916 48.6933 18.2688 52.95 19.0926 57.0567C19.9164 61.1634 21.95 64.9357 24.936 67.8964C27.922 70.8572 31.7264 72.8735 35.8682 73.6904C40.0099 74.5073 44.3029 74.088 48.2044 72.4857C52.1058 70.8833 55.4404 68.1698 57.7865 64.6883C60.1326 61.2068 61.3849 57.1137 61.3849 52.9265C61.3781 47.3138 59.1265 41.9328 55.1238 37.964C51.1211 33.9952 45.6942 31.7626 40.0336 31.7559V31.7559ZM40.0336 71.4508C36.3386 71.4508 32.7265 70.3644 29.6542 68.3289C26.5819 66.2935 24.1874 63.4004 22.7734 60.0155C21.3593 56.6306 20.9894 52.906 21.7102 49.3126C22.4311 45.7193 24.2104 42.4186 26.8232 39.8279C29.436 37.2372 32.7648 35.473 36.3889 34.7582C40.0129 34.0434 43.7693 34.4103 47.183 35.8123C50.5968 37.2144 53.5146 39.5887 55.5674 42.635C57.6202 45.6813 58.7159 49.2628 58.7159 52.9265C58.7106 57.8379 56.7406 62.5466 53.2382 66.0194C49.7357 69.4922 44.9868 71.4456 40.0336 71.4508V71.4508Z" fill="var(--fill-0, #9D9D9D)"/>
<path id="Vector_3" d="M54.6312 49.7986L53.23 44.2413C53.1208 43.8101 52.8982 43.4153 52.5849 43.0972C52.2716 42.7791 51.8789 42.5491 51.4467 42.4306C51.0145 42.3121 50.5583 42.3093 50.1247 42.4227C49.6911 42.536 49.2956 42.7613 48.9784 43.0756L48.0043 44.0415C46.2106 42.4611 43.9802 41.4502 41.6012 41.1394C39.2222 40.8286 36.8039 41.2322 34.6586 42.298C32.5132 43.3637 30.7394 45.0428 29.5663 47.1183C28.3931 49.1938 27.8744 51.5704 28.0773 53.9411C28.2801 56.3119 29.1952 58.5679 30.7042 60.4177C32.2132 62.2676 34.247 63.6264 36.5427 64.3186C38.8385 65.0108 41.2908 65.0046 43.583 64.3009C45.8752 63.5971 47.9019 62.2281 49.4015 60.3707C49.6137 60.0963 49.7091 59.7504 49.6674 59.4071C49.6256 59.0638 49.45 58.7504 49.1781 58.5339C48.9062 58.3173 48.5596 58.215 48.2125 58.2487C47.8654 58.2823 47.5455 58.4494 47.321 58.7141C46.1598 60.1643 44.5875 61.2368 42.8065 61.7938C41.0254 62.3507 39.1171 62.3666 37.3269 61.8393C35.5367 61.312 33.9465 60.2657 32.7609 58.835C31.5753 57.4043 30.8486 55.6546 30.6741 53.8109C30.4997 51.9673 30.8855 50.1141 31.782 48.4897C32.6785 46.8652 34.0446 45.5439 35.7047 44.6957C37.3647 43.8474 39.2427 43.511 41.0972 43.7297C42.9516 43.9485 44.6977 44.7123 46.1107 45.923L44.7762 47.2462C44.4596 47.5605 44.2326 47.9524 44.1183 48.382C44.0041 48.8116 44.0067 49.2635 44.1259 49.6918C44.2451 50.1201 44.4766 50.5094 44.7969 50.82C45.1172 51.1307 45.5148 51.3517 45.9492 51.4605L51.5539 52.8498C51.7623 52.9033 51.9766 52.9304 52.1918 52.9305C52.5763 52.9294 52.9555 52.8412 53.3004 52.6727C53.6453 52.5043 53.9469 52.2599 54.1822 51.9584C54.4175 51.6568 54.5802 51.306 54.658 50.9326C54.7358 50.5593 54.7267 50.1732 54.6312 49.8039V49.7986ZM46.8393 48.9452L50.7092 45.108L52.073 50.2379L46.8393 48.9452Z" fill="var(--fill-0, #9D9D9D)"/>
</g>
<defs>
<clipPath id="clip0_3261_194">
<rect width="80.0672" height="79.3898" fill="white"/>
</clipPath>
</defs>
</svg>
