<svg overflow="visible" style="display: block;" viewBox="0 0 27 27" fill="none" xmlns="http://www.w3.org/2000/svg">
<g id="021-pound-sterling 2" clip-path="url(#clip0_3261_162)">
<rect width="27" height="27" fill="white"/>
<path id="Vector" d="M13.5 0C6.0562 0 0 6.0562 0 13.5C0 20.9439 6.0562 27.0001 13.5 27.0001C20.9439 27.0001 27.0001 20.9439 27.0001 13.5C27.0001 6.0562 20.9438 0 13.5 0ZM13.5 25.3125C6.98653 25.3125 1.68751 20.0135 1.68751 13.5C1.68751 6.98641 6.98647 1.68745 13.5 1.68745C20.0136 1.68745 25.3125 6.98641 25.3125 13.5C25.3125 20.0135 20.0135 25.3125 13.5 25.3125V25.3125Z" fill="var(--fill-0, #9D9D9D)"/>
<path id="Vector_2" d="M14.3446 5.0625C12.0177 5.0625 10.125 6.95514 10.125 9.28207V13.5H8.4375V15.1875H10.0255C9.82763 16.5234 9.33738 17.8006 8.57918 18.9382C8.40694 19.197 8.39046 19.5298 8.53714 19.8043C8.68382 20.0787 8.96972 20.25 9.2812 20.25H18.5624V18.5625L10.7339 18.5609C11.2469 17.4985 11.5762 16.3599 11.7222 15.1875H15.1874V13.5H11.8124V9.28207C11.8124 7.88627 12.9487 6.75001 14.3445 6.75001C15.0218 6.75001 15.6587 7.0145 16.1374 7.49407C16.6153 7.97278 16.8782 8.60976 16.8765 9.28701L16.8749 10.1233L18.5624 10.1266L18.564 9.29031C18.5665 8.16229 18.129 7.10102 17.3322 6.30175C16.5347 5.50253 15.4735 5.06256 14.3446 5.0625V5.0625Z" fill="var(--fill-0, #9D9D9D)"/>
</g>
<defs>
<clipPath id="clip0_3261_162">
<rect width="27" height="27" fill="white"/>
</clipPath>
</defs>
</svg>
