<svg overflow="visible" style="display: block;" viewBox="0 0 70.8482 75.6514" fill="none" xmlns="http://www.w3.org/2000/svg">
<g id="Group">
<path id="Vector" d="M32.9519 41.7132V45.0334C32.9519 46.3316 34.0682 47.384 35.4454 47.384C36.8225 47.384 37.9388 46.3316 37.9388 45.0334V41.7132C38.9966 40.9865 39.6845 39.8104 39.6845 38.4822C39.6845 36.2752 37.7865 34.486 35.4452 34.486C33.1039 34.486 31.2059 36.2752 31.2059 38.4822C31.2061 39.8104 31.894 40.9865 32.9519 41.7132V41.7132Z" fill="var(--fill-0, #9D9D9D)"/>
<path id="Vector_2" d="M69.4274 8.63074C57.7846 7.60074 46.567 4.74342 36.0864 0.1383C35.6668 -0.0461 35.1818 -0.0461 34.762 0.1383C24.2812 4.74357 13.0637 7.60074 1.42088 8.63074C0.615533 8.70196 0 9.33924 0 10.1018V30.0207C0 40.1729 3.35542 49.9022 9.70339 58.1569C16.0294 66.3829 24.7535 72.4065 34.9324 75.5768C35.0921 75.6264 35.2581 75.6514 35.4241 75.6514C35.5903 75.6514 35.7561 75.6266 35.9158 75.5768C46.0948 72.4067 54.8188 66.3829 61.1449 58.1569C67.4928 49.9022 70.8482 40.1729 70.8482 30.0207V10.1018C70.8482 9.33924 70.2326 8.70196 69.4274 8.63074V8.63074ZM67.7134 30.0207C67.7134 39.5458 64.5642 48.6754 58.6065 56.4225C52.7713 64.0104 44.7637 69.6012 35.4241 72.6149C26.0845 69.6012 18.0768 64.0104 12.2415 56.4225C6.28386 48.6754 3.13488 39.5458 3.13488 30.0207V11.4383C14.3836 10.3002 25.2359 7.49997 35.4241 3.10525C45.6122 7.49997 56.4645 10.3002 67.7134 11.4383V30.0207Z" fill="var(--fill-0, #9D9D9D)"/>
</g>
</svg>
