<svg overflow="visible" style="display: block;" viewBox="0 0 80.0672 75.4767" fill="none" xmlns="http://www.w3.org/2000/svg">
<g id="Outline">
<path id="Vector" d="M64.0781 0L62.3016 1.67479L65.8547 5.02421L56.9394 13.4285L48.6613 5.62505L46.8847 7.29984L49.8336 10.0795L12.1414 45.6103C11.4356 46.2772 11.0393 47.1807 11.0393 48.1226C11.0393 49.0646 11.4356 49.9681 12.1414 50.635L13.0291 51.4716L10.5794 53.7808C10.2292 54.1106 9.95133 54.5022 9.76177 54.9332C9.57221 55.3643 9.47464 55.8263 9.47464 56.2929C9.47464 56.7596 9.57221 57.2216 9.76177 57.6527C9.95133 58.0837 10.2292 58.4753 10.5794 58.8051L13.2444 61.3171L0 73.802L1.7765 75.4767L15.021 62.9916L17.6857 65.5038C18.0355 65.8339 18.4509 66.0958 18.9082 66.2744C19.3655 66.4531 19.8556 66.5451 20.3506 66.5451C20.8456 66.5451 21.3357 66.4531 21.793 66.2744C22.2503 66.0958 22.6657 65.8339 23.0155 65.5038L25.4652 63.1945L26.3528 64.0313C27.0602 64.6966 28.0186 65.0702 29.0179 65.0702C30.0172 65.0702 30.9756 64.6966 31.683 64.0313L33.6224 62.2032L31.8457 60.5284L29.9064 62.3565C29.6706 62.5784 29.351 62.7029 29.0179 62.7029C28.6848 62.7029 28.3652 62.5784 28.1294 62.3565L13.918 48.96C13.8013 48.8501 13.7088 48.7195 13.6456 48.5758C13.5824 48.4321 13.5499 48.278 13.5499 48.1225C13.5499 47.9669 13.5824 47.8129 13.6456 47.6692C13.7088 47.5255 13.8013 47.3949 13.918 47.2849L17.5342 43.8762L21.7596 47.8593L23.5362 46.1845L19.3108 42.2014L22.5592 39.1393L26.2011 42.5723L27.9777 40.8975L24.3358 37.4645L27.5842 34.4024L31.8096 38.3855L33.5863 36.7107L29.3609 32.7276L32.6092 29.6655L36.2511 33.0986L38.0278 31.4238L34.3859 27.9907L37.6342 24.9286L41.8596 28.9117L43.6363 27.237L39.4109 23.2538L45.1718 17.8233L47.433 19.9549L49.2097 18.2801L46.9484 16.1485L51.6101 11.7541L67.5984 26.8259L62.9368 31.2202L54.5392 23.3043L52.7627 24.9789L61.1603 32.895L58.4511 35.4482L60.2278 37.123L69.3746 28.5005L71.6952 30.6882L73.4719 29.0134L65.8219 21.8021L74.7374 13.398L78.2905 16.7474L80.0672 15.0728L64.0781 0ZM14.8056 53.1464L23.6886 61.52L21.2389 63.8293C21.1222 63.9392 20.9837 64.0265 20.8313 64.086C20.6789 64.1455 20.5155 64.1761 20.3505 64.1761C20.1856 64.1761 20.0222 64.1455 19.8698 64.086C19.7173 64.0265 19.5789 63.9392 19.4622 63.8293L12.3562 57.13C12.2395 57.02 12.147 56.8895 12.0839 56.7458C12.0207 56.6021 11.9882 56.4481 11.9882 56.2926C11.9882 56.1371 12.0207 55.9831 12.0839 55.8394C12.147 55.6957 12.2395 55.5652 12.3562 55.4552L14.8056 53.1464ZM64.0457 20.1275L58.7159 15.1033L67.6314 6.69929L72.9609 11.7232L64.0457 20.1275Z" fill="var(--fill-0, #9D9D9D)"/>
<path id="Vector_2" d="M52.6513 37.1381C45.3316 42.9927 35.6983 42.2237 35.2092 42.2852V53.8811C35.2092 63.0675 41.9356 71.4422 52.3457 75.2165L52.7967 75.3793C52.8124 75.3683 70.3843 69.8105 70.3843 53.8805V42.2852C70.0173 42.2112 63.555 43.0549 52.6513 37.1381V37.1381ZM67.8718 53.8811C67.8718 61.9486 61.9708 69.3454 52.7967 72.8383C43.6226 69.3448 37.7217 61.9479 37.7217 53.8811V44.6308C45.8097 44.3357 51.0829 41.2567 52.9129 39.9998C55.1114 41.1161 61.7138 44.2197 67.8718 44.6126V53.8811Z" fill="var(--fill-0, #9D9D9D)"/>
<path id="Vector_3" d="M45.9082 57.8488L44.6155 59.8798L51.8278 63.959L63.8217 50.1404L61.8771 48.6406L51.2584 60.875L45.9082 57.8488Z" fill="var(--fill-0, #9D9D9D)"/>
<path id="Vector_4" d="M27.9687 44.2455L29.7451 42.571L31.5214 44.2455L29.7451 45.92L27.9687 44.2455Z" fill="var(--fill-0, #9D9D9D)"/>
<path id="Vector_5" d="M38.024 34.7737L39.8004 33.0992L41.5767 34.7737L39.8004 36.4482L38.024 34.7737Z" fill="var(--fill-0, #9D9D9D)"/>
<path id="Vector_6" d="M49.2053 21.6324L50.9816 19.9579L52.758 21.6324L50.9816 23.3069L49.2053 21.6324Z" fill="var(--fill-0, #9D9D9D)"/>
</g>
</svg>
