<svg overflow="visible" style="display: block;" viewBox="0 0 90.0756 76.2436" fill="none" xmlns="http://www.w3.org/2000/svg">
<g id="caring">
<path id="Vector" d="M88.3775 54.4665C87.3695 53.666 86.1702 53.6019 84.5853 53.9838C84.8705 52.5142 84.7311 51.3745 82.8772 49.8958C81.0297 48.5667 78.2196 49.7063 73.5587 51.5915C70.0151 53.0916 66.3693 54.3675 62.6457 55.4106C61.3978 53.0916 57.6348 52.5997 57.2037 52.7494C44.6474 52.948 42.5276 51.7717 40.0676 50.4121C36.9593 48.6919 33.4361 46.7457 12.8416 46.7457H1.36454C1.00264 46.7457 0.655565 46.8812 0.399664 47.1224C0.143764 47.3637 0 47.6908 0 48.032L0 71.1732C-5.07482e-07 71.3419 0.0353176 71.509 0.103932 71.6649C0.172546 71.8208 0.273109 71.9624 0.39986 72.0816C0.526612 72.2008 0.677063 72.2953 0.842598 72.3596C1.00813 72.4239 1.1855 72.4568 1.36454 72.4564H12.6212C29.0832 78.2188 66.7912 79.1781 86.7471 62.4654C88.3775 61.5244 92.322 57.5158 88.3775 54.4665ZM74.6348 53.9594C77.1338 52.948 80.5597 51.5517 81.2144 51.9459C82.8739 53.1405 81.4835 54.3474 80.4787 55.4015C75.9896 57.1766 71.3353 59.1504 63.3555 61.0539C63.7412 59.9998 63.6602 58.8632 63.5208 57.8549C67.8251 56.7031 71.5654 55.2029 74.6348 53.9594ZM2.72908 49.3152H11.4803V69.8869H2.72908V49.3152ZM85.1265 60.397C57.2134 81.2558 20.4454 72.0073 14.2061 70.2321V49.3213C48.5627 49.1502 28.2469 55.3984 57.3139 55.3159C59.4077 55.2701 61.2033 56.7336 60.8954 59.6667C60.8954 60.0364 60.7042 61.2708 58.3316 62.1355C55.7387 63.0704 50.1606 63.8862 37.8085 62.3768C37.4491 62.3331 37.0861 62.4257 36.7992 62.6342C36.5123 62.8428 36.325 63.1502 36.2786 63.489C36.2322 63.8277 36.3304 64.1699 36.5517 64.4404C36.7729 64.7108 37.0991 64.8873 37.4584 64.9311C45.0979 65.7805 53.1069 66.5229 59.1744 64.5797C69.2804 62.6854 76.0966 59.96 80.6116 58.1452C83.4055 57.0269 86.047 55.9698 86.6369 56.4342C88.5849 57.8335 86.0438 59.7003 85.1265 60.397V60.397Z" fill="var(--fill-0, #9D9D9D)"/>
<path id="Vector_2" d="M7.09104 52.0465C5.00372 52.0832 5.0102 55.0102 7.09104 55.0438C9.17837 54.998 9.18161 52.0801 7.09104 52.0465Z" fill="var(--fill-0, #9D9D9D)"/>
<path id="Vector_3" d="M46.377 41.4202C48.0786 42.5812 71.5675 27.2648 71.6971 13.0636C71.6994 10.3645 70.8138 7.73119 69.1623 5.52636C67.5108 3.32153 65.1747 1.65367 62.4758 0.752548C59.7768 -0.148574 56.8479 -0.238624 54.0924 0.494804C51.3369 1.22823 48.8904 2.74905 47.09 4.84776C45.29 2.74784 42.8433 1.22592 40.0872 0.491755C37.3311 -0.242412 34.4013 -0.15268 31.7016 0.748584C29.0019 1.64985 26.6652 3.31827 25.0135 5.5239C23.3619 7.72953 22.4766 10.3638 22.4797 13.0636C22.4797 27.5001 45.4014 40.858 46.377 41.4202ZM36.3293 2.57458C38.2641 2.58174 40.1639 3.06215 41.8427 3.96885C43.5215 4.87554 44.9219 6.17746 45.907 7.74728C46.0376 7.9275 46.2129 8.07496 46.4176 8.17685C46.6224 8.27875 46.8504 8.33201 47.0819 8.33201C47.3135 8.33201 47.5415 8.27875 47.7463 8.17685C47.951 8.07496 48.1263 7.9275 48.2569 7.74728C59.4293 -7.45305 88.9273 13.14 47.09 38.8048C43.2492 36.4461 25.212 24.7503 25.212 13.0727C25.2129 10.2903 26.3852 7.6219 28.4714 5.65355C30.5577 3.6852 33.3873 2.57782 36.339 2.57458H36.3293Z" fill="var(--fill-0, #9D9D9D)"/>
</g>
</svg>
