<svg overflow="visible" style="display: block;" viewBox="0 0 128.066 21.1327" fill="none" xmlns="http://www.w3.org/2000/svg">
<g id="g12">
<path id="path14" d="M37.6744 20.6669L40.113 13.3748C40.1489 13.267 40.2528 13.1937 40.3699 13.1937H48.2633C48.5245 13.1937 48.6332 12.8684 48.4216 12.7188L42.0362 8.21193C41.9417 8.14513 41.9022 8.02662 41.938 7.91889L44.3771 0.627153C44.4579 0.384956 44.1726 0.184132 43.9615 0.333242L37.5759 4.83972C37.4814 4.90652 37.3532 4.90652 37.2583 4.83972L30.8733 0.333242C30.6611 0.184132 30.3764 0.384956 30.4572 0.627153L32.8966 7.91889C32.9325 8.02662 32.8926 8.14513 32.7986 8.21193L26.413 12.7188C26.201 12.8684 26.3097 13.1937 26.5715 13.1937H34.4644C34.581 13.1937 34.6848 13.267 34.7212 13.3748L37.1603 20.6669C37.2415 20.9091 37.5933 20.9091 37.6744 20.6669" fill="var(--fill-0, #F8DA18)"/>
<path id="path16" d="M64.0893 20.6669L66.5284 13.3748C66.5647 13.267 66.6681 13.1937 66.7856 13.1937H74.6786C74.9403 13.1937 75.049 12.8684 74.8375 12.7188L68.4523 8.21193C68.3569 8.14513 68.3175 8.02662 68.3539 7.91889L70.793 0.627153C70.8737 0.384956 70.5889 0.184132 70.3769 0.333242L63.9913 4.83972C63.8973 4.90652 63.7686 4.90652 63.6741 4.83972L57.2885 0.333242C57.077 0.184132 56.7917 0.384956 56.8729 0.627153L59.312 7.91889C59.3483 8.02662 59.3085 8.14513 59.2135 8.21193L52.8284 12.7188C52.6168 12.8684 52.7255 13.1937 52.9872 13.1937H60.8798C60.9969 13.1937 61.1007 13.267 61.1365 13.3748L63.5761 20.6669C63.6573 20.9091 64.009 20.9091 64.0893 20.6669Z" fill="var(--fill-0, #F8DA18)"/>
<path id="path18" d="M90.5052 20.6669L92.9437 13.3748C92.9806 13.267 93.0835 13.1937 93.201 13.1937H101.094C101.355 13.1937 101.464 12.8684 101.253 12.7188L94.8668 8.21193C94.7728 8.14513 94.7324 8.02662 94.7693 7.91889L97.207 0.627153C97.289 0.384956 97.0037 0.184132 96.7921 0.333242L90.4072 4.83972C90.313 4.90652 90.1845 4.90652 90.0891 4.83972L83.7044 0.333242C83.4924 0.184132 83.2085 0.384956 83.2883 0.627153L85.7273 7.91889C85.7637 8.02662 85.7237 8.14513 85.6293 8.21193L79.2438 12.7188C79.0317 12.8684 79.1413 13.1937 79.4021 13.1937H87.2951C87.4118 13.1937 87.516 13.267 87.5515 13.3748L89.9914 20.6669C90.0721 20.9091 90.424 20.9091 90.5052 20.6669Z" fill="var(--fill-0, #F8DA18)"/>
<path id="path20" d="M116.919 20.6669L119.36 13.3748C119.395 13.267 119.5 13.1937 119.616 13.1937H127.509C127.77 13.1937 127.88 12.8684 127.666 12.7188L121.282 8.21193C121.187 8.14513 121.148 8.02662 121.183 7.91889L123.622 0.627153C123.703 0.384956 123.418 0.184132 123.207 0.333242L116.822 4.83972C116.726 4.90652 116.598 4.90652 116.504 4.83972L110.118 0.333242C109.907 0.184132 109.622 0.384956 109.703 0.627153L112.142 7.91889C112.178 8.02662 112.138 8.14513 112.044 8.21193L105.658 12.7188C105.448 12.8684 105.555 13.1937 105.817 13.1937H113.71C113.827 13.1937 113.93 13.267 113.968 13.3748L116.405 20.6669C116.487 20.9091 116.839 20.9091 116.919 20.6669Z" stroke="var(--stroke-0, #F8DA18)" stroke-width="0.568175" stroke-miterlimit="10"/>
<path id="path22" d="M116.342 20.8687L113.906 13.4544C113.871 13.3446 113.766 13.2709 113.651 13.2709H105.769C105.607 13.2709 105.503 13.1438 105.499 13.0106V13.0011C105.499 12.9222 105.532 12.8426 105.61 12.787L111.987 8.20547C112.081 8.13738 112.121 8.01672 112.085 7.90812L109.648 0.494861C109.568 0.248787 109.854 0.0445146 110.063 0.196211L116.44 4.77724C116.534 4.8449 116.662 4.8449 116.758 4.77724L116.766 4.77078V20.9953C116.631 21.1013 116.405 21.0591 116.342 20.8687" fill="var(--fill-0, #F8DA18)"/>
<path id="path24" d="M11.3733 20.6669L13.8122 13.3748C13.8486 13.267 13.9524 13.1937 14.0691 13.1937H21.9621C22.2238 13.1937 22.3325 12.8684 22.1213 12.7188L15.7354 8.21193C15.6404 8.14513 15.6009 8.02662 15.6373 7.91889L18.0759 0.627156C18.1571 0.384959 17.8718 0.184135 17.6607 0.333245L11.2752 4.83972C11.1807 4.90652 11.0525 4.90652 10.9575 4.83972L4.57202 0.333245C4.36085 0.184135 4.07516 0.384959 4.15635 0.627156L6.59582 7.91889C6.63176 8.02662 6.59184 8.14513 6.49734 8.21193L0.111829 12.7188C-0.0997788 12.8684 0.00890889 13.1937 0.270646 13.1937H8.16315C8.28027 13.1937 8.38451 13.267 8.42044 13.3748L10.8595 20.6669C10.9402 20.9091 11.2925 20.9091 11.3733 20.6669" fill="var(--fill-0, #F8DA18)"/>
</g>
</svg>
