<svg overflow="visible" style="display: block;" viewBox="0 0 16.2273 19.5" fill="none" xmlns="http://www.w3.org/2000/svg">
<g id="Group 177">
<path id="Vector" d="M15.4773 8.11364C15.4773 13.8409 8.11364 18.75 8.11364 18.75C8.11364 18.75 0.75 13.8409 0.75 8.11364C0.75 6.16068 1.52581 4.28771 2.90676 2.90676C4.28771 1.52581 6.16068 0.75 8.11364 0.75C10.0666 0.75 11.9396 1.52581 13.3205 2.90676C14.7015 4.28771 15.4773 6.16068 15.4773 8.11364Z" stroke="var(--stroke-0, #595959)" stroke-width="1.5" stroke-linecap="round" stroke-linejoin="round"/>
<path id="Vector_2" d="M8.11364 10.5682C9.46924 10.5682 10.5682 9.46924 10.5682 8.11364C10.5682 6.75803 9.46924 5.65909 8.11364 5.65909C6.75803 5.65909 5.65909 6.75803 5.65909 8.11364C5.65909 9.46924 6.75803 10.5682 8.11364 10.5682Z" stroke="var(--stroke-0, #595959)" stroke-width="1.5" stroke-linecap="round" stroke-linejoin="round"/>
</g>
</svg>
