<svg overflow="visible" style="display: block;" viewBox="0 0 16 12.6751" fill="none" xmlns="http://www.w3.org/2000/svg">
<g id="Harbor">
<path id="Vector" d="M6.52622 4.25342C7.47685 3.98102 8.51702 3.98102 9.46765 4.25342L12.9229 5.25149V3.91975C12.9229 3.52991 12.7284 3.15603 12.3822 2.88036C12.036 2.6047 11.5664 2.44984 11.0768 2.44984H4.9232C4.43359 2.44984 3.96403 2.6047 3.61782 2.88036C3.27161 3.15603 3.07712 3.52991 3.07712 3.91975V5.25149L6.52622 4.25342Z" fill="var(--fill-0, #B9B9B9)"/>
<path id="Vector_2" d="M1.86484 10.6589C1.93372 10.6923 2.01198 10.7115 2.09253 10.7147C2.20031 10.7153 2.30481 10.6852 2.38729 10.63C3.13396 10.1353 4.07462 9.86444 5.04596 9.86444C6.01729 9.86444 6.95795 10.1353 7.70463 10.63C7.78746 10.6849 7.89187 10.715 7.99969 10.715C8.10752 10.715 8.21193 10.6849 8.29476 10.63C9.04143 10.1353 9.98209 9.86444 10.9534 9.86444C11.9248 9.86444 12.8654 10.1353 13.6121 10.63C13.6947 10.6855 13.7994 10.7157 13.9075 10.7152C13.9879 10.712 14.0662 10.693 14.1352 10.6598L15.0151 8.38393C15.154 8.02347 15.1136 7.6343 14.9023 7.29689C14.691 6.95948 14.3249 6.69961 13.8798 6.57103L9.05288 5.17413C8.37264 4.9796 7.62859 4.9796 6.94835 5.17413L2.12391 6.57006C1.6774 6.69807 1.30995 6.95808 1.09785 7.29611C0.885746 7.63415 0.84529 8.02424 0.984877 8.3854L1.86484 10.6589Z" fill="var(--fill-0, #B9B9B9)"/>
<path id="Vector_3" d="M8.61537 0H7.38464C6.89503 0 6.42547 0.154866 6.07926 0.430528C5.73306 0.70619 5.53856 1.08007 5.53856 1.46991H10.4615C10.4615 1.08007 10.267 0.70619 9.92075 0.430528C9.57454 0.154866 9.10498 0 8.61537 0Z" fill="var(--fill-0, #B9B9B9)"/>
<path id="Vector_4" d="M2.09253 12.6751C1.40893 12.6754 0.746883 12.4847 0.221828 12.1361C0.0963237 12.053 0.0174529 11.9335 0.00256591 11.804C-0.012321 11.6746 0.0379953 11.5457 0.142446 11.4458C0.246897 11.3458 0.396925 11.283 0.559528 11.2712C0.72213 11.2593 0.883987 11.2994 1.00949 11.3826C1.31346 11.5844 1.69672 11.695 2.09253 11.695C2.48833 11.695 2.87159 11.5844 3.17556 11.3826C3.70089 11.0344 4.36278 10.8438 5.04626 10.8438C5.72975 10.8438 6.39164 11.0344 6.91696 11.3826C7.22093 11.5844 7.6042 11.695 8 11.695C8.3958 11.695 8.77907 11.5844 9.08304 11.3826C9.60836 11.0344 10.2703 10.8438 10.9537 10.8438C11.6372 10.8438 12.2991 11.0344 12.8244 11.3826C13.1284 11.5844 13.5117 11.695 13.9075 11.695C14.3033 11.695 14.6865 11.5844 14.9905 11.3826C15.116 11.2994 15.2779 11.2593 15.4405 11.2712C15.6031 11.283 15.7531 11.3458 15.8576 11.4458C15.962 11.5457 16.0123 11.6746 15.9974 11.804C15.9825 11.9335 15.9037 12.053 15.7782 12.1361C15.2528 12.4843 14.591 12.6749 13.9075 12.6749C13.224 12.6749 12.5621 12.4843 12.0368 12.1361C11.7328 11.9343 11.3495 11.8237 10.9537 11.8237C10.5579 11.8237 10.1747 11.9343 9.8707 12.1361C9.34538 12.4843 8.68348 12.6749 8 12.6749C7.31652 12.6749 6.65463 12.4843 6.1293 12.1361C5.82533 11.9343 5.44207 11.8237 5.04626 11.8237C4.65046 11.8237 4.2672 11.9343 3.96323 12.1361C3.43812 12.4846 2.7761 12.6753 2.09253 12.6751V12.6751Z" fill="var(--fill-0, #B9B9B9)"/>
</g>
</svg>
