<svg overflow="visible" style="display: block;" viewBox="0 0 55 55" fill="none" xmlns="http://www.w3.org/2000/svg">
<g id="abta-w1061 1">
<path id="Vector" fill-rule="evenodd" clip-rule="evenodd" d="M25.7021 32.8243C23.1504 32.4631 20.5789 31.5052 18.593 30.1014L25.7021 22.1616V32.8243Z" fill="var(--fill-0, white)"/>
<path id="Vector_2" fill-rule="evenodd" clip-rule="evenodd" d="M17.2758 29.0581C16.8235 28.6591 16.3958 28.2331 15.995 27.7824L23.7906 20.1348H25.7021L17.2758 29.0581Z" fill="var(--fill-0, white)"/>
<path id="Vector_3" fill-rule="evenodd" clip-rule="evenodd" d="M15.072 26.6412C13.7566 24.8356 12.7622 22.3504 12.3872 20.0811H22.1617L15.072 26.6412Z" fill="var(--fill-0, white)"/>
<path id="Vector_4" fill-rule="evenodd" clip-rule="evenodd" d="M12.3351 19.4197C12.2954 18.9835 12.2755 18.5457 12.2754 18.1077C12.2754 17.4689 12.3185 16.8383 12.3995 16.3843H25.7024V19.3683L12.3351 19.4197V19.4197Z" fill="var(--fill-0, white)"/>
<path id="Vector_5" fill-rule="evenodd" clip-rule="evenodd" d="M15.2155 9.3846C13.8324 11.2173 12.8743 13.365 12.4785 15.6959H21.7693L15.2155 9.3846Z" fill="var(--fill-0, white)"/>
<path id="Vector_6" fill-rule="evenodd" clip-rule="evenodd" d="M17.1923 7.23307C16.8268 7.56077 16.4775 7.90615 16.1457 8.26798L23.5102 15.534H25.7021L17.1923 7.23307Z" fill="var(--fill-0, white)"/>
<path id="Vector_7" fill-rule="evenodd" clip-rule="evenodd" d="M25.7021 3.41139C23.1995 3.78432 20.5476 4.73477 18.593 6.11522L25.7021 13.4526V3.41139ZM27.7431 3.23562C27.4415 3.23562 26.9533 3.24247 26.656 3.26016V32.9478C27.0053 32.9695 27.389 32.9829 27.7431 32.9829C36.2843 32.9829 43.2097 26.3238 43.2097 18.1081C43.21 9.89448 36.2843 3.23562 27.7431 3.23562V3.23562ZM29.6335 30.2691V5.8938C29.6335 5.8938 40.4206 8.35852 40.4206 18.0548C40.4206 29.8862 29.6335 30.2691 29.6335 30.2691V30.2691Z" fill="var(--fill-0, white)"/>
<path id="Vector_8" fill-rule="evenodd" clip-rule="evenodd" d="M40.8146 14.1103V11.3163H29.1292V14.1103H40.8146ZM40.8146 19.3688V16.5751H29.1292V19.3688H40.8146ZM40.8146 24.8458V22.0521H29.1292V24.8458H40.8146Z" fill="var(--fill-0, white)"/>
<path id="Vector_9" fill-rule="evenodd" clip-rule="evenodd" d="M28.1183 5.3464C28.1183 5.3464 33.4549 8.74131 33.4549 17.9993C33.4549 17.9993 34.2413 26.1051 28.7346 30.8716L33.7922 29.7753C33.7922 29.7753 36.601 24.7366 36.601 17.8346C36.601 17.8346 36.6846 9.80989 32.3872 5.62003L28.1183 5.3464V5.3464Z" fill="var(--fill-0, white)"/>
<path id="Vector_10" d="M9.97156 3.70235V43.4706M45.0284 3.70235V43.4706" stroke="var(--stroke-0, white)" stroke-width="0.876549" stroke-miterlimit="2.613"/>
<path id="Vector_11" fill-rule="evenodd" clip-rule="evenodd" d="M16.0712 40.5358H14.2254L15.1439 38.3267L16.0712 40.5358ZM11.5512 43.4707H14.6151V42.9976L13.9777 42.9451C13.6222 42.9135 13.449 42.7862 13.449 42.5768C13.449 42.5026 13.4715 42.3656 13.546 42.1867L14.0102 41.0511H16.2864L16.8476 42.3759C16.9774 42.6718 16.8148 42.9032 16.4265 42.9454L15.8875 42.9979V43.471H19.8023V42.9979L19.4142 42.9454C19.1891 42.9137 18.9186 42.7017 18.7782 42.3759L16.0609 36.1191H15.4452L12.7259 42.3759C12.5753 42.7226 12.3707 42.9137 12.0466 42.9454L11.5509 42.9979V43.4707H11.5512V43.4707ZM22.9755 39.9574H23.7624C24.7662 39.9574 25.3049 40.5052 25.3049 41.4717C25.3049 42.4295 24.7973 42.9657 23.8269 42.9657C23.234 42.9657 22.9757 42.7962 22.9757 42.3756V39.9574H22.9755V39.9574ZM20.1698 43.4707H24.2375C25.2079 43.4707 25.9307 43.4168 26.4591 43.0818C27.0309 42.7123 27.3328 42.1245 27.3328 41.3978C27.3328 40.4413 26.6429 39.853 25.2841 39.6318C26.3621 39.4629 26.9445 38.8851 26.9445 38.0536C26.9445 36.8438 25.9526 36.2663 23.9353 36.2663H20.1698V36.7388L20.6671 36.7913C21.0329 36.8335 21.2164 37.013 21.2164 37.3608V42.3759C21.2164 42.7226 21.0326 42.9032 20.6671 42.9454L20.1698 42.9979V43.4707V43.4707ZM22.9755 39.4418V37.3603C22.9755 36.9602 23.2234 36.7808 23.7293 36.7808C24.518 36.7808 24.9702 37.2538 24.9702 38.0736C24.9702 38.9687 24.4315 39.4418 23.3846 39.4418H22.9755ZM28.8973 38.8529H28.402L28.499 36.266H35.2717L35.3704 38.8529H34.8734C34.7347 37.4852 33.9671 36.7602 32.759 36.7808V42.3753C32.759 42.722 32.9431 42.9026 33.3103 42.9448L33.8056 42.9973V43.4704H29.967V42.9973L30.4507 42.9448C30.8179 42.9026 31.0019 42.722 31.0019 42.3753V36.7808C29.7935 36.7602 29.038 37.4969 28.8973 38.8529ZM40.2873 40.5358H38.442L39.36 38.3267L40.2873 40.5358ZM35.7679 43.4707H38.8318V42.9976L38.1944 42.9451C37.8388 42.9135 37.6671 42.7862 37.6671 42.5768C37.6671 42.5026 37.6876 42.3656 37.7629 42.1867L38.2272 41.0511H40.5042L41.0637 42.3759C41.1935 42.6718 41.0326 42.9032 40.6428 42.9454L40.1038 42.9979V43.471H44.0189V42.9979L43.6311 42.9454C43.4037 42.9137 43.1347 42.7017 42.9948 42.3759L40.2759 36.1191H39.6624L36.9435 42.3759C36.7925 42.7226 36.5879 42.9137 36.2641 42.9454L35.7682 42.9979V43.4707H35.7679V43.4707ZM14.4208 51.6321L12.5873 46.0079C12.4991 45.7297 12.3407 45.5859 12.0765 45.5565L11.6645 45.5103V45.0789H15.0392V45.5103C14.4402 45.5565 14.1852 45.615 14.1852 45.9015C14.1852 45.9788 14.2057 46.0838 14.2445 46.2091L15.4018 49.7467L16.5009 46.8203L16.2453 46.0076C16.1571 45.7294 16.0201 45.6147 15.7348 45.5562L15.5091 45.51V45.0786H18.7077V45.51C18.1088 45.5562 17.8443 45.6147 17.8443 45.9012C17.8443 45.9785 17.8637 46.0835 17.9028 46.2088L19.0618 49.7464L20.3561 46.3135C20.4251 46.1317 20.4634 45.9868 20.4634 45.8821C20.4634 45.5973 20.2277 45.5288 19.669 45.5097V45.0783H21.9057V45.5097L21.5325 45.5559C21.2489 45.5973 21.1413 45.7688 21.0221 46.0741L18.9046 51.6316H18.0894L16.7649 47.6135L15.2449 51.6316H14.4208V51.6321V51.6321ZM26.032 51.1528L26.7875 51.2007V51.6321H22.7261V51.2007L23.5207 51.1528C23.8443 51.1339 24.0204 50.9522 24.0204 50.6372V46.8782C24.0204 46.4664 24.0101 46.2179 23.8743 46.1024C23.7456 45.9976 23.462 45.9871 22.9812 45.9871V45.5679C23.9907 45.5 24.6281 45.3573 24.9625 44.9465H25.5318V50.6369C25.5321 50.9522 25.7081 51.1339 26.032 51.1528V51.1528ZM29.9216 48.3608C29.9216 46.3791 30.1368 45.3953 30.6373 45.3953C31.1372 45.3953 31.3623 46.3894 31.3623 48.3608C31.3623 50.3404 31.1477 51.3054 30.6373 51.3054C30.1368 51.3057 29.9216 50.3404 29.9216 48.3608ZM28.1751 48.3608C28.1751 50.4557 29.2842 51.7648 30.6478 51.7648C32.0109 51.7648 33.1188 50.4557 33.1188 48.3608C33.1188 46.2653 32.0109 44.9467 30.6478 44.9467C29.2842 44.9467 28.1751 46.2656 28.1751 48.3608ZM36.7531 47.9022C37.3221 47.9022 37.412 48.4467 37.412 49.6231C37.412 50.7901 37.2536 51.3263 36.6456 51.3263C36.0561 51.3263 35.8709 50.7807 35.8709 49.6505C35.8709 48.4863 36.1947 47.9022 36.7531 47.9022ZM35.8797 47.9211C35.8112 46.237 36.3217 45.3471 37.204 45.3471C37.3817 45.3471 37.5775 45.405 37.8226 45.5203C37.3906 45.5565 37.1754 45.7694 37.1754 46.1594C37.1754 46.5712 37.4981 46.8682 37.931 46.8682C38.3718 46.8682 38.666 46.5523 38.666 46.0747C38.666 45.4532 38.0474 44.9467 37.1646 44.9467C36.2829 44.9467 35.4688 45.4432 34.8206 46.4085C34.4277 47.002 34.2131 47.7476 34.2131 48.5993C34.2131 50.5604 35.2714 51.7648 36.7143 51.7648C37.4488 51.7648 38.1071 51.4504 38.5585 50.8954C38.8852 50.4925 39.0619 49.9886 39.0584 49.4699C39.0584 48.2455 38.1861 47.4046 37.0873 47.4046C36.6356 47.4046 36.2441 47.5761 35.8797 47.9211V47.9211ZM43.8503 51.1528L44.6058 51.2007V51.6321H40.5444V51.2007L41.339 51.1528C41.6629 51.1339 41.8389 50.9522 41.8389 50.6372V46.8782C41.8389 46.4664 41.829 46.2179 41.6929 46.1024C41.5642 45.9976 41.2805 45.9871 40.7995 45.9871V45.5679C41.8093 45.5 42.4461 45.3573 42.7806 44.9465H43.3495V50.6369C43.3498 50.9522 43.5264 51.1339 43.8503 51.1528Z" fill="var(--fill-0, white)"/>
</g>
</svg>
