<svg overflow="visible" style="display: block;" viewBox="0 0 50 50" fill="none" xmlns="http://www.w3.org/2000/svg">
<g id="ATOL LOGO 1">
<path id="Vector" d="M21.65 9.87992L17.8575 9.20492L13.625 33.2574L32.8925 36.6524L34.1675 29.4649C34.1675 29.4649 27.94 30.2274 23.385 25.4699C18.8275 20.7099 18.7925 15.0524 21.65 9.87992Z" fill="var(--fill-0, white)"/>
<path id="Vector_2" d="M34.37 28.3223C34.37 28.3223 28.9125 28.2523 26.2025 22.8498C22.4575 15.3848 30.2475 11.3748 30.2475 11.3748L37.1625 12.6048L34.37 28.3223Z" fill="var(--fill-0, white)"/>
<path id="Vector_3" d="M18.735 28.9001L17.65 28.7076L15.6 30.7376L16.6025 30.9151L16.9975 30.4951L18.695 30.7976L18.9075 31.3251L19.9475 31.5101L18.735 28.9001ZM17.3325 30.1376L18.09 29.3326L18.5 30.3476L17.3325 30.1376Z" fill="var(--fill-0, #403F3F)"/>
<path id="Vector_4" d="M20.56 29.225L24.28 29.885L24.205 30.2975L22.8325 30.0525L22.4925 31.9625L21.5275 31.79L21.865 29.88L20.485 29.635L20.56 29.225Z" fill="var(--fill-0, #403F3F)"/>
<path id="Vector_5" d="M28.34 30.8148C28.025 30.5723 27.5375 30.3923 26.8825 30.2773C26.2275 30.1598 25.7075 30.1598 25.33 30.2798C24.8275 30.4098 24.5375 30.6873 24.46 31.1123C24.3875 31.5298 24.5625 31.8898 24.99 32.1948C25.305 32.4373 25.79 32.6148 26.445 32.7323C27.1025 32.8498 27.62 32.8473 27.9975 32.7298C28.5 32.5898 28.7875 32.3123 28.8625 31.8973C28.94 31.4698 28.765 31.1098 28.34 30.8148ZM25.65 31.9448C25.45 31.7648 25.37 31.5423 25.4175 31.2798C25.4625 31.0173 25.6125 30.8373 25.865 30.7373C26.115 30.6348 26.4325 30.6198 26.8125 30.6873C27.1925 30.7548 27.4825 30.8773 27.68 31.0598C27.8775 31.2423 27.955 31.4623 27.9075 31.7248C27.8625 31.9848 27.715 32.1673 27.465 32.2698C27.2175 32.3698 26.9025 32.3898 26.5225 32.3223C26.14 32.2548 25.85 32.1273 25.65 31.9448Z" fill="var(--fill-0, #403F3F)"/>
<path id="Vector_6" d="M29.39 33.1876L29.8025 30.8676L30.7625 31.0376L30.425 32.9426L32.6975 33.3451L32.6275 33.7651L29.39 33.1876Z" fill="var(--fill-0, #403F3F)"/>
<path id="Vector_7" d="M21.2625 46.9498C9.19999 44.8198 1.11499 33.2648 3.24249 21.1923C5.36999 9.11982 16.915 1.02732 28.9775 3.15732C41.04 5.28732 49.125 16.8398 46.9975 28.9148C44.87 40.9873 33.325 49.0773 21.2625 46.9498ZM1.73249 20.9248C-0.540014 33.8323 8.09999 46.1823 20.995 48.4598C33.89 50.7348 46.23 42.0848 48.505 29.1798C48.75 27.7898 48.8675 26.4073 48.8675 25.0398C48.8675 13.7298 40.7475 3.67732 29.2425 1.64482C16.3475 -0.630181 4.00499 8.01982 1.73249 20.9248Z" fill="var(--fill-0, white)"/>
<path id="Vector_8" d="M7.25252 29.6875C7.30252 29.84 7.35252 30 7.42752 30.1375C7.68002 30.56 8.12502 30.62 8.55502 30.5025C9.11752 30.3475 9.41252 29.9575 9.31252 29.5925L9.19252 29.155L7.25252 29.6875ZM4.75002 30.3725C4.71502 30.1925 4.69002 30.01 4.64252 29.835C4.59502 29.6575 4.52502 29.49 4.46252 29.3175L9.28752 28L9.76002 29.73C10.0275 30.7075 9.77752 31.3425 8.98252 31.56C7.73002 31.9025 7.21502 31.06 6.86752 29.7925L4.75002 30.3725Z" fill="var(--fill-0, white)"/>
<path id="Vector_9" d="M8.99998 34.0251C9.32498 34.7226 9.82998 34.8651 10.4775 34.4851C10.565 34.4326 10.6575 34.3726 10.7725 34.2676C11.235 33.8601 10.9075 33.4176 10.6825 33.0351L8.99998 34.0251ZM10.47 31.8926L11.255 33.2326C11.43 33.5276 11.71 33.9801 11.7275 34.3251C11.75 34.7951 11.5775 35.1501 11.15 35.4001C10.535 35.7626 9.91248 35.5951 9.44248 35.0826C9.04248 35.7826 8.69248 36.5151 8.32998 37.2351L8.08498 37.7101C7.98748 37.5151 7.89498 37.3151 7.78248 37.1176C7.67248 36.9301 7.54248 36.7526 7.41998 36.5701L8.29998 35.0476C8.41498 34.8526 8.59998 34.5076 8.75748 34.2276L8.73248 34.1826L6.71498 35.3676C6.63498 35.2026 6.56248 35.0351 6.46998 34.8776C6.37748 34.7201 6.26498 34.5751 6.16248 34.4226L10.47 31.8926Z" fill="var(--fill-0, white)"/>
<path id="Vector_10" d="M11.635 38.1123C11.0125 38.8248 10.6725 39.8673 11.495 40.5873C12.34 41.3273 13.4575 40.8123 14.255 39.9023C14.875 39.1948 15.255 38.0948 14.4325 37.3723C13.6675 36.7048 12.71 36.8823 11.635 38.1123ZM11.1775 40.8923C9.96748 39.8298 9.77248 38.4023 10.8625 37.1548C11.8175 36.0623 13.3875 35.8748 14.7525 37.0723C16.315 38.4423 15.81 39.9473 15.0725 40.8048C14.14 41.8798 12.5225 42.0698 11.1775 40.8923Z" fill="var(--fill-0, white)"/>
<path id="Vector_11" d="M17.2875 44.56C17.125 44.475 16.9675 44.3825 16.8 44.31C16.6325 44.2375 16.455 44.185 16.2825 44.125L18.0625 40.0075C17.5875 39.8025 17.145 39.6675 16.7775 39.5625C16.83 39.475 16.8925 39.39 16.935 39.29C16.975 39.195 16.995 39.0925 17.0225 38.995L20.4675 40.4875C20.4125 40.575 20.3525 40.66 20.3125 40.755C20.2675 40.855 20.25 40.9575 20.2225 41.0575C19.8475 40.84 19.4725 40.6225 19.065 40.445L17.2875 44.56Z" fill="var(--fill-0, white)"/>
<path id="Vector_12" d="M23.95 41.0898C23.92 41.1873 23.88 41.2923 23.8625 41.3923C23.845 41.4923 23.8475 41.6048 23.845 41.7073C23.415 41.5748 22.9375 41.4348 22.2025 41.3248L21.94 42.8723L22.6875 42.9973C23.01 43.0523 23.31 43.0748 23.5825 43.0823C23.5525 43.1798 23.51 43.2848 23.495 43.3848C23.4775 43.4848 23.48 43.5973 23.4775 43.6998C23.2175 43.6198 22.9275 43.5398 22.605 43.4848L21.8575 43.3573L21.5475 45.1848C22.2825 45.3023 22.7775 45.3498 23.225 45.3673C23.195 45.4648 23.1525 45.5698 23.1375 45.6698C23.12 45.7698 23.1225 45.8823 23.12 45.9848L20.3825 45.5198L21.2125 40.6223L23.95 41.0898Z" fill="var(--fill-0, white)"/>
<path id="Vector_13" d="M29.1675 44.9248L29.0675 45.5648C28.655 45.8323 28.1475 45.9698 27.66 46.0173C26.1075 46.1673 24.84 45.3248 24.695 43.8348C24.5125 41.9398 25.735 40.9473 27.315 40.7948C27.795 40.7498 28.3875 40.8173 28.83 41.0073C28.7875 41.2598 28.77 41.5123 28.735 41.7723L28.6325 41.7823C28.325 41.4173 27.835 41.1848 27.365 41.2323C26.16 41.3473 25.785 42.5498 25.89 43.6173C26.01 44.8598 26.705 45.6723 27.82 45.5623C28.27 45.5173 28.77 45.2348 29.0675 44.8923L29.1675 44.9248Z" fill="var(--fill-0, white)"/>
<path id="Vector_14" d="M33.3 44.4148C33.125 44.4673 32.9475 44.5148 32.7775 44.5798C32.6075 44.6473 32.4475 44.7348 32.2825 44.8148L30.645 40.6373C30.1625 40.8273 29.755 41.0423 29.42 41.2298C29.395 41.1298 29.38 41.0248 29.34 40.9248C29.3025 40.8298 29.245 40.7423 29.195 40.6523L32.69 39.2798C32.7125 39.3798 32.73 39.4823 32.7675 39.5773C32.8075 39.6798 32.865 39.7673 32.915 39.8548C32.4975 39.9648 32.0775 40.0748 31.6625 40.2373L33.3 44.4148Z" fill="var(--fill-0, white)"/>
<path id="Vector_15" d="M35.5825 37.2548C35.63 37.3473 35.675 37.4498 35.7325 37.5323C35.79 37.6173 35.8725 37.6923 35.9425 37.7673C35.545 37.9773 35.1075 38.2148 34.5075 38.6548L35.41 39.9373L36.03 39.4998C36.2975 39.3098 36.525 39.1148 36.725 38.9298C36.77 39.0223 36.8175 39.1248 36.875 39.2073C36.9325 39.2923 37.015 39.3673 37.085 39.4423C36.845 39.5673 36.5825 39.7173 36.315 39.9048L35.695 40.3423L36.7625 41.8548C37.365 41.4198 37.75 41.1048 38.08 40.7998C38.1275 40.8923 38.1725 40.9923 38.23 41.0773C38.2875 41.1623 38.37 41.2373 38.44 41.3123L36.17 42.9148L33.31 38.8548L35.5825 37.2548Z" fill="var(--fill-0, white)"/>
<path id="Vector_16" d="M40.545 38.6677L40.93 38.1827C41.5525 37.3927 41.635 36.4801 40.295 35.4201C39.22 34.5701 38.395 34.7427 37.7575 35.5502L37.315 36.1102L40.545 38.6677ZM37.8525 34.7502C38.865 33.5627 40.115 33.7326 41.0525 34.4751C42.345 35.4976 42.3925 37.0127 41.465 38.1877L40.1975 39.7902L36.305 36.7077L37.8525 34.7502Z" fill="var(--fill-0, white)"/>
</g>
</svg>
