<svg overflow="visible" style="display: block;" viewBox="0 0 17 26.5991" fill="none" xmlns="http://www.w3.org/2000/svg">
<g id="Vector">
<path d="M9.2694 11.944V25.7198C9.2694 26.0618 9.22055 26.2938 9.12284 26.416C9.02514 26.5381 8.84195 26.5991 8.57327 26.5991H5.78879C5.54454 26.5991 5.37356 26.5381 5.27586 26.416C5.20259 26.2694 5.16595 26.0129 5.16595 25.6466V11.944H0C0.854885 11.7974 1.28233 11.3578 1.28233 10.625V9.81897C1.28233 9.40374 1.40445 9.14727 1.64871 9.04957C1.91738 8.92744 2.21049 8.86638 2.52802 8.86638H5.16595V7.10776C5.16595 5.83764 5.32471 4.75072 5.64224 3.84698C5.98419 2.94325 6.44828 2.21049 7.03448 1.64871C7.62069 1.08693 8.31681 0.671695 9.12284 0.403016C9.92888 0.134339 10.796 0 11.7241 0C12.5057 0 13.3606 0.170977 14.2888 0.512931C15.2414 0.83046 16.1451 1.2579 17 1.79526C16.9267 2.13721 16.8657 2.46695 16.8168 2.78448C16.768 3.07759 16.6825 3.32184 16.5603 3.51724C16.4626 3.68822 16.3039 3.79813 16.0841 3.84698C15.8642 3.87141 15.5589 3.79813 15.1681 3.62715C14.6796 3.43175 14.2033 3.26078 13.7392 3.11422C13.2996 2.96767 12.9332 2.8944 12.6401 2.8944C11.37 2.8944 10.4907 3.26078 10.0022 3.99354C9.51365 4.70187 9.2694 5.77658 9.2694 7.21767V8.86638H14.2155C14.7773 8.86638 15.278 8.78089 15.7177 8.60991C16.1818 8.41451 16.5481 8.07256 16.8168 7.58405V8.97629C16.8412 9.92888 16.6214 10.6616 16.1573 11.1746C15.6932 11.6875 14.9605 11.944 13.9591 11.944H9.2694Z" fill="var(--fill-0, #FFE400)"/>
<path d="M5.16579 8.86614L5.16595 8.86638H2.52802C2.21049 8.86638 1.91738 8.92744 1.64871 9.04957C1.40445 9.14727 1.28233 9.40374 1.28233 9.81897V10.625C1.28233 11.3578 0.854885 11.7974 0 11.944H5.16595L5.16579 11.9443H9.26924L9.2694 11.944H13.9591C14.9605 11.944 15.6932 11.6875 16.1573 11.1746C16.6214 10.6616 16.8412 9.92888 16.8168 8.97629V7.58405C16.5481 8.07256 16.1818 8.41451 15.7177 8.60991C15.278 8.78089 14.7773 8.86638 14.2155 8.86638H9.2694L9.26924 8.86614H5.16579Z" fill="var(--fill-0, #FFE400)"/>
</g>
</svg>
