<svg overflow="visible" style="display: block;" viewBox="0 0 132 32" fill="none" xmlns="http://www.w3.org/2000/svg">
<g id="Group 25">
<g id="Account circle" clip-path="url(#clip0_3258_141)">
<g id="Vector">
</g>
<path id="Vector_2" d="M120 6C114.48 6 110 10.48 110 16C110 21.52 114.48 26 120 26C125.52 26 130 21.52 130 16C130 10.48 125.52 6 120 6ZM115.07 22.28C115.5 21.38 118.12 20.5 120 20.5C121.88 20.5 124.51 21.38 124.93 22.28C123.57 23.36 121.86 24 120 24C118.14 24 116.43 23.36 115.07 22.28ZM126.36 20.83C124.93 19.09 121.46 18.5 120 18.5C118.54 18.5 115.07 19.09 113.64 20.83C112.62 19.49 112 17.82 112 16C112 11.59 115.59 8 120 8C124.41 8 128 11.59 128 16C128 17.82 127.38 19.49 126.36 20.83V20.83ZM120 10C118.06 10 116.5 11.56 116.5 13.5C116.5 15.44 118.06 17 120 17C121.94 17 123.5 15.44 123.5 13.5C123.5 11.56 121.94 10 120 10ZM120 15C119.17 15 118.5 14.33 118.5 13.5C118.5 12.67 119.17 12 120 12C120.83 12 121.5 12.67 121.5 13.5C121.5 14.33 120.83 15 120 15Z" fill="var(--fill-0, white)"/>
</g>
<g id="heart">
<path id="Vector_3" d="M80.84 8.61C80.3292 8.099 79.7228 7.69365 79.0554 7.41708C78.3879 7.14052 77.6725 6.99817 76.95 6.99817C76.2275 6.99817 75.5121 7.14052 74.8446 7.41708C74.1772 7.69365 73.5708 8.099 73.06 8.61L72 9.67L70.94 8.61C69.9083 7.57831 68.509 6.99871 67.05 6.99871C65.591 6.99871 64.1917 7.57831 63.16 8.61C62.1283 9.64169 61.5487 11.041 61.5487 12.5C61.5487 13.959 62.1283 15.3583 63.16 16.39L64.22 17.45L72 25.23L79.78 17.45L80.84 16.39C81.351 15.8792 81.7564 15.2728 82.0329 14.6054C82.3095 13.9379 82.4518 13.2225 82.4518 12.5C82.4518 11.7775 82.3095 11.0621 82.0329 10.3946C81.7564 9.72719 81.351 9.12076 80.84 8.61V8.61Z" stroke="var(--stroke-0, white)" stroke-width="1.5" stroke-linecap="round" stroke-linejoin="round"/>
</g>
<g id="search">
<path id="Vector_4" d="M23 23.1141C27.4183 23.1141 31 19.5324 31 15.1141C31 10.6958 27.4183 7.11407 23 7.11407C18.5817 7.11407 15 10.6958 15 15.1141C15 19.5324 18.5817 23.1141 23 23.1141Z" stroke="var(--stroke-0, white)" stroke-width="1.5" stroke-linecap="round" stroke-linejoin="round"/>
<path id="Vector_5" d="M33.175 25.2891L28.825 20.9391" stroke="var(--stroke-0, white)" stroke-width="1.5" stroke-linecap="round" stroke-linejoin="round"/>
</g>
<line id="Line 1" x1="0.500001" y1="2.18547e-08" x2="0.5" y2="32" stroke="var(--stroke-0, white)"/>
<line id="Line 2" x1="48.5" y1="2.18547e-08" x2="48.5" y2="32" stroke="var(--stroke-0, white)"/>
<line id="Line 3" x1="96.5" y1="2.18547e-08" x2="96.5" y2="32" stroke="var(--stroke-0, white)"/>
</g>
<defs>
<clipPath id="clip0_3258_141">
<rect width="24" height="24" fill="white" transform="translate(108 4)"/>
</clipPath>
</defs>
</svg>
