<svg overflow="visible" style="display: block;" viewBox="0 0 41.5 32.5" fill="none" xmlns="http://www.w3.org/2000/svg">
<g id="Group 301">
<path id="Vector" d="M32.75 14.75H5.75V5.00001C5.75297 4.00636 6.14901 3.05425 6.85163 2.35163C7.55425 1.64901 8.50635 1.25297 9.5 1.25001H32C32.9936 1.25297 33.9458 1.64901 34.6484 2.35163C35.351 3.05425 35.747 4.00636 35.75 5.00001V14.75H32.75Z" stroke="var(--stroke-0, white)" stroke-width="2.5" stroke-linecap="round" stroke-linejoin="round"/>
<path id="Vector_2" d="M1.25 31.25V20.75C1.2547 19.1602 1.88835 17.6368 3.01255 16.5126C4.13675 15.3884 5.66015 14.7547 7.25 14.75H34.25C35.8399 14.7547 37.3632 15.3884 38.4874 16.5126C39.6117 17.6368 40.2453 19.1602 40.25 20.75V31.25" stroke="var(--stroke-0, white)" stroke-width="2.5" stroke-linecap="round" stroke-linejoin="round"/>
<path id="Vector_3" d="M1.25 31.25V30.5C1.25173 29.9038 1.48934 29.3325 1.91092 28.9109C2.3325 28.4893 2.9038 28.2517 3.5 28.25H38C38.5962 28.2517 39.1675 28.4893 39.5891 28.9109C40.0107 29.3325 40.2483 29.9038 40.25 30.5V31.25" stroke="var(--stroke-0, white)" stroke-width="2.5" stroke-linecap="round" stroke-linejoin="round"/>
<path id="Vector_4" d="M7.25 14.75V13.25C7.25223 12.455 7.56901 11.6933 8.13114 11.1311C8.69327 10.569 9.45504 10.2522 10.25 10.25H17.75C18.545 10.2522 19.3067 10.569 19.8689 11.1311C20.431 11.6933 20.7478 12.455 20.75 13.25V14.75" stroke="var(--stroke-0, white)" stroke-width="2.5" stroke-linecap="round" stroke-linejoin="round"/>
<path id="Vector_5" d="M20.75 14.75V13.25C20.7522 12.455 21.069 11.6933 21.6311 11.1311C22.1933 10.569 22.955 10.2522 23.75 10.25H31.25C32.045 10.2522 32.8067 10.569 33.3689 11.1311C33.931 11.6933 34.2478 12.455 34.25 13.25V14.75" stroke="var(--stroke-0, white)" stroke-width="2.5" stroke-linecap="round" stroke-linejoin="round"/>
</g>
</svg>
