<svg overflow="visible" style="display: block;" viewBox="0 0 51.318 51.5862" fill="none" xmlns="http://www.w3.org/2000/svg">
<g id="Video" clip-path="url(#clip0_3289_786)">
<path id="Vector" fill-rule="evenodd" clip-rule="evenodd" d="M3.74194 9.67241C3.60016 9.67241 3.46419 9.72903 3.36394 9.8298C3.26369 9.93057 3.20737 10.0673 3.20737 10.2098V41.3764C3.20737 41.6731 3.44686 41.9138 3.74194 41.9138H47.576C47.7178 41.9138 47.8538 41.8572 47.954 41.7564C48.0543 41.6556 48.1106 41.5189 48.1106 41.3764V10.2098C48.1106 10.0673 48.0543 9.93057 47.954 9.8298C47.8538 9.72903 47.7178 9.67241 47.576 9.67241H3.74194ZM0 10.2098C0 8.13342 1.67639 6.44828 3.74194 6.44828H47.576C49.6416 6.44828 51.318 8.13342 51.318 10.2098V41.3764C51.318 42.374 50.9237 43.3308 50.222 44.0362C49.5202 44.7416 48.5685 45.1379 47.576 45.1379H3.74194C2.74951 45.1379 1.79774 44.7416 1.09599 44.0362C0.394238 43.3308 0 42.374 0 41.3764L0 10.2098Z" fill="var(--fill-0, white)"/>
<path id="Vector_2" d="M19.2442 33.4966V18.0896C19.2446 17.8968 19.2964 17.7077 19.3945 17.542C19.4925 17.3763 19.6331 17.2402 19.8014 17.1479C19.9698 17.0556 20.1597 17.0105 20.3514 17.0173C20.543 17.0242 20.7293 17.0827 20.8907 17.1868L32.8136 24.8882C32.9645 24.9854 33.0888 25.1193 33.1748 25.2774C33.2608 25.4355 33.3059 25.6129 33.3059 25.7931C33.3059 25.9733 33.2608 26.1507 33.1748 26.3088C33.0888 26.4669 32.9645 26.6008 32.8136 26.698L20.8907 34.4015C20.7293 34.5056 20.543 34.5642 20.3514 34.571C20.1597 34.5779 19.9698 34.5328 19.8014 34.4405C19.6331 34.3482 19.4925 34.2121 19.3945 34.0464C19.2964 33.8807 19.2446 33.6916 19.2442 33.4988V33.4966Z" fill="var(--fill-0, white)"/>
</g>
<defs>
<clipPath id="clip0_3289_786">
<rect width="51.318" height="51.5862" fill="white"/>
</clipPath>
</defs>
</svg>
