<svg overflow="visible" style="display: block;" viewBox="0 0 14 16.7024" fill="none" xmlns="http://www.w3.org/2000/svg">
<g id="Group">
<path id="Vector" d="M14 13.8216L13.5287 14.4903C12.6889 15.6814 11.3712 16.4725 9.91358 16.6604C9.69628 16.6881 9.47401 16.7024 9.25274 16.7024C8.45431 16.7024 7.65753 16.5194 6.93749 16.1772C6.65139 16.0412 6.37753 15.8804 6.1202 15.6957L6.05472 15.6458C5.50335 15.1953 4.78033 14.9895 4.07087 15.0808C3.91013 15.1017 3.74806 15.1385 3.5893 15.1907C3.53175 15.2145 3.47321 15.2374 3.41533 15.2589L3.33793 15.2876C3.02306 15.4289 2.73663 15.6328 2.50477 15.8817L1.9458 16.4816L0 14.7174L0.558968 14.1178C1.12587 13.5094 1.84261 13.0396 2.63376 12.7584C3.73318 12.2796 4.46976 11.1671 4.46976 9.98232C4.46976 9.91675 4.46778 9.85118 4.46348 9.78593H0.992582V7.17911H3.29361C3.01909 6.54396 2.87587 5.85499 2.87587 5.15557C2.87587 2.70762 4.6143 0.652765 6.93749 0.129183C7.31223 0.0446921 7.70218 0 8.10272 0C9.23356 0 10.3101 0.350686 11.2161 1.01389C12.1031 1.66339 12.7488 2.55299 13.0832 3.58711L10.5652 4.3795C10.2222 3.31928 9.23256 2.60682 8.10272 2.60682C7.68366 2.60682 7.28775 2.70566 6.93749 2.88117C6.09639 3.30199 5.5189 4.16354 5.5189 5.15557C5.5189 5.71308 5.70015 6.32996 6.36959 7.17911H10.5741V9.78593H7.10948C7.11179 9.8515 7.11279 9.91675 7.11279 9.98232C7.11279 10.457 7.05358 10.9238 6.93749 11.3749C6.8075 11.8799 6.60641 12.3647 6.33817 12.8185C6.5439 12.899 6.744 12.9923 6.93749 13.0984C7.20639 13.2445 7.46272 13.4148 7.70317 13.6076C8.24759 13.988 8.92695 14.1586 9.57125 14.0754C10.292 13.9824 10.9432 13.5913 11.3586 13.0021L11.8303 12.3334L14 13.8216Z" fill="var(--fill-0, #9D9D9D)"/>
</g>
</svg>
