<svg overflow="visible" style="display: block;" viewBox="0 0 63.0005 15.7501" fill="none" xmlns="http://www.w3.org/2000/svg">
<g id="g3674">
<path id="path3121" d="M0 15.75H62.9991V0H0V15.75V15.75Z" fill="var(--fill-0, #2B6FC0)"/>
<path id="path3123" d="M0 15.75H15.5138V0H0V15.75Z" fill="var(--fill-0, #131C49)"/>
<path id="path3125" d="M15.5149 15.7501H63.0005V10.9042H15.5149V15.7501Z" fill="var(--fill-0, #FAB60A)"/>
<path id="path3127" d="M17.8792 14.5075H18.1903V12.3025H17.8792V14.5075Z" fill="var(--fill-0, #131C49)"/>
<path id="path3129" d="M17.8792 14.5075H18.1903V12.3025H17.8792V14.5075Z" stroke="var(--stroke-0, #131C49)" stroke-width="0.240771"/>
<path id="path3131" d="M20.4214 12.3025H20.8445L21.8031 14.078H21.8092V12.3025H22.1204V14.5075H21.7221L20.7387 12.6943H20.7326V14.5075H20.4214" fill="var(--fill-0, #131C49)"/>
<path id="path3133" d="M20.4214 12.3025H20.8445L21.8031 14.078H21.8092V12.3025H22.1204V14.5075H21.7221L20.7387 12.6943H20.7326V14.5075H20.4214V12.3025Z" stroke="var(--stroke-0, #131C49)" stroke-width="0.240771"/>
<path id="path3135" d="M24.7838 12.5806H24.1084V12.3025H25.7701V12.5806H25.0949V14.5075H24.7838" fill="var(--fill-0, #131C49)"/>
<path id="path3137" d="M24.7838 12.5806H24.1084V12.3025H25.7701V12.5806H25.0949V14.5075H24.7838V12.5806Z" stroke="var(--stroke-0, #131C49)" stroke-width="0.240771"/>
<path id="path3139" d="M27.7778 12.3025H28.9945V12.5806H28.0889V13.2248H28.9137V13.5029H28.0889V14.2295H28.9945V14.5075H27.7778" fill="var(--fill-0, #131C49)"/>
<path id="path3141" d="M27.7778 12.3025H28.9945V12.5806H28.0889V13.2248H28.9137V13.5029H28.0889V14.2295H28.9945V14.5075H27.7778V12.3025V12.3025Z" stroke="var(--stroke-0, #131C49)" stroke-width="0.240771"/>
<path id="path3143" d="M31.4663 13.2501H31.7309C32.0263 13.2501 32.2007 13.1176 32.2007 12.9058C32.2007 12.7068 32.0512 12.5806 31.7648 12.5806H31.4663V13.2501ZM31.155 12.3025H31.6872C32.1165 12.3025 32.5306 12.372 32.5306 12.8996C32.5306 13.1681 32.3344 13.3577 32.0827 13.4019V13.4081C32.1788 13.4461 32.2253 13.4934 32.2939 13.6294L32.7047 14.5075H32.3499L32.017 13.7429C31.9206 13.5281 31.8181 13.5281 31.653 13.5281H31.4663V14.5075H31.155" fill="var(--fill-0, #131C49)"/>
<path id="path3145" d="M31.4663 13.2501H31.7309C32.0263 13.2501 32.2007 13.1176 32.2007 12.9058C32.2007 12.7068 32.0512 12.5806 31.7648 12.5806H31.4663V13.2501ZM31.155 12.3025H31.6872C32.1165 12.3025 32.5306 12.372 32.5306 12.8996C32.5306 13.1681 32.3344 13.3577 32.0827 13.4019V13.4081C32.1788 13.4462 32.2253 13.4934 32.2939 13.6294L32.7047 14.5075H32.3499L32.017 13.7429C31.9206 13.5281 31.8181 13.5281 31.653 13.5281H31.4663V14.5075H31.155V12.3025V12.3025Z" stroke="var(--stroke-0, #131C49)" stroke-width="0.240771"/>
<path id="path3147" d="M34.7542 12.3025H35.1773L36.1355 14.078H36.1417V12.3025H36.4531V14.5075H36.0546L35.0712 12.6943H35.0652V14.5075H34.7542" fill="var(--fill-0, #131C49)"/>
<path id="path3149" d="M34.7542 12.3025H35.1773L36.1355 14.078H36.1417V12.3025H36.4531V14.5075H36.0546L35.0712 12.6943H35.0652V14.5075H34.7542V12.3025H34.7542Z" stroke="var(--stroke-0, #131C49)" stroke-width="0.240771"/>
<path id="path3151" d="M39.5232 12.5996L39.0905 13.6924H39.9559L39.5232 12.5996ZM39.371 12.3025H39.6976L40.6156 14.5075H40.2762L40.0556 13.9514H38.9911L38.7702 14.5075H38.4434" fill="var(--fill-0, #131C49)"/>
<path id="path3153" d="M39.5232 12.5996L39.0905 13.6924H39.9559L39.5232 12.5996ZM39.371 12.3025H39.6976L40.6156 14.5075H40.2762L40.0556 13.9514H38.9911L38.7702 14.5075H38.4434L39.371 12.3025Z" stroke="var(--stroke-0, #131C49)" stroke-width="0.240771"/>
<path id="path3155" d="M42.8145 12.5806H42.1392V12.3025H43.8012V12.5806H43.1258V14.5075H42.8145" fill="var(--fill-0, #131C49)"/>
<path id="path3157" d="M42.8145 12.5806H42.1392V12.3025H43.8012V12.5806H43.1258V14.5075H42.8145V12.5806Z" stroke="var(--stroke-0, #131C49)" stroke-width="0.240771"/>
<path id="path3159" d="M45.7932 14.5075H46.1039V12.3025H45.7932V14.5075Z" fill="var(--fill-0, #131C49)"/>
<path id="path3161" d="M45.7932 14.5075H46.1039V12.3025H45.7932V14.5075Z" stroke="var(--stroke-0, #131C49)" stroke-width="0.240771"/>
<path id="path3163" d="M49.2713 14.2674C49.7723 14.2674 49.9871 13.8441 49.9871 13.405C49.9871 12.9562 49.7504 12.5391 49.2713 12.5424C48.7919 12.5391 48.5555 12.9562 48.5555 13.405C48.5555 13.8441 48.7703 14.2674 49.2713 14.2674ZM49.2713 12.2643C49.9308 12.2643 50.3164 12.7509 50.3164 13.405C50.3164 14.0746 49.9338 14.5454 49.2713 14.5454C48.6082 14.5454 48.2256 14.0746 48.2256 13.405C48.2256 12.7509 48.6112 12.2643 49.2713 12.2643Z" fill="var(--fill-0, #131C49)"/>
<path id="path3165" d="M49.2713 14.2674C49.7723 14.2674 49.9871 13.8441 49.9871 13.405C49.9871 12.9562 49.7504 12.5391 49.2713 12.5424C48.7919 12.5391 48.5555 12.9562 48.5555 13.405C48.5555 13.8441 48.7703 14.2674 49.2713 14.2674ZM49.2713 12.2643C49.9308 12.2643 50.3164 12.7509 50.3164 13.405C50.3164 14.0746 49.9338 14.5454 49.2713 14.5454C48.6082 14.5454 48.2256 14.0746 48.2256 13.405C48.2256 12.7509 48.6112 12.2643 49.2713 12.2643Z" stroke="var(--stroke-0, #131C49)" stroke-width="0.240771"/>
<path id="path3167" d="M52.4355 12.3025H52.8586L53.8174 14.078H53.8237V12.3025H54.135V14.5075H53.7365L52.7535 12.6943H52.7469V14.5075H52.4355" fill="var(--fill-0, #131C49)"/>
<path id="path3169" d="M52.4355 12.3025H52.8586L53.8174 14.078H53.8237V12.3025H54.135V14.5075H53.7365L52.7535 12.6943H52.7469V14.5075H52.4355V12.3025Z" stroke="var(--stroke-0, #131C49)" stroke-width="0.240771"/>
<path id="path3171" d="M57.2087 12.5996L56.7763 13.6924H57.6413L57.2087 12.5996ZM57.0559 12.3025H57.3831L58.3008 14.5075H57.9619L57.7408 13.9514H56.6769L56.4557 14.5075H56.1292" fill="var(--fill-0, #131C49)"/>
<path id="path3173" d="M57.2087 12.5996L56.7763 13.6924H57.6413L57.2087 12.5996ZM57.0559 12.3025H57.3831L58.3008 14.5075H57.9619L57.7408 13.9514H56.6769L56.4557 14.5075H56.1292L57.0559 12.3025Z" stroke="var(--stroke-0, #131C49)" stroke-width="0.240771"/>
<path id="path3175" d="M60.293 12.3025H60.6037V14.2295H61.5124V14.5075H60.293" fill="var(--fill-0, #131C49)"/>
<path id="path3177" d="M60.293 12.3025H60.6037V14.2295H61.5124V14.5075H60.293V12.3025Z" stroke="var(--stroke-0, #131C49)" stroke-width="0.240771"/>
<path id="path3179" d="M7.77681 2.23846C8.33246 2.78417 8.95349 3.36313 9.49119 3.92723L8.86279 4.74946V4.79L10.5289 5.54603L11.6549 4.76062L10.9755 3.99361V3.93835C11.673 3.43677 12.2722 2.95377 12.9479 2.49291L12.6208 5.92937H2.89544L2.5686 2.49291C3.2441 2.95377 3.84335 3.43677 4.54074 3.93835V3.99361L3.86146 4.76062L4.98739 5.54603L6.65367 4.79V4.74946L6.02526 3.92723C6.56279 3.36313 7.18383 2.78417 7.73951 2.23846" fill="var(--fill-0, white)"/>
<path id="path3181" d="M12.547 6.54895L12.4488 7.69423L8.84845 7.69279L8.84958 11.6496L10.603 11.638C10.9941 11.6374 11.4058 11.2195 11.3221 10.945C11.2277 10.5467 10.8754 10.2812 10.5486 10.0822C10.614 10.0822 11.8162 9.18241 12.3791 8.79534C12.3536 9.0423 11.9504 12.2761 11.9469 12.3278L7.7918 13.9316H7.72556L3.57059 12.3278C3.56693 12.2761 3.16384 9.0423 3.13843 8.79534C3.70137 9.18241 4.90354 10.0822 4.96893 10.0822C4.64195 10.2812 4.2898 10.5467 4.19529 10.945C4.11175 11.2195 4.52343 11.6374 4.91436 11.638L6.66795 11.6496L6.66908 7.69279L3.06887 7.69423L2.9707 6.54895" fill="var(--fill-0, white)"/>
<path id="path3183" d="M18.622 5.45935C19.3185 5.45208 20.1312 5.128 20.1312 4.31035C20.1312 3.44858 19.3838 3.1022 18.622 3.10964V5.45935ZM17.9835 4.48706C17.9835 3.36022 17.9472 3.19074 17.1346 3.11705V3.01399L18.9049 2.95505C20.7333 2.89607 20.8785 3.80208 20.8785 4.15572C20.8785 4.77436 20.5012 5.128 19.9788 5.36373L20.0151 5.41522C20.5737 6.40962 21.2703 7.67657 22.4674 7.92696L22.4457 8.03733C21.6764 8.00065 21.1107 8.02279 20.6898 7.5808C20.211 7.07253 19.8336 6.42433 19.6812 6.10769C19.3911 5.49617 19.1299 5.6731 18.622 5.5846V6.77056C18.622 7.5808 18.6364 7.7281 19.6304 7.86803V7.97853H17.0837V7.86803C17.9546 7.75025 17.9617 7.52924 17.9835 6.77056" fill="var(--fill-0, white)"/>
<path id="path3185" d="M23.5107 4.80666C22.7271 4.80666 22.4079 5.63157 22.4079 6.30933C22.4079 6.99432 22.7852 7.88547 23.5688 7.88547C24.3016 7.88547 24.628 7.03844 24.628 6.40499C24.628 5.72741 24.3016 4.80666 23.5107 4.80666ZM23.518 8.04754C22.524 8.04754 21.7332 7.40679 21.7332 6.36086C21.7332 5.34435 22.553 4.64447 23.5252 4.64447C24.512 4.64447 25.3029 5.29282 25.3029 6.3313C25.3029 7.33311 24.4757 8.04754 23.518 8.04754" fill="var(--fill-0, white)"/>
<path id="path3187" d="M25.5338 5.38091C25.4033 5.04938 25.3743 4.97573 25.0115 4.91672V4.80624H26.5134V4.91672C25.962 4.94613 26.107 5.2851 26.2521 5.66072L26.9633 7.53174L27.4131 6.20582C27.7396 5.24828 27.7975 4.9904 27.2608 4.91672V4.80624H28.5305V4.91672C28.211 4.95358 28.1097 5.0862 27.9716 5.3662L27.667 6.08045L26.5496 8.93113C26.2813 9.61619 26.0925 9.84458 25.8024 9.84458C25.6064 9.84458 25.4467 9.68254 25.4467 9.47623C25.4467 9.32163 25.5338 9.18157 25.679 9.13C25.7516 9.17413 25.9765 9.33631 26.0636 9.33631C26.2232 9.33631 26.3538 8.93857 26.4046 8.82806L26.6439 8.26085" fill="var(--fill-0, white)"/>
<path id="path3189" d="M29.0126 6.80739C28.9836 6.90305 28.9616 6.99885 28.9616 7.10206C28.9616 7.41129 29.136 7.68384 29.4696 7.68384C29.6657 7.68384 29.8614 7.5514 29.9922 7.41129V6.29916L29.0126 6.80739ZM29.9922 6.15179C30.05 5.34885 29.8471 5.0175 29.2736 5.0175C28.7732 5.0175 28.8241 5.26063 28.8241 5.66566L28.4613 5.68777C28.403 5.68777 28.2942 5.69507 28.2942 5.61412C28.2942 5.41522 29.0924 4.64914 29.6803 4.64914C30.3475 4.64914 30.5507 5.16482 30.5507 5.75405V6.80008C30.5507 7.44814 30.4895 7.85317 31.182 7.7428V7.90914C30.9063 7.99012 30.6669 8.01535 30.4491 8.01535C30.1444 8.01535 30.0284 7.8386 29.9922 7.55138C29.7599 7.81648 29.4406 8.05221 29.0705 8.05221C28.6064 8.05221 28.3448 7.65441 28.3448 7.21241C28.3448 7.10205 28.3595 6.99884 28.3887 6.88833" fill="var(--fill-0, white)"/>
<path id="path3191" d="M30.8474 7.97834V7.79981C31.3511 7.73847 31.4131 7.62116 31.4131 7.12387V3.99292C31.4131 3.68351 31.4206 3.58789 31.0578 3.32257V3.24892L31.8919 2.92484L31.9719 2.95422V7.12387C31.9719 7.72791 32.0007 7.78675 32.5379 7.86784V7.97834" fill="var(--fill-0, white)"/>
<path id="path3193" d="M38.4164 6.80739C38.3879 6.90305 38.3657 6.99885 38.3657 7.10206C38.3657 7.41129 38.5398 7.68384 38.8736 7.68384C39.0696 7.68384 39.2655 7.5514 39.3962 7.41129V6.29916L38.4164 6.80739ZM39.3962 6.15179C39.454 5.34885 39.2511 5.0175 38.6777 5.0175C38.1773 5.0175 38.2279 5.26063 38.2279 5.66566L37.8654 5.68777C37.8072 5.68777 37.6985 5.69507 37.6985 5.61412C37.6985 5.41522 38.4964 4.64914 39.0842 4.64914C39.7515 4.64914 39.9547 5.16482 39.9547 5.75405V6.80008C39.9547 7.44814 39.8824 7.89626 40.586 7.7428V7.90914C40.3103 7.99012 40.0709 8.01535 39.8531 8.01535C39.5484 8.01535 39.4324 7.8386 39.3962 7.55138C39.1639 7.81648 38.8449 8.05221 38.4748 8.05221C38.0104 8.05221 37.7491 7.65441 37.7491 7.21241C37.7491 7.10205 37.7638 6.99884 37.7926 6.88833" fill="var(--fill-0, white)"/>
<path id="path3195" d="M37.2786 4.48439H37.1695C37.0317 3.65207 36.5532 3.05544 35.6822 3.05544C34.3545 3.05544 33.6073 4.16034 33.6073 5.42725C33.6073 6.87839 34.7027 7.88746 35.755 7.88746C36.7051 7.88746 37.0826 7.18033 37.4092 6.38483L37.5105 6.4291C37.4236 6.8784 37.2858 7.32039 37.1117 7.74757C36.6473 7.97589 36.1466 8.06425 35.6312 8.06425C34.1151 8.06425 32.7656 7.18033 32.7656 5.51568C32.7656 4.20461 33.7739 2.87869 35.6894 2.87869C36.2413 2.87869 36.7995 2.9892 37.2786 3.27645" fill="var(--fill-0, white)"/>
<path id="path3197" d="M55.6561 6.80469C55.6277 6.90045 55.6058 6.99611 55.6058 7.09935C55.6058 7.40873 55.7799 7.68128 56.114 7.68128C56.3093 7.68128 56.5053 7.54865 56.6359 7.40873V6.29641L55.6561 6.80469ZM56.6359 6.14905C56.6944 5.34625 56.4909 5.01476 55.9177 5.01476C55.4176 5.01476 55.468 5.25789 55.468 5.66296L55.1051 5.68506C55.047 5.68506 54.9382 5.69233 54.9382 5.61138C54.9382 5.41251 55.7364 4.64639 56.324 4.64639C56.9916 4.64639 57.1947 5.16211 57.1947 5.7513V6.79723C57.1947 7.44557 57.0923 7.8574 57.7547 7.82058V7.9507C57.4791 8.03179 57.3107 8.01265 57.0929 8.01265C56.7887 8.01265 56.6722 7.83589 56.6359 7.54864C56.4043 7.81374 56.0846 8.04947 55.7149 8.04947C55.2502 8.04947 54.9892 7.65166 54.9892 7.20984C54.9892 7.09934 55.0039 6.9961 55.0323 6.88562" fill="var(--fill-0, white)"/>
<path id="path3199" d="M41.3751 7.12131C41.3751 7.72535 41.4042 7.78436 42.1005 7.86531V7.97582H40.2869V7.8004C40.7753 7.75717 40.8094 7.63657 40.8163 7.06191V5.71448C40.8163 5.40507 40.8238 5.30941 40.461 5.04416V4.97052L41.3242 4.64639L41.4042 4.67595L41.3751 5.54513H41.3895C41.5489 5.15467 41.9558 4.64639 42.4127 4.64639C42.6159 4.64639 42.7827 4.77902 42.7827 4.98533C42.7827 5.18419 42.5721 5.36825 42.4052 5.44934C42.2821 5.35354 42.1005 5.19149 41.9411 5.2062C41.3242 5.26514 41.3751 6.26699 41.3751 6.37735" fill="var(--fill-0, white)"/>
<path id="path3201" d="M44.1897 3.41951C44.1897 3.62578 44.0225 3.79527 43.8197 3.79527C43.6162 3.79527 43.4493 3.62578 43.4493 3.41951C43.4493 3.21335 43.6162 3.04404 43.8197 3.04404C44.0225 3.04404 44.1897 3.21335 44.1897 3.41951ZM43.0071 7.97591V7.8654C43.5437 7.78445 43.5656 7.69606 43.5728 7.1214V5.71456C43.5728 5.40515 43.58 5.3095 43.1302 5.04425V4.9706L44.0516 4.64648L44.1319 4.67604V7.1214C44.1319 7.72544 44.1604 7.78445 44.6976 7.8654V7.97591" fill="var(--fill-0, white)"/>
<path id="path3203" d="M45.5208 6.48064C45.5208 7.16566 45.5933 7.82127 46.435 7.82127C46.8341 7.82127 47.4795 7.49716 47.4795 6.47324C47.4795 5.58935 46.8997 5.01483 46.1956 5.01483C45.9487 5.01483 45.7455 5.08107 45.5208 5.17687V6.48064V6.48064ZM44.962 3.99044C44.962 3.68103 44.9695 3.58527 44.6067 3.32013V3.24648L45.4414 2.92236L45.5208 2.95178V5.05892C45.8762 4.86023 46.319 4.64648 46.7322 4.64648C47.5382 4.64648 48.0964 5.40515 48.0964 6.17857C48.0964 7.4823 46.9138 8.04956 46.1162 8.04956C45.6806 8.04956 45.3542 7.93175 44.962 7.75486" fill="var(--fill-0, white)"/>
<path id="path3205" d="M48.99 6.48064C48.99 7.16566 49.0629 7.82127 49.9042 7.82127C50.3033 7.82127 50.9487 7.49716 50.9487 6.47324C50.9487 5.58935 50.3683 5.01483 49.6648 5.01483C49.4179 5.01483 49.2148 5.08107 48.99 5.17687V6.48064V6.48064ZM48.4312 3.99044C48.4312 3.68103 48.4384 3.58527 48.0762 3.32013V3.24648L48.91 2.92236L48.99 2.95178V5.05892C49.3454 4.86023 49.7882 4.64648 50.2014 4.64648C51.0068 4.64648 51.5656 5.40515 51.5656 6.17857C51.5656 7.4823 50.383 8.04956 49.5848 8.04956C49.1494 8.04956 48.8234 7.93175 48.4312 7.75486" fill="var(--fill-0, white)"/>
<path id="path3207" d="M53.9599 5.53043C53.8952 5.19149 53.6915 4.80844 53.3071 4.80844C52.8939 4.80844 52.647 5.22091 52.5673 5.58926L53.9599 5.53043V5.53043ZM52.5163 6.09753C52.4585 6.86362 52.9733 7.57806 53.7933 7.57806C54.1709 7.57806 54.4319 7.40871 54.6494 7.11405L54.7581 7.195C54.4828 7.67382 53.9893 8.04947 53.4233 8.04947C52.5232 8.04947 51.8994 7.29821 51.8994 6.41417C51.8994 5.46404 52.5526 4.64639 53.5324 4.64639C54.1846 4.64639 54.6203 5.06628 54.6494 5.72915H52.5451" fill="var(--fill-0, white)"/>
<path id="path3209" d="M58.074 5.71448C58.074 5.40507 58.0809 5.30941 57.718 5.04416V4.97052L58.5818 4.64639L58.6615 4.67595L58.6034 5.21361C59.0166 4.90424 59.4157 4.64639 59.8804 4.64639C60.7511 4.64639 60.7946 5.37569 60.7946 5.81024V7.12131C60.7946 7.72535 60.8236 7.78436 61.3606 7.86531V7.97582H59.6698V7.86531C60.207 7.78436 60.2286 7.69597 60.2364 7.12131V6.27429C60.2364 5.75871 60.2579 5.02945 59.3726 5.02945C59.0753 5.02945 58.8722 5.12525 58.6328 5.34623V7.12131C58.6328 7.72535 58.6615 7.78436 59.1987 7.86531V7.97582H57.508L57.5068 7.84155C58.0273 7.80068 58.0663 7.69597 58.074 7.12131" fill="var(--fill-0, white)"/>
</g>
</svg>
