<svg overflow="visible" style="display: block;" viewBox="0 0 16 15.7008" fill="none" xmlns="http://www.w3.org/2000/svg">
<g id="Harbor">
<path id="Vector" d="M6.52622 5.26875C7.47685 4.93132 8.51702 4.93132 9.46765 5.26875L12.9229 6.50507V4.85543C12.9229 4.37253 12.7284 3.9094 12.3822 3.56793C12.036 3.22647 11.5664 3.03463 11.0768 3.03463H4.9232C4.43359 3.03463 3.96403 3.22647 3.61782 3.56793C3.27161 3.9094 3.07712 4.37253 3.07712 4.85543V6.50507L6.52622 5.26875Z" fill="var(--fill-0, #9D9D9D)"/>
<path id="Vector_2" d="M1.86484 13.2032C1.93372 13.2446 2.01198 13.2684 2.09253 13.2724C2.20031 13.2731 2.30481 13.2359 2.38729 13.1674C3.13396 12.5547 4.07462 12.2192 5.04596 12.2192C6.01729 12.2192 6.95795 12.5547 7.70463 13.1674C7.78746 13.2355 7.89187 13.2728 7.99969 13.2728C8.10752 13.2728 8.21193 13.2355 8.29476 13.1674C9.04143 12.5547 9.98209 12.2192 10.9534 12.2192C11.9248 12.2192 12.8654 12.5547 13.6121 13.1674C13.6947 13.2362 13.7994 13.2737 13.9075 13.273C13.9879 13.269 14.0662 13.2455 14.1352 13.2045L15.0151 10.3853C15.154 9.93875 15.1136 9.45669 14.9023 9.03873C14.691 8.62077 14.3249 8.29888 13.8798 8.1396L9.05288 6.40924C8.37264 6.16828 7.62859 6.16828 6.94835 6.40924L2.12391 8.13839C1.6774 8.29696 1.30995 8.61904 1.09785 9.03777C0.885746 9.45649 0.84529 9.9397 0.984877 10.3871L1.86484 13.2032Z" fill="var(--fill-0, #9D9D9D)"/>
<path id="Vector_3" d="M8.61537 0H7.38464C6.89503 0 6.42547 0.191833 6.07926 0.533299C5.73306 0.874764 5.53856 1.33789 5.53856 1.8208H10.4615C10.4615 1.33789 10.267 0.874764 9.92075 0.533299C9.57454 0.191833 9.10498 0 8.61537 0Z" fill="var(--fill-0, #9D9D9D)"/>
<path id="Vector_4" d="M2.09253 15.7008C1.40893 15.7012 0.746883 15.4649 0.221828 15.0331C0.0963237 14.9301 0.0174529 14.7822 0.00256591 14.6218C-0.012321 14.4614 0.0379953 14.3018 0.142446 14.178C0.246897 14.0542 0.396925 13.9764 0.559528 13.9617C0.72213 13.947 0.883987 13.9967 1.00949 14.0997C1.31346 14.3497 1.69672 14.4866 2.09253 14.4866C2.48833 14.4866 2.87159 14.3497 3.17556 14.0997C3.70089 13.6684 4.36278 13.4323 5.04626 13.4323C5.72975 13.4323 6.39164 13.6684 6.91696 14.0997C7.22093 14.3497 7.6042 14.4866 8 14.4866C8.3958 14.4866 8.77907 14.3497 9.08304 14.0997C9.60836 13.6684 10.2703 13.4323 10.9537 13.4323C11.6372 13.4323 12.2991 13.6684 12.8244 14.0997C13.1284 14.3497 13.5117 14.4866 13.9075 14.4866C14.3033 14.4866 14.6865 14.3497 14.9905 14.0997C15.116 13.9967 15.2779 13.947 15.4405 13.9617C15.6031 13.9764 15.7531 14.0542 15.8576 14.178C15.962 14.3018 16.0123 14.4614 15.9974 14.6218C15.9825 14.7822 15.9037 14.9301 15.7782 15.0331C15.2528 15.4644 14.591 15.7005 13.9075 15.7005C13.224 15.7005 12.5621 15.4644 12.0368 15.0331C11.7328 14.7831 11.3495 14.6462 10.9537 14.6462C10.5579 14.6462 10.1747 14.7831 9.8707 15.0331C9.34538 15.4644 8.68348 15.7005 8 15.7005C7.31652 15.7005 6.65463 15.4644 6.1293 15.0331C5.82533 14.7831 5.44207 14.6462 5.04626 14.6462C4.65046 14.6462 4.2672 14.7831 3.96323 15.0331C3.43812 15.4648 2.7761 15.7011 2.09253 15.7008V15.7008Z" fill="var(--fill-0, #9D9D9D)"/>
</g>
</svg>
