<svg overflow="visible" style="display: block;" viewBox="0 0 152.992 32.5188" fill="none" xmlns="http://www.w3.org/2000/svg">
<g id="g13239">
<path id="path10804" d="M56.3812 32.5188L71.467 15.5559L57.8288 0H68.1146L76.648 9.61495L85.2576 0H95.6196L81.9052 15.5559L96.991 32.5188H86.4005L76.7242 21.4968L67.048 32.5188H56.3812Z" fill="var(--fill-0, white)"/>
<path id="path10816" d="M150.096 10.1621C151.696 10.1621 152.992 11.491 152.992 13.1326C152.992 14.8524 151.696 16.1812 150.096 16.1812C148.496 16.1812 147.201 14.8524 147.201 13.1326C147.201 11.491 148.496 10.1621 150.096 10.1621ZM150.096 10.6312C148.801 10.6312 147.734 11.8037 147.734 13.1326C147.734 14.5397 148.801 15.7122 150.096 15.7122C151.392 15.7122 152.458 14.6178 152.458 13.2108C152.458 11.8037 151.392 10.6312 150.096 10.6312ZM149.563 14.9305H149.03V11.5692C149.334 11.491 149.563 11.491 149.944 11.491C150.401 11.491 150.782 11.5692 150.934 11.7255C151.163 11.8819 151.239 12.1164 151.239 12.4291C151.239 12.8981 150.934 13.1326 150.63 13.2108C150.934 13.289 151.087 13.5235 151.163 13.9925C151.239 14.5397 151.315 14.696 151.392 14.8524H150.858C150.782 14.7742 150.706 14.4615 150.63 13.9925C150.553 13.6016 150.325 13.3671 149.944 13.3671H149.563V14.9305ZM149.563 13.0544H149.944C150.401 13.0544 150.706 12.8981 150.706 12.5072C150.706 12.1946 150.477 11.9601 149.944 11.9601C149.792 11.9601 149.639 11.9601 149.563 11.9601V13.0544Z" fill="var(--fill-0, white)"/>
<path id="path10820" d="M7.39052 13.8362C7.08576 12.6636 6.32385 11.7256 4.87622 11.7256C2.66668 11.7256 1.75239 13.6798 1.75239 15.7123C1.75239 17.7447 2.66668 19.6989 4.87622 19.6989C6.47623 19.6989 7.31433 18.4482 7.46671 16.963H9.2191C9.06672 19.4644 7.31433 21.1842 4.87622 21.1842C1.82858 21.1842 0 18.6827 0 15.7123C0 12.7418 1.82858 10.2403 4.87622 10.2403C7.16195 10.2403 8.99053 11.5692 9.2191 13.8362H7.39052Z" fill="var(--fill-0, white)"/>
<path id="path10824" d="M11.7334 17.5882C11.7334 18.7608 12.343 19.8552 13.7144 19.8552C14.6287 19.8552 15.2382 19.4643 15.543 18.6044H17.0668C16.6859 20.246 15.3144 21.1841 13.7144 21.1841C11.4287 21.1841 10.1334 19.5425 10.1334 17.1974C10.1334 15.0086 11.5049 13.2107 13.7144 13.2107C16.0763 13.2107 17.4478 15.3995 17.2192 17.6664L11.7334 17.5882ZM15.543 16.4938C15.4668 15.3995 14.7811 14.4614 13.7144 14.4614C12.5715 14.4614 11.8096 15.3213 11.7334 16.4938H15.543Z" fill="var(--fill-0, white)"/>
<path id="path10826" d="M18.4381 20.9496H20.0381V10.4748H18.4381V20.9496Z" fill="var(--fill-0, white)"/>
<path id="path10838" d="M22.9335 17.5882C22.9335 18.7608 23.5431 19.8552 24.9145 19.8552C25.8288 19.8552 26.4383 19.4643 26.7431 18.6044H28.2669C27.8859 20.246 26.5145 21.1841 24.9145 21.1841C22.6288 21.1841 21.3335 19.5425 21.3335 17.1974C21.3335 15.0086 22.705 13.2107 24.9145 13.2107C27.2764 13.2107 28.6479 15.3995 28.4193 17.6664L22.9335 17.5882ZM26.7431 16.4938C26.6669 15.3995 25.9812 14.4614 24.9145 14.4614C23.7716 14.4614 23.0097 15.3213 22.9335 16.4938H26.7431Z" fill="var(--fill-0, white)"/>
<path id="path10842" d="M29.562 10.4748H31.162V14.3833C31.6192 13.6797 32.5335 13.2107 33.3716 13.2107C35.7335 13.2107 36.8002 15.0086 36.8002 17.2756C36.8002 19.308 35.8097 21.2622 33.6002 21.2622C32.6097 21.2622 31.543 21.0277 31.0097 20.0115V21.0277H29.4858L29.562 10.4748ZM33.2192 14.5396C31.8478 14.5396 31.162 15.634 31.162 17.1974C31.162 18.7608 31.924 19.8552 33.2192 19.8552C34.743 19.8552 35.2764 18.5263 35.2764 17.1974C35.2764 15.7903 34.5906 14.5396 33.2192 14.5396Z" fill="var(--fill-0, white)"/>
<path id="path10846" d="M38.324 13.367H39.8479V14.8523C40.0002 14.0706 40.9907 13.2107 41.9812 13.2107C42.3622 13.2107 42.4384 13.2107 42.5907 13.2889V14.9304C42.3622 14.9304 42.1336 14.8523 41.905 14.8523C40.7622 14.8523 39.9241 15.7903 39.9241 17.4319V21.0277H38.324V13.367Z" fill="var(--fill-0, white)"/>
<path id="path10848" d="M43.9621 10.4748H45.5621V12.0382H43.9621V10.4748ZM43.9621 13.3671H45.5621V20.9496H43.9621V13.3671Z" fill="var(--fill-0, white)"/>
<path id="path10860" d="M46.9337 13.3671H48.1527V11.1002H49.7528V13.3671H51.2004V14.6178H49.7528V18.6827C49.7528 19.3862 49.8289 19.6989 50.5147 19.6989C50.7432 19.6989 50.9718 19.6989 51.2004 19.6208V20.9496C50.8194 20.9496 50.5147 21.0278 50.1337 21.0278C48.4575 21.0278 48.1527 20.3243 48.0765 19.0736V14.6178H46.9337V13.3671Z" fill="var(--fill-0, white)"/>
<path id="path10864" d="M52.267 13.3671H54.0194L55.9241 18.9954L57.8289 13.3671H59.5051L56.6099 21.3405C56.0765 22.6694 55.6956 23.9201 54.0194 23.9201C53.6384 23.9201 53.2575 23.9201 52.8765 23.8419V22.513C53.1051 22.5912 53.4098 22.5912 53.6384 22.5912C54.4003 22.5912 54.5527 22.2003 54.7813 21.4968L54.9337 20.8714L52.267 13.3671Z" fill="var(--fill-0, white)"/>
<path id="path10868" d="M101.182 13.8362C100.877 12.6636 100.115 11.7256 98.6674 11.7256C96.4579 11.7256 95.5436 13.6798 95.5436 15.7123C95.5436 17.7447 96.4579 19.6989 98.6674 19.6989C100.267 19.6989 101.106 18.4482 101.258 16.963H103.01C102.858 19.4644 101.106 21.1842 98.6674 21.1842C95.6198 21.1842 93.7912 18.6827 93.7912 15.7123C93.7912 12.7418 95.6198 10.2403 98.6674 10.2403C100.953 10.2403 102.782 11.5692 103.01 13.8362H101.182Z" fill="var(--fill-0, white)"/>
<path id="path10872" d="M104.458 13.367H105.982V14.8523C106.134 14.0706 107.124 13.2107 108.115 13.2107C108.496 13.2107 108.572 13.2107 108.724 13.2889V14.9304C108.496 14.9304 108.267 14.8523 108.039 14.8523C106.896 14.8523 106.058 15.7903 106.058 17.4319V21.0277H104.458V13.367Z" fill="var(--fill-0, white)"/>
<path id="path10876" d="M116.648 20.9496H115.048V19.8552C114.667 20.6369 113.753 21.1059 112.915 21.1059C111.01 21.1059 110.172 20.0897 110.172 18.1355V13.2889H111.772V17.9791C111.772 19.308 112.305 19.777 113.22 19.777C114.591 19.777 115.048 18.9172 115.048 17.7446V13.3671H116.648V20.9496Z" fill="var(--fill-0, white)"/>
<path id="path10878" d="M118.553 10.4748H120.153V12.0382H118.553V10.4748ZM118.553 13.3671H120.153V20.9496H118.553V13.3671Z" fill="var(--fill-0, white)"/>
<path id="path10890" d="M123.429 18.5264C123.506 19.4645 124.268 19.8553 125.106 19.8553C125.715 19.8553 126.782 19.699 126.782 18.8391C126.706 17.9792 125.563 17.8229 124.344 17.5884C123.125 17.3539 121.982 16.8849 121.982 15.3215C121.982 13.6799 123.734 13.1327 125.106 13.1327C126.629 13.1327 128.001 13.758 128.229 15.4778H126.553C126.401 14.6961 125.791 14.4616 125.029 14.4616C124.572 14.4616 123.658 14.5398 123.658 15.2433C123.658 16.1032 124.877 16.1813 126.096 16.494C127.315 16.8067 128.458 17.1975 128.458 18.6828C128.458 20.4807 126.706 21.1842 125.182 21.1842C123.353 21.1842 121.906 20.3243 121.906 18.5264H123.429V18.5264Z" fill="var(--fill-0, white)"/>
<path id="path10894" d="M130.972 17.5882C130.972 18.7608 131.582 19.8552 132.953 19.8552C133.867 19.8552 134.477 19.4643 134.782 18.6044H136.306C135.925 20.246 134.553 21.1841 132.953 21.1841C130.667 21.1841 129.372 19.5425 129.372 17.1974C129.372 15.0086 130.744 13.2107 132.953 13.2107C135.315 13.2107 136.687 15.3995 136.458 17.6664L130.972 17.5882ZM134.782 16.4938C134.706 15.3995 134.02 14.4614 132.953 14.4614C131.81 14.4614 131.048 15.3213 130.972 16.4938H134.782Z" fill="var(--fill-0, white)"/>
<path id="path10898" d="M139.277 18.5264C139.353 19.4645 140.115 19.8553 140.953 19.8553C141.563 19.8553 142.629 19.699 142.629 18.8391C142.553 17.9792 141.41 17.8229 140.191 17.5884C138.972 17.3539 137.829 16.8849 137.829 15.3215C137.829 13.6799 139.582 13.1327 140.953 13.1327C142.477 13.1327 143.848 13.758 144.077 15.4778H142.401C142.248 14.6961 141.639 14.4616 140.877 14.4616C140.42 14.4616 139.505 14.5398 139.505 15.2433C139.505 16.1032 140.725 16.1813 141.944 16.494C143.163 16.8067 144.305 17.1975 144.305 18.6828C144.305 20.4807 142.553 21.1842 141.029 21.1842C139.201 21.1842 137.753 20.3243 137.753 18.5264H139.277V18.5264Z" fill="var(--fill-0, white)"/>
</g>
</svg>
