<svg overflow="visible" style="display: block;" viewBox="0 0 92.7611 34.743" fill="none" xmlns="http://www.w3.org/2000/svg">
<g id="Group 11">
<path id="Vector" d="M12.695 24.4344C12.8341 24.515 13.0042 24.4667 13.0815 24.3217C13.1588 24.1767 13.1125 23.9996 12.9733 23.919C12.8341 23.8385 12.664 23.8868 12.5867 24.0318C12.5094 24.1767 12.5558 24.3539 12.695 24.4344ZM8.76741 17.3312C8.76741 17.4923 8.89111 17.6211 9.04574 17.6211C9.20037 17.6211 9.32407 17.4923 9.32407 17.3312C9.32407 17.1702 9.20037 17.0413 9.04574 17.0413C8.89111 17.0413 8.76741 17.1702 8.76741 17.3312ZM12.9733 10.8079C13.1125 10.7273 13.1588 10.5501 13.0815 10.4052C13.0042 10.2602 12.8341 10.2119 12.695 10.2924C12.5558 10.373 12.5094 10.5501 12.5867 10.6951C12.6795 10.8401 12.8496 10.9045 12.9733 10.8079ZM20.5191 10.3085C20.38 10.228 20.2099 10.2763 20.1326 10.4213C20.0553 10.5662 20.1016 10.7434 20.2408 10.824C20.38 10.9045 20.5501 10.8562 20.6274 10.7112C20.7047 10.5662 20.6583 10.3891 20.5191 10.3085ZM20.2408 23.919C20.1016 23.9996 20.0553 24.1767 20.1326 24.3217C20.2099 24.4667 20.38 24.515 20.5191 24.4344C20.6583 24.3539 20.7047 24.1767 20.6274 24.0318C20.5501 23.8868 20.38 23.8385 20.2408 23.919ZM24.8796 19.6829L33.1986 17.3634L24.8796 15.044L28.266 10.3246L22.653 11.0334L23.3334 5.15427L18.8028 8.69783L16.5761 0L14.3495 8.69783L9.81888 5.15427L10.4992 11.0172L4.91717 10.3246L8.31899 15.0601L0 17.3795L8.31899 19.699L4.91717 24.4183L10.5302 23.7096L9.8498 29.5887L14.3649 26.0452L16.5916 34.743L18.8028 26.0452L23.3334 29.6048L22.653 23.7257L28.266 24.4344L24.8796 19.6829ZM30.0751 17.3634H25.1734C25.1734 16.8963 25.1425 16.4292 25.0652 15.9782L30.0751 17.3634ZM3.12349 17.3634H8.02519C8.02519 17.8305 8.05612 18.2976 8.13343 18.7486L3.12349 17.3634ZM22.3901 6.89383L20.8748 9.61593C20.4727 9.37432 20.1016 9.18104 19.6687 9.01997L22.3901 6.89383ZM20.7665 10.7917C20.6428 11.0172 20.3645 11.0978 20.148 10.9689C19.9315 10.8401 19.8542 10.5501 19.9779 10.3246C20.1016 10.0991 20.38 10.0186 20.5965 10.1475C20.8129 10.2763 20.8902 10.5662 20.7665 10.7917ZM16.5916 3.28585V8.4079C15.8494 8.4079 15.2618 8.52065 15.2618 8.52065L16.5916 3.28585ZM12.6176 10.1475C12.8341 10.0186 13.1125 10.0991 13.2362 10.3246C13.3599 10.5501 13.2825 10.8401 13.0661 10.9689C12.8496 11.0978 12.5713 11.0172 12.4476 10.7917C12.3239 10.5662 12.4012 10.2763 12.6176 10.1475ZM12.3084 9.61593C11.9064 9.85754 11.5662 10.0991 11.2105 10.4052L10.793 6.89383L12.3084 9.61593ZM9.50962 17.3312C9.50962 17.5889 9.3086 17.7983 9.0612 17.7983C8.8138 17.7983 8.61278 17.5889 8.61278 17.3312C8.61278 17.0735 8.8138 16.8641 9.0612 16.8641C9.3086 16.8641 9.50962 17.0735 9.50962 17.3312ZM6.57169 11.3072L9.16944 12.8857C8.9375 13.3045 8.76741 13.691 8.59732 14.142L6.57169 11.3072ZM6.57169 23.4358L9.16944 21.8573C9.40138 22.2761 9.63332 22.6305 9.92712 23.0009L6.57169 23.4358ZM10.793 27.8653L12.3084 25.1271C12.7104 25.3687 13.0815 25.5458 13.5145 25.723L10.793 27.8653ZM12.4476 23.9351C12.5713 23.7096 12.8496 23.6291 13.0661 23.7579C13.2825 23.8868 13.3599 24.1767 13.2362 24.4022C13.1125 24.6277 12.8341 24.7083 12.6176 24.5794C12.3857 24.4506 12.3239 24.1606 12.4476 23.9351ZM16.5916 31.4571V26.3351C17.04 26.3351 17.4884 26.3029 17.9214 26.2223L16.5916 31.4571ZM20.6119 24.5955C20.3954 24.7244 20.1171 24.6438 19.9934 24.4183C19.8697 24.1928 19.947 23.9029 20.1635 23.7741C20.38 23.6452 20.6583 23.7257 20.782 23.9512C20.8902 24.1767 20.8284 24.4667 20.6119 24.5955ZM20.8902 25.1271C21.2923 24.8854 21.6325 24.6438 21.9881 24.3378L22.4056 27.8653L20.8902 25.1271ZM16.5916 24.1767C12.9888 24.1767 10.0663 21.1325 10.0663 17.3634C10.0663 13.5944 12.9888 10.5501 16.5916 10.5501C20.1944 10.5501 23.1169 13.5944 23.1169 17.3634C23.1169 21.1325 20.1944 24.1767 16.5916 24.1767ZM26.6269 11.3072L24.0292 12.8857C23.7972 12.4508 23.5653 12.1125 23.2715 11.7421L26.6269 11.3072ZM23.689 17.3634C23.689 17.1057 23.89 16.8963 24.1374 16.8963C24.3848 16.8963 24.5859 17.1057 24.5859 17.3634C24.5859 17.6212 24.3848 17.8305 24.1374 17.8305C23.89 17.8305 23.689 17.6212 23.689 17.3634ZM24.6013 20.601L26.6269 23.4358L24.0292 21.8573C24.2611 21.4224 24.4312 21.052 24.6013 20.601ZM24.4158 17.3634C24.4158 17.2024 24.2921 17.0735 24.1374 17.0735C23.9828 17.0735 23.8591 17.2024 23.8591 17.3634C23.8591 17.5245 23.9828 17.6534 24.1374 17.6534C24.2921 17.6534 24.4158 17.5245 24.4158 17.3634Z" fill="var(--fill-0, white)"/>
<path id="Vector_2" d="M57.3358 24.225C56.8256 24.1767 56.3153 24.1445 55.8205 24.1123C55.3257 24.0801 54.8154 24.064 54.3206 23.9995C53.8103 24.0479 53.3155 24.0801 52.8207 24.1123C52.3259 24.1445 51.8156 24.1606 51.3053 24.225H51.2435C50.7177 24.225 50.1766 24.2089 50.1766 23.6774C50.1766 23.162 50.4703 23.017 50.9497 22.7915C51.5064 22.5338 51.5682 22.1311 51.5682 20.6654V12.1286C51.5682 11.8387 51.5373 11.6132 51.5218 11.5165C51.429 11.5971 51.2744 11.9192 51.1198 12.2736L51.0115 12.4991L45.9861 23.4036C45.7387 23.9351 45.4449 24.2089 45.1511 24.2089C44.7955 24.2089 44.6409 23.8707 44.5172 23.613L44.5017 23.5807L39.5845 12.2736C39.3371 11.6615 39.2134 11.5971 39.1825 11.5971C39.1516 11.5971 39.0897 11.5971 39.0897 12.0964V19.1352C39.0897 20.6009 39.3371 22.0667 41.1308 22.7915C41.5174 22.9526 41.8885 23.162 41.8885 23.6774C41.8885 24.225 41.3318 24.225 41.0999 24.225C40.6515 24.225 40.203 24.1767 39.7701 24.1123C39.3371 24.064 38.8887 23.9995 38.4558 23.9995C38.0228 23.9995 37.5744 24.0479 37.1414 24.1123C36.7085 24.1606 36.26 24.225 35.8116 24.225C35.5642 24.225 35.1776 24.225 35.1776 23.6774C35.1776 23.2103 35.4869 23.0492 35.8271 22.8559L35.9044 22.8076C37.1105 22.115 37.4816 21.4385 37.4816 19.9244V9.87363C37.4816 8.82666 37.1723 7.45756 36.3064 7.02267C36.1518 6.94213 36.0281 6.87771 35.9044 6.82939C35.3323 6.55556 35.0539 6.4106 35.0539 5.99182C35.0539 5.60525 35.1776 5.44418 35.4869 5.44418C35.8735 5.44418 36.26 5.47639 36.6311 5.4925C37.0022 5.52471 37.3888 5.54082 37.7599 5.54082C38.131 5.54082 38.5176 5.5086 38.8887 5.4925C39.2598 5.46028 39.6464 5.44418 40.033 5.44418C40.5432 5.44418 40.7752 5.5086 40.9916 5.9596L45.9088 16.7836C46.048 17.0735 46.1562 17.3312 46.249 17.5406C46.4036 17.8788 46.5273 18.1527 46.5892 18.2493C46.6665 18.1688 46.8057 17.895 46.9139 17.6695C46.9758 17.5567 47.0376 17.4278 47.0995 17.299L52.6197 6.12067C52.898 5.57303 53.0217 5.44418 53.3 5.44418C53.6866 5.44418 54.0732 5.47639 54.4443 5.4925C54.8154 5.52471 55.202 5.54082 55.5731 5.54082C55.9442 5.54082 56.3307 5.5086 56.7019 5.4925C57.073 5.46028 57.4595 5.44418 57.8461 5.44418C57.9389 5.44418 58.0162 5.47639 58.0626 5.54082C58.1399 5.63746 58.1708 5.78243 58.1554 5.99182C58.1554 6.45892 57.7224 6.61999 57.0111 6.89381L56.8719 6.94213C56.037 7.23206 55.6349 7.44146 55.6349 8.98774V18.4587C55.6349 20.6493 55.7277 22.0184 57.6605 22.8076C58.1708 23.017 58.4955 23.162 58.4955 23.6935C58.4646 24.225 57.8616 24.225 57.3358 24.225ZM67.232 24.3861C70.8812 24.3861 73.1388 21.2613 73.1388 18.3621C73.1388 14.142 70.1236 13.0789 67.4485 12.1286C65.4538 11.4199 63.722 10.8078 63.722 8.98774C63.722 7.5381 65.0827 6.78106 66.4125 6.78106C68.2216 6.78106 70.3246 8.42398 70.8812 10.2924L70.9122 10.4052C71.0977 11.0333 71.2523 11.5165 71.8245 11.5165C72.2574 11.5165 72.5358 11.2105 72.5358 10.7273C72.5358 10.6307 72.5048 10.4374 72.4584 10.0186C72.3347 9.11659 72.1492 7.60252 72.1801 6.53946C72.1801 6.21732 72.1183 5.83075 71.5771 5.83075C71.4224 5.83075 71.2369 5.91128 71.0204 6.02403C70.8503 6.10457 70.6184 6.20121 70.5256 6.20121C70.2473 6.20121 69.8762 6.05624 69.4123 5.87907C68.6546 5.58914 67.6031 5.17036 66.2424 5.17036C63.3045 5.17036 60.9232 7.57031 60.9232 10.534C60.9232 14.738 64.1085 15.8977 66.6599 16.848C68.6237 17.5728 70.3246 18.201 70.3246 19.9244C70.3246 21.5996 69.0876 22.7754 67.3093 22.7754C64.9126 22.7754 63.1653 20.8103 62.3458 18.9741C62.3148 18.8936 62.2839 18.8131 62.2375 18.7164C62.0829 18.3137 61.8819 17.75 61.3407 17.75C60.6603 17.75 60.6139 18.2171 60.6139 18.3459C60.6139 18.5392 60.6758 18.7808 60.7376 18.9902C60.7686 19.0708 60.784 19.1674 60.7995 19.2318L61.6963 22.8881C61.82 23.3391 62.253 23.4197 62.5159 23.468C62.5468 23.468 62.5777 23.4841 62.6086 23.4841C63.088 23.5808 63.5519 23.6935 64.0003 23.8224C65.0208 24.1123 66.0878 24.3861 67.232 24.3861ZM84.5504 24.3861C89.9159 24.3861 92.6219 19.9728 92.6219 19.0708C92.6219 18.5553 92.2972 18.4909 92.1426 18.4909C91.7251 18.4909 91.3849 18.8936 91.1066 19.2157C91.0447 19.2802 90.9983 19.3446 90.9365 19.3929C89.4675 20.9553 87.5811 21.8573 85.7564 21.8573C82.6794 21.8573 80.1898 18.4265 80.1898 14.2064C80.1898 9.21323 81.9062 6.78106 85.4317 6.78106C87.5811 6.78106 89.5758 8.32734 91.0757 11.1139C91.0911 11.13 91.1066 11.1622 91.122 11.1944C91.2767 11.5004 91.5395 12.032 91.9261 12.032C92.2972 12.032 92.4982 11.6132 92.4982 11.1944C92.4982 11.0011 92.4518 10.7273 92.4055 10.4535C92.3745 10.2441 92.3436 10.0186 92.3127 9.80919L91.9416 6.21732C91.8952 5.92739 91.6942 5.76632 91.4313 5.76632C90.952 5.76632 90.7973 6.07235 90.6736 6.29785C90.5654 6.50724 90.519 6.58778 90.3334 6.58778C90.1479 6.58778 89.7613 6.42671 89.2974 6.24953C88.2614 5.83075 86.7151 5.20257 84.8596 5.20257C82.4629 5.20257 80.2672 6.02403 78.6899 7.50588C76.788 9.29377 75.7829 12.0159 75.7829 15.4145C75.7829 21.0197 80.2362 24.3861 84.5504 24.3861ZM39.5072 29.7659C39.5072 29.7337 39.4763 29.6853 39.4144 29.6853C39.2289 29.6853 39.2907 29.8947 39.1206 29.8947C38.9351 29.8947 38.3784 29.5243 37.6517 29.5243C36.5074 29.5243 35.255 30.233 35.255 32.1658C35.255 33.6477 36.4456 34.4852 37.5589 34.4852C38.966 34.4852 39.6773 33.3416 39.6773 33.1323C39.6773 33.0678 39.6618 33.0356 39.6 33.0356C39.4918 33.0356 39.399 33.1806 39.3062 33.2611C38.9506 33.6316 38.4248 33.9215 37.8682 33.9215C36.9713 33.9215 36.3064 32.9068 36.3064 31.8437C36.3064 30.3296 36.9249 29.8303 37.7754 29.8303C38.363 29.8303 38.9196 30.233 39.3371 31.0061C39.3681 31.0544 39.4454 31.2155 39.5227 31.2155C39.5845 31.2155 39.6155 31.1189 39.6155 31.0544C39.6155 30.9739 39.5845 30.8289 39.5691 30.7001L39.5072 29.7659ZM45.4295 33.5832C45.4295 33.8087 45.3522 34.0826 45.0893 34.1631C45.0274 34.1792 44.9037 34.2114 44.9037 34.3242C44.9037 34.4369 44.9965 34.4369 45.1048 34.4369C45.3676 34.4369 45.6459 34.3886 45.9088 34.3886C46.1717 34.3886 46.45 34.4369 46.7129 34.4369C47.0221 34.4369 47.0995 34.4208 47.0995 34.3242C47.0995 34.2114 47.0531 34.1631 46.9603 34.1631C46.682 34.147 46.45 34.0181 46.45 33.4544V32.2786C46.45 32.1819 46.4964 32.1497 46.6665 32.1497C46.9139 32.1497 47.0221 32.3269 47.1304 32.5363L47.919 34.0181C48.0736 34.292 48.3056 34.4369 48.4911 34.4369C48.7076 34.4369 49.4962 34.3886 49.4962 34.0987C49.4962 34.0181 49.4653 33.9698 49.3879 33.9698C49.3261 33.9698 49.2488 33.9859 49.1869 33.9859C49.1251 33.9859 49.0787 33.9376 49.0014 33.8732C48.6767 33.4866 47.919 32.1014 47.919 31.9886C47.919 31.9242 48.12 31.8759 48.2437 31.7954C48.522 31.6343 48.7385 31.3927 48.7385 30.9095C48.7385 29.7659 47.8107 29.5887 46.9139 29.5887C46.6201 29.5887 46.1253 29.637 45.7697 29.637C45.2903 29.637 45.1202 29.5887 44.9501 29.5887C44.7955 29.5887 44.7646 29.637 44.7646 29.7014C44.7646 29.8142 44.811 29.8625 44.9037 29.8625C45.1821 29.9108 45.414 30.0236 45.414 30.4424V33.5832H45.4295ZM46.45 30.233C46.45 29.9753 46.5119 29.8786 46.8675 29.8786C47.4396 29.8786 47.7334 30.3618 47.7334 30.8612C47.7334 31.5538 47.486 31.8437 46.883 31.8437C46.45 31.8437 46.45 31.6826 46.45 31.6021V30.233ZM54.9546 32.649C54.9546 33.9698 55.6658 34.5014 56.8874 34.5014C58.4028 34.5014 59.1604 33.7121 59.1604 32.1658V30.684C59.1604 30.0719 59.2068 29.9592 59.4078 29.8625C59.5161 29.8142 59.6398 29.8142 59.6398 29.7014C59.6398 29.6209 59.6243 29.5887 59.4852 29.5887C59.2841 29.5887 59.0831 29.6209 58.8821 29.6209C58.6811 29.6209 58.4801 29.5887 58.2791 29.5887C58.109 29.5887 58.0317 29.6209 58.0317 29.7014C58.0317 29.8142 58.1399 29.8625 58.2481 29.8625C58.6192 29.8786 58.7893 30.1041 58.7893 30.4585V32.2303C58.7893 33.0034 58.4955 34.002 57.3049 34.002C56.4854 34.002 55.9596 33.4222 55.9596 32.6007V30.4585C55.9596 30.2008 56.0679 29.9914 56.2844 29.8786C56.3926 29.8303 56.4854 29.7981 56.4854 29.7175C56.4854 29.6531 56.4544 29.6048 56.2844 29.6048C56.0215 29.6048 55.7432 29.6531 55.4803 29.6531C55.2174 29.6531 54.9391 29.6048 54.6762 29.6048C54.3515 29.6048 54.2897 29.637 54.2897 29.7337C54.2897 29.8303 54.336 29.8786 54.4288 29.8786C54.7072 29.8786 54.9391 30.0236 54.9391 30.4585V32.649H54.9546ZM66.4125 30.4585C66.4125 30.233 66.428 29.9592 66.6908 29.8786C66.7527 29.8625 66.9382 29.8303 66.9382 29.7175C66.9382 29.6048 66.8454 29.6048 66.7372 29.6048C66.4743 29.6048 66.196 29.6531 65.9331 29.6531C65.6703 29.6531 65.3919 29.6048 65.1291 29.6048C64.9281 29.6048 64.7425 29.6048 64.7425 29.7175C64.7425 29.8303 64.7889 29.8786 64.8817 29.8786C65.16 29.8947 65.3919 30.0236 65.3919 30.4585V33.5832C65.3919 33.8087 65.3456 34.0826 65.0827 34.1631C65.0208 34.1792 64.8971 34.2114 64.8971 34.3242C64.8971 34.4369 64.9899 34.4369 65.1291 34.4369C65.3919 34.4369 65.6703 34.3886 65.9331 34.3886C66.196 34.3886 66.4743 34.4369 66.6754 34.4369C66.8764 34.4369 67.0619 34.4369 67.0619 34.3242C67.0619 34.2114 67.0155 34.1631 66.9228 34.1631C66.7681 34.147 66.4125 34.0181 66.4125 33.5832V30.4585V30.4585ZM72.5048 34.1631C72.5358 34.2597 72.644 34.2759 72.7058 34.2759C73.1079 34.3564 73.4944 34.5014 73.9119 34.5014C74.9016 34.5014 75.4118 33.6316 75.4118 32.9712C75.4118 31.0544 72.9378 31.6826 72.9378 30.4907C72.9378 30.088 73.2934 29.8464 73.6955 29.8464C74.2057 29.8464 74.7779 30.3135 74.917 30.8128C74.9634 30.99 74.9943 31.1028 75.118 31.1028C75.2108 31.1028 75.2572 31.0383 75.2572 30.9578C75.2572 30.8773 75.149 30.2491 75.1644 29.8464C75.1644 29.7498 75.149 29.7175 75.0562 29.7175C74.9943 29.7175 74.8552 29.8142 74.7779 29.8142C74.5614 29.8142 74.2212 29.5404 73.6491 29.5404C72.8605 29.5404 72.3038 30.1847 72.3038 30.9095C72.3038 32.8101 74.7779 32.2625 74.7779 33.39C74.7779 33.9054 74.3913 34.1953 73.9274 34.1953C73.2934 34.1953 72.8141 33.7121 72.5667 33.1645C72.5203 33.0678 72.4894 32.8745 72.3502 32.8745C72.242 32.8745 72.211 32.9229 72.211 32.9873C72.211 33.0517 72.242 33.1484 72.2574 33.2128L72.5048 34.1631ZM81.1949 33.4383C81.1949 33.841 81.1485 34.002 80.9321 34.1148C80.8084 34.1792 80.6847 34.2275 80.6847 34.3403C80.6847 34.453 80.7774 34.453 80.9939 34.453C81.4423 34.453 81.8908 34.4047 82.3392 34.4047C82.7876 34.4047 83.236 34.453 83.6844 34.453C83.9937 34.453 84.3029 34.1148 84.3803 33.841C84.4266 33.696 84.4885 33.4383 84.4885 33.2933C84.4885 33.2289 84.4576 33.1645 84.3803 33.1645C84.272 33.1645 84.2102 33.4061 83.9782 33.6316C83.7463 33.8571 83.3597 34.0826 82.6639 34.0826C82.3082 34.0826 82.2155 34.002 82.2155 33.4866V32.2947C82.2155 32.1175 82.2773 32.037 82.602 32.037C82.9886 32.037 83.1896 32.0853 83.3443 32.3591C83.4216 32.5041 83.4216 32.7135 83.5298 32.7135C83.6535 32.7135 83.6535 32.6168 83.6535 32.5202C83.6535 32.3108 83.6226 32.1014 83.6226 31.892C83.6226 31.6826 83.6535 31.4732 83.6535 31.2638C83.6535 31.1672 83.6535 31.0705 83.5607 31.0705C83.4989 31.0705 83.468 31.0867 83.3906 31.2799C83.2824 31.586 82.9886 31.6987 82.602 31.6987C82.3392 31.6987 82.2155 31.6665 82.2155 31.5538V30.3296C82.2155 30.0558 82.2619 29.9914 82.4474 29.9914H82.8804C83.669 29.9914 83.8545 30.1685 83.9009 30.6034C83.9009 30.6679 83.9318 30.7967 84.0401 30.7967C84.1329 30.7967 84.1638 30.7484 84.1638 30.6679C84.1638 30.5068 84.1329 30.3618 84.1329 30.2169C84.1329 30.0558 84.1638 29.9108 84.1638 29.7498C84.1638 29.6048 84.0246 29.6048 83.87 29.6048C83.3597 29.6048 82.8494 29.6531 82.3237 29.6531C81.8134 29.6531 81.3032 29.6692 80.7774 29.6048C80.6383 29.6048 80.53 29.6048 80.53 29.7175C80.53 29.8303 80.6692 29.8947 80.8702 29.9269C81.1485 29.9592 81.1795 30.4907 81.1795 30.8289V33.4383H81.1949ZM89.8541 34.1631C89.885 34.2597 89.9933 34.2759 90.0551 34.2759C90.4571 34.3564 90.8437 34.5014 91.2612 34.5014C92.2508 34.5014 92.7611 33.6316 92.7611 32.9712C92.7611 31.0544 90.287 31.6826 90.287 30.4907C90.287 30.088 90.6427 29.8464 91.0447 29.8464C91.555 29.8464 92.1271 30.3135 92.2663 30.8128C92.3127 30.99 92.3436 31.1028 92.4673 31.1028C92.5601 31.1028 92.6065 31.0383 92.6065 30.9578C92.6065 30.8773 92.4982 30.2491 92.5137 29.8464C92.5137 29.7498 92.4982 29.7175 92.4055 29.7175C92.3436 29.7175 92.2044 29.8142 92.1271 29.8142C91.9106 29.8142 91.5705 29.5404 90.9983 29.5404C90.2097 29.5404 89.6531 30.1847 89.6531 30.9095C89.6531 32.8101 92.1271 32.2625 92.1271 33.39C92.1271 33.9054 91.7406 34.1953 91.2767 34.1953C90.6427 34.1953 90.1634 33.7121 89.9159 33.1645C89.8696 33.0678 89.8386 32.8745 89.6995 32.8745C89.5912 32.8745 89.5603 32.9229 89.5603 32.9873C89.5603 33.0517 89.5912 33.1484 89.6067 33.2128L89.8541 34.1631Z" fill="var(--fill-0, white)"/>
</g>
</svg>
