<svg overflow="visible" style="display: block;" viewBox="0 0 103.321 10.6252" fill="none" xmlns="http://www.w3.org/2000/svg">
<g id="Group 9">
<path id="Vector" d="M6.91689 10.4489L2.14096 3.91778V10.4484H0V0.176023H1.99938L6.62137 6.50127V0.176023H8.76277V10.4489H6.91689Z" fill="var(--fill-0, white)"/>
<path id="Vector_2" d="M17.4024 10.6252C14.359 10.6252 12.1757 8.26182 12.1757 5.34156V5.31216C12.1757 2.39144 14.3872 0 17.4311 0C20.4736 0 22.6578 2.36387 22.6578 5.28367V5.31216C22.6573 8.23242 20.4458 10.6252 17.4024 10.6252ZM20.3893 5.31216C20.3893 3.55063 19.1495 2.0836 17.4029 2.0836C15.6562 2.0836 14.4446 3.52306 14.4446 5.28367V5.31216C14.4446 7.07369 15.6836 8.54071 17.4311 8.54071C19.1773 8.54071 20.3893 7.10217 20.3893 5.34156V5.31216Z" fill="var(--fill-0, white)"/>
<path id="Vector_3" d="M31.7138 10.4489L29.6007 7.16195H27.8959V10.4489H25.7267V0.176023H30.2349C32.5598 0.176023 33.9549 1.45283 33.9549 3.56722V3.59571C33.9549 5.25386 33.0962 6.29589 31.8409 6.78061L34.2504 10.4489H31.7138ZM31.7562 3.683C31.7562 2.71494 31.1083 2.21598 30.0523 2.21598H27.8959V5.16657H30.0933C31.1502 5.16657 31.7562 4.57985 31.7562 3.71379V3.683Z" fill="var(--fill-0, white)"/>
<path id="Vector_4" d="M47.9476 10.5232H46.0602L43.8341 3.80143L41.6072 10.5232H39.7198L36.3531 0.175911H38.6776L40.7202 7.13244L42.9317 0.147425H44.7917L47.0041 7.13244L49.0467 0.175911H51.3152L47.9476 10.5232Z" fill="var(--fill-0, white)"/>
<path id="Vector_5" d="M53.9131 10.4489V0.176023H61.3526V2.18612H56.0686V4.26972H60.7179V6.28073H56.0686V8.43877H61.4227V10.4489H53.9131V10.4489Z" fill="var(--fill-0, white)"/>
<path id="Vector_6" d="M69.0925 10.6252C66.0222 10.6252 63.9081 8.38036 63.9081 5.34156V5.31216C63.9081 2.39144 66.0919 0 69.0792 0C70.8537 0 71.9246 0.498962 72.9532 1.40867L71.5858 3.12609C70.825 2.46541 70.1488 2.08314 69.0073 2.08314C67.4292 2.08314 66.1757 3.53592 66.1757 5.28321V5.3117C66.1757 7.19085 67.416 8.56919 69.163 8.56919C69.9512 8.56919 70.6561 8.36474 71.2056 7.95353V6.48559H69.0219V4.53523H73.3052V8.99602C72.2907 9.89057 70.896 10.6252 69.0925 10.6252Z" fill="var(--fill-0, white)"/>
<path id="Vector_7" d="M76.6904 10.4489V0.176023H78.8596V10.4489H76.6904Z" fill="var(--fill-0, white)"/>
<path id="Vector_8" d="M89.7132 10.4489L88.6026 8.14573H84.6417L83.7398 10.4489H81.5273L85.7537 0.103519H87.7539L91.9812 10.4489H89.7132V10.4489ZM86.7267 2.81795L85.4163 6.14896H88.0367L86.7267 2.81795Z" fill="var(--fill-0, white)"/>
<path id="Vector_9" d="M101.476 10.4489L96.6998 3.91778V10.4484H94.5584V0.176023H96.5587L101.18 6.50173V0.176023H103.321V10.4489H101.476Z" fill="var(--fill-0, white)"/>
</g>
</svg>
