<svg overflow="visible" style="display: block;" viewBox="0 0 86.5079 38.2921" fill="none" xmlns="http://www.w3.org/2000/svg">
<g id="Group 73">
<path id="Vector" d="M46.9267 21.8581C42.2464 21.2447 36.0474 20.7927 35.4274 19.6626C35.4274 19.6304 35.3965 19.5981 35.3965 19.5658C35.3965 18.5649 39.3638 15.6914 43.5172 12.8824C43.5482 12.8501 43.5172 12.7856 43.4552 12.8178C38.9609 15.1425 34.6526 17.4671 33.9707 16.9828C33.8467 16.9183 33.8157 16.7246 33.8157 16.4985C33.7537 15.4654 35.4584 11.2358 37.8141 6.87708C37.8451 6.8448 37.7831 6.78022 37.7521 6.81251C34.7456 11.4295 32.2349 15.4654 31.2741 15.2716C30.4062 15.1102 29.9413 7.13538 29.7553 0C29.8173 0.0322868 29.8173 0.0322868 29.7863 0.0322868C29.7553 0.0322868 29.7553 0.0322868 29.7553 0.0645736C29.5693 7.19995 29.1044 15.1425 28.2365 15.3362C27.2757 15.4977 24.7651 11.4941 21.7585 6.8448C21.7275 6.81251 21.6655 6.8448 21.6965 6.90937C24.0832 11.2681 25.7569 15.5299 25.6949 16.5308C25.6949 16.7568 25.6639 16.9183 25.5399 17.0151C24.858 17.4994 20.5807 15.1748 16.0554 12.8501C16.0244 12.8179 15.9624 12.8824 15.9934 12.9147C20.1778 15.7237 24.1452 18.5649 24.1452 19.5658C24.1452 19.5981 24.1452 19.6304 24.1142 19.6626C23.5252 20.825 17.3262 21.2447 12.6459 21.8581C12.5529 21.8581 12.6149 21.9227 12.6459 21.9227C15.6524 21.955 17.3572 21.955 21.6345 22.0842C22.6884 22.0842 22.6574 22.0519 24.3001 22.181C25.7569 22.2779 26.6868 22.407 27.4617 22.8268C28.6085 23.4725 29.1664 24.4411 29.4144 24.99C29.6003 25.4097 29.6933 25.6357 29.7553 25.8294C29.7553 25.8617 29.7863 25.894 29.7863 25.894C29.8173 25.894 29.8173 25.8617 29.8173 25.8294C29.8793 25.6357 29.9413 25.4097 30.1582 24.99C30.4062 24.4411 30.9641 23.4725 32.1109 22.8268C32.8858 22.407 33.7847 22.2456 35.2725 22.181C36.9152 22.0842 36.8842 22.0842 37.9381 22.0842C42.2154 21.955 43.9202 21.955 46.9267 21.9227C46.9577 21.9227 47.0197 21.8904 46.9267 21.8581V21.8581ZM29.7863 21.1801C27.0277 21.1801 24.4861 21.2447 22.5024 21.3416C22.5334 21.3416 23.5872 21.1478 24.1762 21.051C24.7031 20.9541 25.7569 20.825 25.9429 20.825C26.1289 18.7586 27.7716 17.1443 29.7863 17.1443C31.801 17.1443 33.4437 18.7586 33.6297 20.825C33.8157 20.8573 34.8695 20.9864 35.3965 21.051C35.9854 21.1478 37.0082 21.3416 37.0702 21.3416C35.0865 21.2447 32.5449 21.1801 29.7863 21.1801V21.1801Z" fill="var(--fill-0, white)"/>
<path id="Vector_2" d="M50.9253 37.8078C50.8633 37.7755 50.8323 37.7432 50.6773 37.614C50.0264 37.0652 49.4995 36.2903 48.6936 34.8697L47.8878 33.3845C47.8878 33.3845 47.5468 32.8033 47.5158 32.7387C48.8796 32.2867 49.4375 31.189 49.4375 29.9298C49.4375 29.0581 49.1586 28.3155 48.6936 27.7989C48.0427 27.0886 47.3298 27.024 46.555 27.024H43.5174C43.3934 27.024 43.3314 27.0886 43.3314 27.2177V37.9046C43.3314 38.0338 43.3934 38.1306 43.5174 38.1306H45.0052C45.1292 38.1306 45.1912 38.0338 45.1912 37.9046V33.0293H45.4391C45.6251 33.0293 45.7491 32.997 45.8731 33.2553C45.8731 33.2876 46.9269 35.1925 47.7638 36.6777C48.6316 38.1952 50.0574 38.1952 50.1194 38.1952H50.4294C50.5224 38.1952 50.7393 38.1952 50.8943 38.1629C50.9563 38.1629 51.0183 38.1306 51.0183 38.0661C51.0183 37.9369 51.0183 37.8723 50.9253 37.8078V37.8078ZM45.966 31.9639H45.1912V27.7666H46.059C47.1439 27.7666 47.5778 28.832 47.5778 29.7684C47.5778 31.0921 47.0819 31.9639 45.966 31.9639V31.9639ZM80.8358 29.9621C80.8358 30.9307 81.2387 31.7701 82.0446 32.4482L83.1914 33.4168L83.2224 33.4491C83.9353 34.0625 84.4622 34.5145 84.4622 35.4185C84.4622 36.3549 83.7183 37.1943 82.7575 37.1943C82.1376 37.1943 81.3937 36.8069 80.9598 36.4194C80.8358 36.3226 80.8048 36.3226 80.7428 36.3226C80.6498 36.3226 80.5878 36.4194 80.5878 36.5809V37.162C80.5878 37.4526 80.6188 37.5495 80.8668 37.6786C81.4867 38.0015 82.0756 38.2275 83.1294 38.2275C85.4851 38.2275 86.5079 36.4517 86.5079 35.0634C86.5079 33.9656 86.043 33.0293 85.0821 32.2544L83.5944 31.0598C83.3774 30.8984 82.7265 30.3818 82.7265 29.5101C82.7265 28.3477 83.6563 27.7989 84.3072 27.7989C85.0511 27.7989 85.5161 28.1863 85.733 28.3477C85.795 28.4123 85.826 28.4446 85.888 28.4446C85.981 28.4446 86.043 28.3477 86.043 28.1863V27.7343C86.043 27.476 86.012 27.4114 85.795 27.2823C85.2371 27.024 84.5552 26.8626 83.9663 26.8626C82.3855 26.8303 80.8358 27.9926 80.8358 29.9621V29.9621ZM15.4047 31.2213C15.2497 31.3827 15.0637 31.5764 14.4748 31.8993C14.3508 31.9639 12.7391 32.7387 12.7391 32.7387C11.5303 33.3522 11.5303 34.0625 11.4683 34.6437C11.4373 34.9665 11.4993 35.0634 11.7472 34.8051C11.9022 34.6437 12.0882 34.4499 12.6771 34.1271C12.7081 34.0948 12.8321 34.0625 13.018 33.9656C13.142 34.2885 13.173 34.6437 13.173 34.9665C13.173 36.3226 12.5221 37.2912 11.4373 37.2912C10.4764 37.2912 9.76352 36.3549 9.76352 34.9665C9.76352 33.1908 10.5074 32.4482 11.4993 32.4482H11.7162C11.8092 32.4482 11.9022 32.3836 11.9022 32.2544V31.6087C11.9022 31.4796 11.8402 31.415 11.7162 31.415H11.5613C11.0343 31.415 10.1665 31.0598 10.1665 29.6715C10.1665 28.3155 11.0653 27.8312 11.5922 27.8312C12.4601 27.8312 12.894 28.3477 12.987 28.4123C13.142 28.5415 13.297 28.4769 13.297 28.2509V27.702C13.297 27.476 13.111 27.3791 12.987 27.3146C12.6771 27.1531 12.0262 26.9271 11.3133 26.9271C9.9185 26.9271 8.52371 27.702 8.52371 29.6392C8.52371 30.737 9.08163 31.5441 9.67054 31.8024C8.6167 32.2867 7.84181 33.2553 7.84181 34.7405C7.84181 36.9683 9.51556 38.1952 11.2823 38.1952C13.7309 38.1952 14.9087 36.5486 14.9087 34.8374C14.9087 34.1271 14.6918 33.6105 14.4748 33.2553C15.5906 32.6419 15.5906 31.9639 15.6526 31.415C15.7146 31.0598 15.6216 30.963 15.4047 31.2213V31.2213ZM21.8827 38.2921C18.6592 38.2921 16.9544 35.5477 16.9544 31.7379C16.9544 27.9603 18.6592 25.1836 21.8827 25.1836C25.1062 25.1836 26.8109 27.9603 26.8109 31.7701C26.8109 35.58 25.0752 38.2921 21.8827 38.2921V38.2921ZM21.8827 26.1845C19.651 26.1845 18.9381 29.4455 18.9381 31.7379C18.9381 34.0948 19.651 37.2589 21.8827 37.2589C24.0834 37.2589 24.8272 34.1271 24.8272 31.7379C24.8272 29.3486 24.0524 26.1845 21.8827 26.1845V26.1845ZM3.47147 32.9648H2.07669V37.8723C2.07669 38.0338 1.9837 38.0661 1.89071 38.0661H0.185972C0.0619906 38.0661 0 38.0015 0 37.8723V25.6679C0 25.5388 0.0619906 25.4419 0.185972 25.4419H3.47147C4.43233 25.4419 5.23821 25.5388 6.01309 26.2814C6.72598 26.9917 7.12892 28.0249 7.12892 29.1549C7.09793 31.6733 5.39318 32.9648 3.47147 32.9648ZM3.03754 26.2814H2.04569V32.0284H2.97555C4.46332 32.0284 5.08323 30.6078 5.08323 29.1872C5.08323 27.7343 4.46332 26.2814 3.03754 26.2814V26.2814ZM57.9302 26.9917C57.8063 26.9917 57.7443 27.0886 57.7443 27.1854V34.1917C57.7443 34.9988 57.7443 35.9351 57.0624 36.6777C56.6904 37.0975 56.1635 37.2912 55.5436 37.2912C54.9547 37.2912 54.4278 37.0329 54.0248 36.5486C53.4669 35.8706 53.4979 34.9988 53.4979 34.2562V27.1854C53.4979 27.0563 53.4049 26.9594 53.2809 26.9594H51.8552C51.7312 26.9594 51.6382 27.024 51.6382 27.1854V33.9979C51.6382 35.58 51.8552 36.3226 52.599 37.1297C53.2499 37.8401 54.3348 38.2921 55.3886 38.2921C55.9155 38.2921 57.2793 38.1952 58.1782 37.1943C58.7671 36.5486 59.201 35.9351 59.201 34.1271V27.1854C59.201 27.024 59.1081 26.9594 59.0151 26.9594H57.9302V26.9917ZM61.8356 26.9917C61.7427 26.9917 61.6497 27.0563 61.6497 27.1854V37.9046C61.6497 38.0338 61.7117 38.0984 61.8356 38.0984H63.3544C63.4474 38.0984 63.5404 38.0338 63.5404 37.9046V27.1531C63.5404 27.024 63.4474 26.9594 63.3854 26.9594H61.8356V26.9917ZM73.6139 26.9917C73.4589 26.9917 73.3969 27.0563 73.3969 27.25V37.8401C73.3969 38.0015 73.4589 38.0984 73.6139 38.0984H79.038C79.162 38.0984 79.255 38.0338 79.255 37.8723V37.4203C79.255 37.3235 79.224 37.162 79.038 37.162H75.2566V32.8033H78.0772C78.2322 32.8033 78.2942 32.7387 78.2942 32.5773V32.1899C78.2942 32.0284 78.2322 31.9316 78.0772 31.9316H75.2566V27.8312H78.7591C78.8831 27.8312 78.976 27.7666 78.976 27.6051V27.2177C78.976 27.0563 78.9141 26.9594 78.7591 26.9594L73.6139 26.9917V26.9917ZM65.803 29.9621C65.803 30.9307 66.206 31.7701 67.0119 32.4482L68.1587 33.4168L68.1897 33.4491C68.9026 34.0625 69.4295 34.5145 69.4295 35.4185C69.4295 36.3549 68.6856 37.1943 67.7248 37.1943C67.1048 37.1943 66.361 36.8069 65.927 36.4194C65.803 36.3226 65.772 36.3226 65.7101 36.3226C65.6171 36.3226 65.5551 36.4194 65.5551 36.5809V37.162C65.5551 37.4526 65.5861 37.5495 65.834 37.6786C66.4539 38.0015 67.0429 38.2275 68.0967 38.2275C70.4523 38.2275 71.4752 36.4517 71.4752 35.0634C71.4752 33.9656 71.0103 33.0293 70.0494 32.2544L68.5616 31.0598C68.3447 30.8984 67.6938 30.3818 67.6938 29.5101C67.6938 28.3477 68.6236 27.7989 69.2745 27.7989C70.0184 27.7989 70.4833 28.1863 70.7003 28.3477C70.7623 28.4123 70.7933 28.4446 70.8553 28.4446C70.9483 28.4446 71.0412 28.3477 71.0412 28.1863V27.7343C71.0412 27.476 71.0103 27.4114 70.7933 27.2823C70.2354 27.024 69.5535 26.8626 68.9646 26.8626C67.3528 26.8303 65.803 27.9926 65.803 29.9621V29.9621ZM41.1618 37.5172C40.4179 38.0015 38.9611 38.1629 38.2792 38.1629C34.9317 38.1629 32.731 36.1611 32.731 31.8993C32.731 27.8634 34.8077 25.1836 38.1862 25.1836C38.9921 25.1836 40.2629 25.3451 40.9758 25.7002C41.2238 25.8294 41.4097 25.9585 41.4097 26.3137V26.8303C41.4097 26.9594 41.3787 27.0886 41.2238 27.0886C41.0688 27.0886 40.7278 26.8303 40.6039 26.7657C39.9839 26.4105 39.3021 26.1845 38.6511 26.1845C36.2335 26.1845 34.7767 28.7352 34.7767 31.6733C34.7767 34.676 36.2645 37.1297 38.5582 37.1297C39.674 37.1297 40.4799 36.6454 40.9758 36.3226C41.0378 36.2903 41.1618 36.2257 41.2238 36.2257C41.3477 36.2257 41.4097 36.3549 41.4097 36.5163V36.9683C41.4407 37.2589 41.3787 37.388 41.1618 37.5172V37.5172Z" fill="var(--fill-0, white)"/>
</g>
</svg>
