<svg overflow="visible" style="display: block;" viewBox="0 0 166.203 19.8877" fill="none" xmlns="http://www.w3.org/2000/svg">
<g id="Group 10">
<path id="Vector" d="M15.7757 7.9646C20.7345 11.1389 21.5379 11.0235 25.6656 8.19545C30.9846 4.55944 33.8934 9.37859 37.5502 9.89802C39.4894 10.1577 41.1793 9.03231 41.1793 9.03231C37.2454 16.4775 31.7326 12.928 27.2724 10.7349C23.0615 8.68602 20.2636 14.6595 15.8034 13.8803C15.6649 13.8515 15.5818 13.9957 15.6926 14.0535C20.9561 17.4298 23.1447 15.7272 25.3886 14.1977C30.8738 10.4752 33.9765 15.4963 37.4948 15.9869C39.434 16.2466 41.1239 15.1212 41.1239 15.1212C36.6083 23.6341 30.8461 18.382 28.4636 17.2278C26.5798 16.3332 25.5548 15.1789 21.2886 17.3143C17.5764 19.1901 12.6452 20.7483 8.12967 19.3343C8.12967 19.3343 8.10197 19.3343 8.10197 19.3055C8.62832 17.8049 9.43171 15.8426 10.8169 15.8426C11.2324 15.8426 13.4486 15.9869 13.698 15.958C13.975 15.9292 14.1412 15.7272 14.1966 15.4963C14.3074 15.0058 14.1135 14.8903 14.0858 14.7172C14.0581 14.544 14.2243 14.5152 14.3351 14.3998C14.5567 14.2266 14.5567 14.0823 14.529 13.938C14.5013 13.8226 14.1966 13.7649 14.1135 13.7072C14.0304 13.6495 14.0581 13.4763 14.1966 13.4475C14.9446 13.332 14.9169 12.928 14.8338 12.7837C14.529 12.2066 15 12.0912 15.1939 12.0335C15.4432 11.9757 15.8865 11.8026 15.748 11.3697C15.5818 10.8503 15.4432 10.4463 15.3324 9.9846C15.1662 9.26317 15 8.59945 15.1662 8.16659C15.3324 7.64716 15.5818 7.82031 15.7757 7.9646ZM37.7164 3.54944C33.2008 2.91458 30.763 -1.06772 25.9427 2.222C23.0061 4.21315 21.9257 5.88688 16.1358 2.19315C13.227 0.346291 11.5094 0.173141 9.87495 0.0577118C4.66681 -0.288575 0.26204 3.92459 0.0127133 9.40746C-0.125801 12.3509 0.871504 14.9769 2.81071 16.8526C3.03233 17.0546 3.30936 16.9969 3.42017 16.766L3.47558 16.6218L6.41209 9.17659C6.41209 9.17659 8.01886 4.7903 12.0081 6.17545C13.2824 6.6083 14.3351 7.04116 15.3047 7.32973C17.5764 8.05116 19.2385 8.08002 21.8426 5.91573C23.0338 4.93459 25.0008 3.54944 27.5494 4.7903C31.1231 6.49288 37.0792 10.7349 41.3455 2.71258C41.3178 2.68372 39.6279 3.80915 37.7164 3.54944Z" fill="var(--fill-0, white)"/>
<path id="Vector_2" d="M163.432 1.67372C163.432 0.865713 164.014 0.288572 164.818 0.288572C165.621 0.288572 166.203 0.865713 166.203 1.67372C166.203 2.45286 165.621 3.03001 164.818 3.03001C164.014 3.03001 163.432 2.45286 163.432 1.67372ZM165.898 1.64486C165.898 0.98114 165.455 0.548285 164.79 0.548285C164.125 0.548285 163.682 0.98114 163.682 1.64486C163.682 2.30857 164.125 2.77029 164.79 2.77029C165.455 2.77029 165.898 2.30857 165.898 1.64486ZM164.236 1.44286V1.03886C164.236 0.95229 164.18 0.923426 164.042 0.923426C164.014 0.923426 164.014 0.894574 164.014 0.865716C164.014 0.808002 164.042 0.807999 164.097 0.807999H164.153C164.18 0.807999 164.291 0.836858 164.402 0.836858C164.541 0.836858 164.596 0.807999 164.734 0.807999C164.984 0.807999 165.399 0.865713 165.399 1.24086C165.399 1.38514 165.344 1.52943 165.095 1.70257L165.372 2.02001C165.566 2.25086 165.593 2.25086 165.621 2.25086C165.649 2.25086 165.676 2.27972 165.676 2.30858C165.676 2.36629 165.649 2.36629 165.538 2.36629C165.344 2.36629 165.178 2.39514 164.956 2.07771L164.734 1.78914H164.541V1.93343C164.541 2.222 164.568 2.25086 164.568 2.25086C164.596 2.27972 164.679 2.27972 164.707 2.27972C164.734 2.27972 164.762 2.27972 164.762 2.33744C164.762 2.39515 164.734 2.39515 164.707 2.39515H164.651C164.624 2.39515 164.485 2.36629 164.402 2.36629C164.347 2.36629 164.208 2.39515 164.18 2.39515H164.097C164.07 2.39515 163.986 2.36629 163.986 2.33744C163.986 2.30858 164.014 2.27972 164.042 2.27972C164.18 2.27972 164.18 2.27972 164.208 2.19315C164.236 2.10658 164.208 1.99114 164.208 1.78914M164.568 1.58715C164.624 1.616 164.707 1.64486 164.79 1.64486C164.845 1.64486 164.873 1.64486 164.928 1.61601C165.011 1.55829 165.067 1.47171 165.067 1.35628C165.067 1.15428 164.928 1.01 164.707 1.01C164.707 1.01 164.596 1.01 164.568 1.03886M52.9809 0.461717C52.4545 0.461717 51.845 0.490567 51.291 0.490567C50.7369 0.519425 50.2106 0.519426 49.7673 0.519426C49.518 0.519426 49.1024 0.519425 48.6592 0.490567C48.0497 0.46171 47.2741 0.432858 46.5815 0.432858C46.3876 0.432858 45.9166 0.432856 45.9166 0.836858C45.9166 1.09657 46.1105 1.24086 46.4707 1.24086C46.8031 1.24086 47.1355 1.26972 47.3018 1.29857C47.8835 1.44286 48.0774 1.70257 48.1051 2.53943C48.1605 3.31858 48.1605 4.01115 48.1605 7.76259V12.12C48.1605 14.3709 48.1605 16.3332 48.0497 17.3432C47.9666 18.0646 47.8558 18.4686 47.5511 18.5552C47.3849 18.584 47.1355 18.6418 46.8031 18.6418C46.3599 18.6418 46.2767 18.8438 46.2767 19.0169C46.2767 19.19 46.3599 19.4498 46.9139 19.4498C47.4126 19.4498 48.0774 19.4209 48.6592 19.392C49.1024 19.3632 49.4903 19.3632 49.6842 19.3632C49.9058 19.3632 50.2383 19.3632 50.6538 19.392C51.3464 19.4209 52.2052 19.4498 53.1194 19.4498C53.6734 19.4498 53.7288 19.1035 53.7288 19.0169C53.7288 18.9015 53.6734 18.6418 53.2025 18.6418C52.8977 18.6418 52.3991 18.584 52.0944 18.5552C51.568 18.4686 51.4572 18.0935 51.3741 17.4009C51.2633 16.3332 51.2633 14.3998 51.2633 12.12V2.25086C51.2633 2.02 51.3187 1.96229 51.3187 1.96229C51.4572 1.90457 51.7619 1.87572 52.1221 1.87572C52.5653 1.87572 53.4241 1.99114 54.2275 2.79914C55.3356 3.92458 55.4741 5.36744 55.4741 6.37745C55.4741 8.7726 53.8396 10.2732 52.6761 10.2732C52.3991 10.2732 51.8727 10.2732 51.8727 10.7349C51.8727 11.0523 52.1498 11.11 52.2883 11.1389C52.3991 11.1677 52.593 11.1677 52.7869 11.1677C56.0559 11.1677 58.4106 8.57059 58.4106 4.99229C58.4106 3.72258 57.8289 2.53943 57.2471 1.93343C56.887 1.55828 55.8343 0.461717 52.9809 0.461717ZM105.062 0.461717C104.287 0.461717 103.622 0.490569 103.179 0.519426C102.985 0.519426 102.846 0.548285 102.763 0.548285C102.569 0.548285 102.292 0.548284 101.932 0.519426C101.378 0.490569 100.658 0.461717 99.9096 0.461717C99.6049 0.461717 99.1062 0.461715 99.1062 0.865716C99.1062 1.12543 99.3001 1.26972 99.6603 1.26972C99.965 1.26972 100.519 1.26972 100.824 1.414C101.267 1.616 101.489 1.96229 101.516 3.46287L101.738 14.1977C101.433 13.8803 100.907 13.2743 100.27 12.5817C99.1339 11.312 97.7211 9.75374 96.7792 8.77259C93.2055 5.02115 89.5487 0.894572 89.521 0.836858C89.4379 0.750286 89.3825 0.663716 89.2994 0.577144C89.0224 0.230858 88.8007 0 88.5237 0C88.0251 0 88.0251 0.750289 88.0251 1.03886L87.8034 15.6695C87.7757 17.8626 87.6649 18.4109 87.194 18.5552C86.8615 18.6706 86.4183 18.6706 86.1967 18.6706C85.7257 18.6706 85.6426 18.8726 85.6426 19.0458C85.6426 19.4786 86.0858 19.4786 86.3352 19.4786C87.194 19.4786 87.9974 19.4498 88.4683 19.4209C88.6622 19.4209 88.8007 19.392 88.8561 19.392C89.0224 19.392 89.2163 19.392 89.4933 19.4209C90.0197 19.4498 90.7676 19.4786 91.765 19.4786C91.9589 19.4786 92.4852 19.4786 92.4852 19.0458C92.4852 18.786 92.2913 18.6706 91.9035 18.6706C91.571 18.6706 91.1278 18.6418 90.7399 18.4975C90.4352 18.382 90.1028 18.0069 90.0474 15.9292L89.798 5.97344C89.8812 6.06001 89.9643 6.17544 90.0751 6.29087C91.0447 7.44516 93.0947 9.81145 95.1447 11.918C96.142 12.9569 97.2224 14.1112 98.2474 15.2077C99.7434 16.7949 101.184 18.3243 102.043 19.19C102.32 19.5075 102.624 19.7961 102.957 19.7961C103.456 19.7961 103.456 19.1323 103.456 18.8438L103.705 3.26086C103.733 1.78914 103.954 1.50058 104.425 1.32743C104.675 1.26972 104.841 1.26972 105.09 1.26972C105.616 1.26972 105.7 1.01 105.7 0.865716C105.783 0.461715 105.284 0.461717 105.062 0.461717ZM122.737 14.544C122.377 14.544 122.321 14.8615 122.266 15.1789C122.183 15.6118 121.878 16.2755 121.518 16.7372C120.604 17.8338 119.357 18.0646 117.39 18.0646C112.487 18.0646 110.215 12.928 110.215 9.46516C110.215 6.57944 110.88 4.5883 112.293 3.20315C113.346 2.16429 114.675 1.73143 116.559 1.73143C118.526 1.73143 120.382 2.30858 121.158 3.20315C121.684 3.7803 121.989 4.55944 122.017 5.33859C122.017 5.56944 122.017 6.06002 122.432 6.06002C122.848 6.06002 122.875 5.5983 122.903 5.30973C122.931 5.05001 122.931 4.55944 122.931 4.04001C122.931 3.54944 122.931 3.03001 122.958 2.62601C122.986 2.10658 123.014 1.78915 123.042 1.58715C123.069 1.44286 123.069 1.32743 123.069 1.26972C123.069 1.15429 123.042 0.836854 122.543 0.77914C122.183 0.750282 121.823 0.663716 121.407 0.577144C121.019 0.490573 120.631 0.403996 120.216 0.346281C119.191 0.201995 118.304 0.0865681 116.808 0.0865681C113.567 0.0865681 111.185 0.923431 109.301 2.74144C106.725 5.25201 106.503 8.65716 106.503 9.63831C106.503 12.7549 107.5 15.2366 109.467 17.0546C111.489 18.9303 114.094 19.7961 117.584 19.7961C118.997 19.7961 120.853 19.6518 121.85 19.2189C122.294 19.0169 122.432 18.8726 122.571 18.382C122.792 17.5452 123.097 15.3809 123.097 15.0346C123.125 14.6018 122.848 14.544 122.737 14.544ZM135.868 15.3809C135.536 15.3809 135.48 15.6983 135.452 15.9003C135.314 16.8815 135.065 17.3143 134.594 17.574C134.067 17.8626 133.181 17.8626 132.654 17.8626C130.521 17.8626 130.3 17.5163 130.272 15.958C130.244 15.4386 130.272 14.1689 130.272 13.1589C130.272 12.7549 130.272 12.3797 130.272 12.1489V10.1866C130.272 10.1577 130.272 10.1289 130.272 10.1289C130.909 10.1289 132.876 10.1577 133.236 10.2155C134.012 10.302 134.206 10.6772 134.289 11.0235C134.344 11.2543 134.344 11.4563 134.344 11.6583C134.344 11.7449 134.344 11.8026 134.372 11.8603C134.372 12.12 134.511 12.2643 134.76 12.2643C135.148 12.2643 135.148 11.8026 135.148 11.6006C135.148 11.514 135.175 11.1966 135.175 10.8215C135.203 10.504 135.203 10.1577 135.231 9.95574C135.286 9.11888 135.342 8.65716 135.369 8.4263C135.397 8.28202 135.397 8.19544 135.397 8.13773C135.397 7.84916 135.231 7.76259 135.065 7.76259C134.871 7.76259 134.76 7.90688 134.621 8.10888L134.594 8.13773C134.455 8.33973 134.15 8.39744 133.679 8.4263C133.375 8.45516 132.156 8.48402 130.3 8.48402C130.3 8.45516 130.3 8.42631 130.3 8.39745V2.13543C130.3 2.10658 130.3 2.07771 130.3 2.07771C130.826 2.07771 132.959 2.13543 133.292 2.16429C134.289 2.30858 134.455 2.56829 134.594 2.94343C134.677 3.20315 134.704 3.57829 134.704 3.75144C134.704 4.09772 134.843 4.27086 135.092 4.27086C135.231 4.27086 135.425 4.18429 135.48 3.83801C135.508 3.63601 135.536 3.11658 135.563 2.68372C135.563 2.45286 135.591 2.27972 135.591 2.19315C135.646 1.44286 135.702 1.06772 135.729 0.836858C135.757 0.721429 135.757 0.634859 135.757 0.577144C135.757 0.202001 135.536 0.173145 135.452 0.173145C135.369 0.173145 135.259 0.201997 135.175 0.230854C135.148 0.259711 135.092 0.259713 135.065 0.259713C134.871 0.317428 134.455 0.375142 134.178 0.403999C133.818 0.432856 130.3 0.432858 128.831 0.432858C128.582 0.432858 128.167 0.403999 127.696 0.403999H127.502C127.252 0.403999 126.948 0.403999 126.671 0.403999C126.366 0.403999 126.061 0.403999 125.756 0.403999C125.563 0.403999 125.092 0.403998 125.092 0.807999C125.092 1.09657 125.285 1.212 125.646 1.212C125.978 1.212 126.31 1.24086 126.449 1.26972C127.031 1.414 127.197 1.67371 127.225 2.51057C127.252 3.28972 127.252 3.98229 127.252 7.73373V12.0912C127.252 14.342 127.252 16.3043 127.142 17.3432C127.058 18.0646 126.948 18.4686 126.643 18.5552C126.477 18.584 126.227 18.6418 125.923 18.6418C125.479 18.6418 125.396 18.8726 125.396 19.0169C125.396 19.19 125.479 19.4498 126.006 19.4498C126.227 19.4498 126.449 19.4498 126.698 19.4209C126.948 19.4209 127.225 19.392 127.502 19.392C128 19.3632 128.471 19.3632 128.721 19.3632C129.33 19.3632 129.94 19.392 130.937 19.4498L131.546 19.4786C132.35 19.5075 133.375 19.5363 134.649 19.5363C135.452 19.5363 135.813 19.5363 135.979 18.7572C136.09 18.2378 136.256 16.564 136.256 15.958C136.228 15.756 136.228 15.3809 135.868 15.3809ZM145.342 7.90688L144.678 7.38745C142.655 5.74259 142.267 4.96344 142.267 3.98229C142.267 2.53943 143.292 1.61601 144.871 1.61601C146.257 1.61601 146.921 2.25086 147.282 2.77029C147.753 3.3763 147.836 4.12658 147.836 4.27086C147.836 4.79029 148.057 4.90573 148.251 4.90573C148.694 4.90573 148.694 4.32858 148.694 3.98229C148.694 2.626 148.75 1.87572 148.778 1.44286C148.778 1.26972 148.805 1.12543 148.805 1.03886C148.805 0.663718 148.473 0.577143 148.334 0.548285C147.642 0.346285 146.644 0.115427 145.176 0.115427C141.88 0.115427 139.58 2.10657 139.58 4.96344C139.58 7.12773 140.633 8.91688 143.098 10.9657L144.179 11.8603C146.035 13.3898 146.395 14.4575 146.395 15.6695C146.395 16.9392 145.37 18.2955 143.431 18.2955C142.489 18.2955 140.827 17.978 140.273 15.9292C140.162 15.4963 140.079 15.0058 140.079 14.7172C140.079 14.1978 139.857 14.1112 139.663 14.1112C139.248 14.1112 139.22 14.7172 139.192 14.9192V15.0058C139.165 15.4675 139.082 16.8815 139.082 18.18C139.082 18.786 139.192 18.988 139.636 19.19C140.633 19.6518 141.658 19.8538 143.126 19.8538C144.65 19.8538 145.896 19.5075 146.949 18.8149C148.944 17.4586 149.221 15.4386 149.221 14.3709C149.249 11.918 148.196 10.1577 145.342 7.90688ZM157.975 7.90688L157.31 7.38745C155.288 5.74259 154.9 4.96344 154.9 3.98229C154.9 2.53943 155.925 1.61601 157.504 1.61601C158.889 1.61601 159.554 2.25086 159.914 2.74144C160.385 3.34744 160.468 4.09772 160.468 4.24201C160.468 4.76144 160.69 4.87687 160.884 4.87687C161.327 4.87687 161.327 4.29972 161.327 3.95343C161.327 2.59714 161.382 1.84686 161.41 1.414C161.41 1.24086 161.438 1.09657 161.438 1.01C161.438 0.634859 161.105 0.548284 160.967 0.519426C160.274 0.317426 159.277 0.0865681 157.809 0.0865681C154.512 0.0865681 152.213 2.07772 152.213 4.93459C152.213 7.09888 153.265 8.88802 155.731 10.9369L156.811 11.8315C158.668 13.3609 159.028 14.4286 159.028 15.6406C159.028 16.9103 158.003 18.2666 156.063 18.2666C155.122 18.2666 153.459 17.9492 152.905 15.9003C152.794 15.4675 152.711 14.9769 152.711 14.6883C152.711 14.1689 152.49 14.0823 152.296 14.0823C151.88 14.0823 151.853 14.6883 151.825 14.8903V14.9769C151.797 15.4963 151.714 16.8526 151.714 18.1512C151.714 18.7572 151.825 18.9592 152.268 19.1612C153.265 19.6229 154.29 19.8249 155.759 19.8249C157.282 19.8249 158.529 19.4786 159.582 18.786C161.576 17.4298 161.853 15.4097 161.853 14.342C161.881 11.918 160.828 10.1577 157.975 7.90688ZM83.7865 18.6706C83.4541 18.6706 82.9831 18.6129 82.6784 18.584C82.1243 18.4975 82.0135 18.18 81.9581 17.5452C81.875 16.4775 81.875 14.5729 81.875 12.1489V7.79145C81.875 4.04001 81.875 3.34744 81.9304 2.56829C81.9858 1.73143 82.152 1.44286 82.5953 1.32743C82.8446 1.26972 83.0108 1.26972 83.2324 1.26972C83.5926 1.26972 83.7588 1.12543 83.7588 0.836858C83.7588 0.461714 83.2601 0.461717 83.1216 0.461717C82.6507 0.461717 82.0412 0.490567 81.4872 0.490567C81.0439 0.519425 80.6561 0.519426 80.4068 0.519426C80.102 0.519426 79.6588 0.490567 79.1601 0.490567C78.5784 0.46171 77.9689 0.461717 77.5256 0.461717C77.304 0.461717 76.8054 0.461714 76.8054 0.836858C76.8054 1.12543 76.9716 1.26972 77.3317 1.26972C77.6365 1.26972 77.8858 1.29857 78.0797 1.35628C78.3567 1.44286 78.6338 1.616 78.6892 2.56829C78.7446 3.34744 78.7446 4.04001 78.7446 7.79145V12.1489C78.7446 14.5729 78.7446 16.4775 78.6338 17.5163C78.5784 18.2378 78.4398 18.5263 78.1351 18.584C77.9966 18.6129 77.775 18.6706 77.4702 18.6706H76.8608C76.6946 18.6706 76.5283 18.6418 76.3067 18.6129C75.9743 18.5552 75.1155 18.3532 73.952 16.9969C72.8161 15.6695 71.5418 13.8803 69.935 11.6295L69.2425 10.6772C71.2371 8.83031 72.0959 7.15658 72.0959 5.10772C72.0959 3.26086 71.0709 1.99115 70.5168 1.55829C69.2425 0.577143 67.6911 0.461717 66.3337 0.461717C66.0012 0.461717 65.4195 0.490567 64.8377 0.490567C64.2282 0.519425 63.5911 0.519426 63.2032 0.519426C63.037 0.519426 62.7046 0.519425 62.3167 0.490567C61.6796 0.46171 60.8762 0.432858 60.1559 0.432858C59.962 0.432858 59.491 0.432856 59.491 0.836858C59.491 1.09657 59.685 1.24086 60.0451 1.24086C60.3775 1.24086 60.71 1.26972 60.8762 1.29857C61.4857 1.44286 61.6519 1.70257 61.6796 2.53943C61.735 3.31858 61.735 4.01115 61.735 7.76259V12.12C61.735 14.3709 61.735 16.3332 61.6242 17.3432C61.5411 18.0646 61.4302 18.4686 61.1255 18.5552C60.9593 18.584 60.71 18.6418 60.3775 18.6418C59.9343 18.6418 59.8512 18.8438 59.8512 19.0169C59.8512 19.19 59.9343 19.4498 60.4883 19.4498C61.0147 19.4498 61.735 19.4209 62.289 19.392C62.6769 19.3632 63.0093 19.3632 63.1755 19.3632C63.2863 19.3632 63.5357 19.3632 63.8958 19.392C64.5607 19.4209 65.5857 19.4498 66.4445 19.4498C66.9985 19.4498 67.0816 19.19 67.0816 19.0169C67.0816 18.8438 66.9708 18.6418 66.6384 18.6418C66.3891 18.6418 65.8904 18.584 65.5857 18.5552C65.0593 18.4686 64.9485 18.0935 64.8654 17.372C64.7546 16.3332 64.7546 14.3709 64.7546 12.0912V11.7449L66.6938 11.8026C66.8323 11.8026 66.8877 11.8315 66.9431 11.918C67.1093 12.12 67.5249 12.7837 67.9958 13.534C68.356 14.1112 68.7438 14.7172 69.1317 15.2943C70.4337 17.2855 71.2648 18.4109 72.2344 18.988C72.8716 19.3632 73.4533 19.4786 74.6999 19.4786H77.4979C77.9966 19.4786 78.6615 19.4498 79.2432 19.4209C79.6865 19.392 80.0743 19.392 80.2682 19.392C80.4899 19.392 80.85 19.392 81.2932 19.4209C81.9858 19.4498 82.8446 19.4786 83.7311 19.4786C84.2852 19.4786 84.3406 19.1323 84.3406 19.0458C84.3129 18.9592 84.2575 18.6706 83.7865 18.6706ZM69.1317 6.31973C69.1317 8.54173 68.356 9.49402 67.885 9.86916C67.5249 10.1577 67.2756 10.2443 66.4168 10.2443C65.8073 10.2443 65.1978 10.1577 64.81 10.0134C64.7546 9.98459 64.7269 9.95573 64.7269 9.72488V2.222C64.7269 2.07771 64.7546 2.07772 64.81 2.04886C65.0593 1.96229 65.558 1.96229 65.9181 1.96229C67.1093 1.99114 69.1317 2.91458 69.1317 6.31973Z" fill="var(--fill-0, white)"/>
</g>
</svg>
