<svg overflow="visible" style="display: block;" viewBox="0 0 124.001 31.0002" fill="none" xmlns="http://www.w3.org/2000/svg">
<g id="g3674">
<path id="path3121" d="M0 31H123.998V0H0V31V31Z" fill="var(--fill-0, #2B6FC0)"/>
<path id="path3123" d="M0 31H30.5352V0H0V31Z" fill="var(--fill-0, #131C49)"/>
<path id="path3125" d="M30.5372 31.0002H124.001V21.4622H30.5372V31.0002Z" fill="var(--fill-0, #FAB60A)"/>
<path id="path3127" d="M35.1907 28.5545H35.8032V24.2144H35.1907V28.5545Z" fill="var(--fill-0, #131C49)"/>
<path id="path3129" d="M35.1907 28.5545H35.8032V24.2144H35.1907V28.5545Z" stroke="var(--stroke-0, #131C49)" stroke-width="0.240771"/>
<path id="path3131" d="M40.1944 24.2144H41.0272L42.914 27.7091H42.926V24.2144H43.5385V28.5545H42.7547L40.819 24.9856H40.807V28.5545H40.1944" fill="var(--fill-0, #131C49)"/>
<path id="path3133" d="M40.1944 24.2144H41.0272L42.914 27.7091H42.926V24.2144H43.5385V28.5545H42.7547L40.819 24.9856H40.807V28.5545H40.1944V24.2144Z" stroke="var(--stroke-0, #131C49)" stroke-width="0.240771"/>
<path id="path3135" d="M48.7807 24.7617H47.4514V24.2144H50.7221V24.7617H49.3931V28.5545H48.7807" fill="var(--fill-0, #131C49)"/>
<path id="path3137" d="M48.7807 24.7617H47.4514V24.2144H50.7221V24.7617H49.3931V28.5545H48.7807V24.7617Z" stroke="var(--stroke-0, #131C49)" stroke-width="0.240771"/>
<path id="path3139" d="M54.6738 24.2144H57.0685V24.7617H55.286V26.0298H56.9095V26.5771H55.286V28.0072H57.0685V28.5545H54.6738" fill="var(--fill-0, #131C49)"/>
<path id="path3141" d="M54.6738 24.2144H57.0685V24.7617H55.286V26.0298H56.9095V26.5771H55.286V28.0072H57.0685V28.5545H54.6738V24.2144V24.2144Z" stroke="var(--stroke-0, #131C49)" stroke-width="0.240771"/>
<path id="path3143" d="M61.9337 26.0795H62.4545C63.036 26.0795 63.3792 25.8188 63.3792 25.4019C63.3792 25.0101 63.0849 24.7617 62.5211 24.7617H61.9337V26.0795ZM61.321 24.2144H62.3684C63.2134 24.2144 64.0285 24.3512 64.0285 25.3897C64.0285 25.9182 63.6422 26.2913 63.1468 26.3784V26.3906C63.3361 26.4654 63.4275 26.5584 63.5626 26.8262L64.3711 28.5544H63.6729L63.0176 27.0496C62.8277 26.6268 62.6261 26.6268 62.3011 26.6268H61.9337V28.5544H61.321" fill="var(--fill-0, #131C49)"/>
<path id="path3145" d="M61.9337 26.0795H62.4545C63.036 26.0795 63.3792 25.8188 63.3792 25.4019C63.3792 25.0102 63.0849 24.7617 62.5211 24.7617H61.9337V26.0795ZM61.321 24.2144H62.3684C63.2134 24.2144 64.0285 24.3512 64.0285 25.3897C64.0285 25.9182 63.6422 26.2913 63.1468 26.3784V26.3906C63.3361 26.4654 63.4275 26.5584 63.5626 26.8262L64.3711 28.5545H63.6729L63.0176 27.0496C62.8277 26.6268 62.6261 26.6268 62.3011 26.6268H61.9337V28.5545H61.321V24.2144V24.2144Z" stroke="var(--stroke-0, #131C49)" stroke-width="0.240771"/>
<path id="path3147" d="M68.405 24.2144H69.2378L71.1238 27.7091H71.1361V24.2144H71.7489V28.5545H70.9645L69.029 24.9856H69.0172V28.5545H68.405" fill="var(--fill-0, #131C49)"/>
<path id="path3149" d="M68.405 24.2144H69.2378L71.1238 27.7091H71.1361V24.2144H71.7489V28.5545H70.9645L69.029 24.9856H69.0172V28.5545H68.405V24.2144H68.405Z" stroke="var(--stroke-0, #131C49)" stroke-width="0.240771"/>
<path id="path3151" d="M77.7917 24.7991L76.9401 26.9501H78.6433L77.7917 24.7991ZM77.4921 24.2144H78.1349L79.9419 28.5545H79.2737L78.8396 27.4599H76.7443L76.3096 28.5545H75.6663" fill="var(--fill-0, #131C49)"/>
<path id="path3153" d="M77.7917 24.7991L76.9401 26.9501H78.6433L77.7917 24.7991ZM77.4921 24.2144H78.1349L79.9419 28.5545H79.2737L78.8396 27.4599H76.7443L76.3096 28.5545H75.6663L77.4921 24.2144Z" stroke="var(--stroke-0, #131C49)" stroke-width="0.240771"/>
<path id="path3155" d="M84.2698 24.7617H82.9405V24.2144H86.2118V24.7617H84.8825V28.5545H84.2698" fill="var(--fill-0, #131C49)"/>
<path id="path3157" d="M84.2698 24.7617H82.9405V24.2144H86.2118V24.7617H84.8825V28.5545H84.2698V24.7617Z" stroke="var(--stroke-0, #131C49)" stroke-width="0.240771"/>
<path id="path3159" d="M90.1326 28.5545H90.7442V24.2144H90.1326V28.5545Z" fill="var(--fill-0, #131C49)"/>
<path id="path3161" d="M90.1326 28.5545H90.7442V24.2144H90.1326V28.5545Z" stroke="var(--stroke-0, #131C49)" stroke-width="0.240771"/>
<path id="path3163" d="M96.9784 28.0818C97.9644 28.0818 98.3873 27.2486 98.3873 26.3845C98.3873 25.501 97.9213 24.6802 96.9784 24.6866C96.0348 24.6802 95.5695 25.501 95.5695 26.3845C95.5695 27.2486 95.9923 28.0818 96.9784 28.0818ZM96.9784 24.1393C98.2764 24.1393 99.0354 25.097 99.0354 26.3845C99.0354 27.7024 98.2823 28.6291 96.9784 28.6291C95.6733 28.6291 94.9202 27.7024 94.9202 26.3845C94.9202 25.097 95.6792 24.1393 96.9784 24.1393Z" fill="var(--fill-0, #131C49)"/>
<path id="path3165" d="M96.9784 28.0818C97.9644 28.0818 98.3873 27.2486 98.3873 26.3845C98.3873 25.501 97.9213 24.6802 96.9784 24.6866C96.0348 24.6802 95.5695 25.501 95.5695 26.3845C95.5695 27.2486 95.9923 28.0818 96.9784 28.0818ZM96.9784 24.1393C98.2764 24.1393 99.0354 25.097 99.0354 26.3845C99.0354 27.7024 98.2823 28.6291 96.9784 28.6291C95.6733 28.6291 94.9202 27.7024 94.9202 26.3845C94.9202 25.097 95.6792 24.1393 96.9784 24.1393Z" stroke="var(--stroke-0, #131C49)" stroke-width="0.240771"/>
<path id="path3167" d="M103.206 24.2144H104.039L105.926 27.7091H105.939V24.2144H106.551V28.5545H105.767L103.832 24.9856H103.819V28.5545H103.206" fill="var(--fill-0, #131C49)"/>
<path id="path3169" d="M103.206 24.2144H104.039L105.926 27.7091H105.939V24.2144H106.551V28.5545H105.767L103.832 24.9856H103.819V28.5545H103.206V24.2144Z" stroke="var(--stroke-0, #131C49)" stroke-width="0.240771"/>
<path id="path3171" d="M112.601 24.7991L111.75 26.9501H113.453L112.601 24.7991ZM112.3 24.2144H112.944L114.751 28.5545H114.084L113.649 27.4599H111.554L111.119 28.5545H110.476" fill="var(--fill-0, #131C49)"/>
<path id="path3173" d="M112.601 24.7991L111.75 26.9501H113.453L112.601 24.7991ZM112.3 24.2144H112.944L114.751 28.5545H114.084L113.649 27.4599H111.554L111.119 28.5545H110.476L112.3 24.2144Z" stroke="var(--stroke-0, #131C49)" stroke-width="0.240771"/>
<path id="path3175" d="M118.672 24.2144H119.283V28.0072H121.072V28.5545H118.672" fill="var(--fill-0, #131C49)"/>
<path id="path3177" d="M118.672 24.2144H119.283V28.0072H121.072V28.5545H118.672V24.2144Z" stroke="var(--stroke-0, #131C49)" stroke-width="0.240771"/>
<path id="path3179" d="M15.3067 4.40587C16.4004 5.47996 17.6227 6.61948 18.6811 7.72978L17.4442 9.34814V9.42794L20.7235 10.916L22.9397 9.37011L21.6026 7.86044V7.75168C22.9753 6.76444 24.1548 5.81376 25.4846 4.90668L24.841 11.6705H5.69894L5.05563 4.90668C6.38518 5.81376 7.56465 6.76444 8.93729 7.75168V7.86044L7.60031 9.37011L9.81643 10.916L13.0961 9.42794V9.34814L11.8592 7.72978C12.9172 6.61948 14.1396 5.47996 15.2333 4.40587" fill="var(--fill-0, white)"/>
<path id="path3181" d="M24.6956 12.89L24.5024 15.1442L17.416 15.1414L17.4182 22.9294L20.8694 22.9065C21.6391 22.9054 22.4494 22.0828 22.2847 21.5424C22.099 20.7585 21.4055 20.2361 20.7623 19.8443C20.891 19.8443 23.2572 18.0733 24.3652 17.3115C24.3151 17.7975 23.5215 24.1624 23.5146 24.2642L15.3362 27.4209H15.2058L7.0278 24.2642C7.02059 24.1624 6.22722 17.7975 6.17719 17.3115C7.28521 18.0733 9.65138 19.8443 9.78008 19.8443C9.1365 20.2361 8.44339 20.7585 8.25737 21.5424C8.09294 22.0828 8.90324 22.9054 9.67267 22.9065L13.1242 22.9294L13.1264 15.1414L6.04029 15.1442L5.84707 12.89" fill="var(--fill-0, white)"/>
<path id="path3183" d="M36.6528 10.7454C38.0237 10.7311 39.6233 10.0932 39.6233 8.48387C39.6233 6.78768 38.1522 6.10592 36.6528 6.12057V10.7454ZM35.3961 8.83168C35.3961 6.61377 35.3246 6.28018 33.7253 6.13515V5.9323L37.2096 5.81629C40.8083 5.70021 41.0942 7.48346 41.0942 8.17951C41.0942 9.39715 40.3516 10.0932 39.3233 10.5572L39.3947 10.6585C40.4941 12.6158 41.8654 15.1094 44.2215 15.6023L44.1788 15.8195C42.6647 15.7473 41.5512 15.7909 40.7227 14.9209C39.7803 13.9205 39.0376 12.6447 38.7375 12.0215C38.1665 10.8179 37.6525 11.1661 36.6528 10.9919V13.3262C36.6528 14.9209 36.6812 15.2109 38.6376 15.4863V15.7038H33.6251V15.4863C35.3391 15.2545 35.3532 14.8194 35.3961 13.3262" fill="var(--fill-0, white)"/>
<path id="path3185" d="M46.275 9.46072C44.7328 9.46072 44.1044 11.0844 44.1044 12.4184C44.1044 13.7666 44.847 15.5206 46.3894 15.5206C47.8317 15.5206 48.4741 13.8534 48.4741 12.6066C48.4741 11.273 47.8317 9.46072 46.275 9.46072ZM46.2894 15.8396C44.333 15.8396 42.7763 14.5784 42.7763 12.5198C42.7763 10.519 44.39 9.1415 46.3035 9.1415C48.2458 9.1415 49.8025 10.4176 49.8025 12.4616C49.8025 14.4334 48.1744 15.8396 46.2894 15.8396" fill="var(--fill-0, white)"/>
<path id="path3187" d="M50.257 10.591C50.0001 9.93846 49.9431 9.7935 49.2289 9.67735V9.45991H52.1851V9.67735C51.0998 9.73525 51.3852 10.4024 51.6708 11.1417L53.0706 14.8244L53.9559 12.2146C54.5985 10.3299 54.7126 9.82238 53.6561 9.67735V9.45991H56.1552V9.67735C55.5263 9.7499 55.327 10.0109 55.0552 10.562L54.4557 11.9679L52.2563 17.5787C51.7282 18.9271 51.3566 19.3766 50.7857 19.3766C50.3998 19.3766 50.0856 19.0577 50.0856 18.6516C50.0856 18.3473 50.257 18.0717 50.5428 17.9702C50.6857 18.057 51.1283 18.3762 51.2997 18.3762C51.6138 18.3762 51.871 17.5934 51.9709 17.3759L52.442 16.2595" fill="var(--fill-0, white)"/>
<path id="path3189" d="M57.1041 13.3987C57.047 13.587 57.0038 13.7755 57.0038 13.9787C57.0038 14.5873 57.3471 15.1237 58.0037 15.1237C58.3896 15.1237 58.7748 14.8631 59.0322 14.5873V12.3983L57.1041 13.3987ZM59.0322 12.1083C59.146 10.5279 58.7466 9.87572 57.6178 9.87572C56.633 9.87572 56.7332 10.3543 56.7332 11.1515L56.019 11.195C55.9044 11.195 55.6901 11.2093 55.6901 11.05C55.6901 10.6585 57.2613 9.15069 58.4183 9.15069C59.7316 9.15069 60.1314 10.1657 60.1314 11.3254V13.3843C60.1314 14.6598 60.0111 15.457 61.374 15.2398V15.5672C60.8315 15.7266 60.3602 15.7763 59.9315 15.7763C59.3317 15.7763 59.1035 15.4284 59.0322 14.863C58.5749 15.3848 57.9466 15.8488 57.218 15.8488C56.3047 15.8488 55.7898 15.0658 55.7898 14.1959C55.7898 13.9786 55.8186 13.7755 55.8761 13.558" fill="var(--fill-0, white)"/>
<path id="path3191" d="M60.7155 15.7034V15.352C61.7069 15.2313 61.8289 15.0004 61.8289 14.0216V7.85908C61.8289 7.25008 61.8437 7.06187 61.1295 6.53965V6.3947L62.7714 5.75682L62.9288 5.81465V14.0216C62.9288 15.2105 62.9855 15.3263 64.0428 15.4859V15.7034" fill="var(--fill-0, white)"/>
<path id="path3193" d="M75.6132 13.3987C75.5571 13.587 75.5135 13.7755 75.5135 13.9787C75.5135 14.5873 75.8562 15.1237 76.5131 15.1237C76.8988 15.1237 77.2845 14.8631 77.5416 14.5873V12.3983L75.6132 13.3987ZM77.5416 12.1083C77.6554 10.5279 77.2562 9.87572 76.1274 9.87572C75.1426 9.87572 75.2422 10.3543 75.2422 11.1515L74.5286 11.195C74.4142 11.195 74.2002 11.2093 74.2002 11.05C74.2002 10.6585 75.7706 9.15069 76.9277 9.15069C78.2411 9.15069 78.6409 10.1657 78.6409 11.3254V13.3843C78.6409 14.6598 78.4987 15.5418 79.8834 15.2398V15.5672C79.3409 15.7266 78.8697 15.7763 78.441 15.7763C77.8412 15.7763 77.613 15.4284 77.5416 14.863C77.0845 15.3848 76.4565 15.8488 75.7281 15.8488C74.814 15.8488 74.2998 15.0658 74.2998 14.1959C74.2998 13.9786 74.3287 13.7755 74.3853 13.558" fill="var(--fill-0, white)"/>
<path id="path3195" d="M73.3737 8.82642H73.159C72.8878 7.1882 71.946 6.01388 70.2316 6.01388C67.6184 6.01388 66.1477 8.18861 66.1477 10.6822C66.1477 13.5384 68.3037 15.5245 70.3748 15.5245C72.2449 15.5245 72.988 14.1327 73.6308 12.567L73.8302 12.6541C73.6591 13.5384 73.3879 14.4084 73.0453 15.2492C72.1312 15.6986 71.1457 15.8725 70.1313 15.8725C67.1472 15.8725 64.491 14.1327 64.491 10.8563C64.491 8.27574 66.4755 5.666 70.2457 5.666C71.332 5.666 72.4307 5.8835 73.3737 6.44889" fill="var(--fill-0, white)"/>
<path id="path3197" d="M109.545 13.3934C109.489 13.5818 109.446 13.7701 109.446 13.9733C109.446 14.5823 109.789 15.1187 110.447 15.1187C110.831 15.1187 111.217 14.8577 111.474 14.5823V12.3929L109.545 13.3934ZM111.474 12.1029C111.589 10.5228 111.188 9.87032 110.06 9.87032C109.076 9.87032 109.175 10.3489 109.175 11.1461L108.461 11.1896C108.346 11.1896 108.132 11.204 108.132 11.0446C108.132 10.6532 109.703 9.14528 110.86 9.14528C112.174 9.14528 112.574 10.1603 112.574 11.32V13.3787C112.574 14.6548 112.372 15.4654 113.676 15.3929V15.649C113.133 15.8086 112.802 15.7709 112.373 15.7709C111.775 15.7709 111.545 15.423 111.474 14.8576C111.018 15.3794 110.389 15.8434 109.661 15.8434C108.746 15.8434 108.233 15.0604 108.233 14.1908C108.233 13.9733 108.262 13.7701 108.318 13.5527" fill="var(--fill-0, white)"/>
<path id="path3199" d="M81.4367 14.0166C81.4367 15.2055 81.4939 15.3216 82.8645 15.4809V15.6984H79.2948V15.3532C80.256 15.2681 80.3233 15.0307 80.3369 13.8996V11.2475C80.3369 10.6385 80.3516 10.4503 79.6374 9.92819V9.78324L81.3364 9.14528L81.4939 9.20347L81.4367 10.9142H81.465C81.7787 10.1457 82.5796 9.14528 83.479 9.14528C83.8788 9.14528 84.2073 9.40632 84.2073 9.81239C84.2073 10.2038 83.7927 10.5661 83.4642 10.7257C83.2219 10.5371 82.8645 10.2182 82.5507 10.2471C81.3364 10.3631 81.4367 12.335 81.4367 12.5522" fill="var(--fill-0, white)"/>
<path id="path3201" d="M86.9766 6.73046C86.9766 7.13646 86.6475 7.47005 86.2482 7.47005C85.8478 7.47005 85.5193 7.13646 85.5193 6.73046C85.5193 6.32468 85.8478 5.99144 86.2482 5.99144C86.6475 5.99144 86.9766 6.32468 86.9766 6.73046ZM84.6488 15.6986V15.4811C85.7051 15.3218 85.7481 15.1478 85.7623 14.0167V11.2477C85.7623 10.6387 85.7764 10.4504 84.8913 9.92836V9.78341L86.7047 9.14545L86.8627 9.20364V14.0167C86.8627 15.2056 86.9188 15.3218 87.9761 15.4811V15.6986" fill="var(--fill-0, white)"/>
<path id="path3203" d="M89.5965 12.7555C89.5965 14.1038 89.7392 15.3943 91.3959 15.3943C92.1814 15.3943 93.4517 14.7563 93.4517 12.741C93.4517 11.0013 92.3105 9.87046 90.9246 9.87046C90.4387 9.87046 90.0388 10.0008 89.5965 10.1894V12.7555V12.7555ZM88.4967 7.85421C88.4967 7.24521 88.5114 7.05673 87.7973 6.53486V6.3899L89.4403 5.75195L89.5965 5.80985V9.95724C90.296 9.56618 91.1676 9.14545 91.9809 9.14545C93.5673 9.14545 94.6659 10.6387 94.6659 12.161C94.6659 14.7271 92.3383 15.8436 90.7684 15.8436C89.9109 15.8436 89.2686 15.6117 88.4967 15.2635" fill="var(--fill-0, white)"/>
<path id="path3205" d="M96.4248 12.7555C96.4248 14.1038 96.5681 15.3943 98.2241 15.3943C99.0097 15.3943 100.28 14.7563 100.28 12.741C100.28 11.0013 99.1376 9.87046 97.7529 9.87046C97.2669 9.87046 96.8671 10.0008 96.4248 10.1894V12.7555V12.7555ZM95.325 7.85421C95.325 7.24521 95.3391 7.05673 94.6261 6.53486V6.3899L96.2674 5.75195L96.4248 5.80985V9.95724C97.1242 9.56618 97.9959 9.14545 98.8091 9.14545C100.394 9.14545 101.494 10.6387 101.494 12.161C101.494 14.7271 99.1665 15.8436 97.5955 15.8436C96.7385 15.8436 96.0969 15.6117 95.325 15.2635" fill="var(--fill-0, white)"/>
<path id="path3207" d="M106.207 10.8853C106.079 10.2182 105.678 9.46422 104.922 9.46422C104.109 9.46422 103.623 10.2761 103.466 11.0011L106.207 10.8853V10.8853ZM103.365 12.0015C103.252 13.5093 104.265 14.9155 105.879 14.9155C106.622 14.9155 107.136 14.5822 107.564 14.0023L107.778 14.1616C107.236 15.104 106.265 15.8434 105.151 15.8434C103.379 15.8434 102.151 14.3647 102.151 12.6247C102.151 10.7546 103.437 9.14528 105.365 9.14528C106.649 9.14528 107.507 9.97173 107.564 11.2764H103.422" fill="var(--fill-0, white)"/>
<path id="path3209" d="M114.304 11.2475C114.304 10.6385 114.318 10.4503 113.604 9.92819V9.78324L115.304 9.14528L115.461 9.20347L115.346 10.2617C116.16 9.65279 116.945 9.14528 117.86 9.14528C119.574 9.14528 119.659 10.5807 119.659 11.436V14.0166C119.659 15.2055 119.716 15.3216 120.773 15.4809V15.6984H117.445V15.4809C118.503 15.3216 118.545 15.1476 118.56 14.0166V12.3494C118.56 11.3346 118.603 9.89924 116.86 9.89924C116.275 9.89924 115.875 10.0878 115.404 10.5227V14.0166C115.404 15.2055 115.461 15.3216 116.518 15.4809V15.6984H113.19L113.188 15.4342C114.212 15.3537 114.289 15.1476 114.304 14.0166" fill="var(--fill-0, white)"/>
</g>
</svg>
