<svg overflow="visible" style="display: block;" viewBox="0 0 43.9639 44.0362" fill="none" xmlns="http://www.w3.org/2000/svg">
<g id="Group">
<path id="Vector" d="M22 0C9.85021 0 0 9.85021 0 22C0 31.3251 5.79424 39.2922 13.9786 42.4971C13.7794 40.7588 13.6165 38.079 14.051 36.1778C14.4494 34.4576 16.6222 25.2412 16.6222 25.2412C16.6222 25.2412 15.9704 23.9193 15.9704 21.9819C15.9704 18.9218 17.7449 16.6403 19.9539 16.6403C21.837 16.6403 22.7424 18.0527 22.7424 19.7366C22.7424 21.6198 21.5473 24.4444 20.9136 27.07C20.3885 29.2609 22.0181 31.0535 24.1728 31.0535C28.0839 31.0535 31.0897 26.9251 31.0897 20.986C31.0897 15.7169 27.3053 12.0412 21.8914 12.0412C15.6263 12.0412 11.9506 16.7309 11.9506 21.5835C11.9506 23.4667 12.6749 25.4946 13.5802 26.5992C13.7613 26.8165 13.7794 27.0156 13.7251 27.2329C13.5621 27.921 13.1819 29.4239 13.1095 29.7317C13.0189 30.13 12.7835 30.2206 12.3671 30.0214C9.61481 28.7358 7.89465 24.7342 7.89465 21.493C7.89465 14.558 12.9284 8.18436 22.4346 8.18436C30.0576 8.18436 35.9967 13.6165 35.9967 20.8955C35.9967 28.4823 31.2165 34.5844 24.5893 34.5844C22.3621 34.5844 20.2617 33.4255 19.5556 32.0494C19.5556 32.0494 18.451 36.2502 18.1794 37.2823C17.6905 39.2016 16.3506 41.5918 15.4453 43.0584C17.5095 43.6922 19.6823 44.0362 21.9638 44.0362C34.1136 44.0362 43.9638 34.186 43.9638 22.0362C44 9.8502 34.1498 0 22 0Z" fill="var(--fill-0, white)"/>
</g>
</svg>
