<svg overflow="visible" style="display: block;" viewBox="0 0 51 35.1724" fill="none" xmlns="http://www.w3.org/2000/svg">
<g id="g12">
<path id="path14" d="M20.2841 10.1635V25.0089L33.6136 17.5859L20.2841 10.1635ZM49.9342 29.6801C49.3477 31.8421 47.6195 33.5446 45.4253 34.1223C41.4482 35.1724 25.5 35.1724 25.5 35.1724C25.5 35.1724 9.55186 35.1724 5.57462 34.1223C3.38037 33.5446 1.65216 31.8421 1.06571 29.6801C0 25.7617 0 17.5862 0 17.5862C0 17.5862 0 9.4108 1.06571 5.49226C1.65216 3.33032 3.38037 1.62788 5.57462 1.04983C9.55186 0 25.5 0 25.5 0C25.5 0 41.4482 0 45.4253 1.04983C47.6195 1.62788 49.3477 3.33032 49.9342 5.49226C51 9.4108 51 17.5862 51 17.5862C51 17.5862 51 25.7617 49.9342 29.6801Z" fill="var(--fill-0, white)"/>
</g>
</svg>
