<svg overflow="visible" style="display: block;" viewBox="0 0 43.6718 35.4364" fill="none" xmlns="http://www.w3.org/2000/svg">
<g id="Logo_1_">
<path id="white_background" d="M39.2008 8.8218C39.2274 9.20626 39.2274 9.59073 39.2274 9.97873C39.2274 21.8013 30.2145 35.4364 13.734 35.4364V35.4293C8.86565 35.4364 4.09839 34.0439 0 31.4182C0.707903 31.5032 1.41935 31.5457 2.13258 31.5475C6.1671 31.5511 10.0863 30.1992 13.2603 27.71C9.42629 27.6374 6.06419 25.141 4.88968 21.4966C6.23274 21.7553 7.61661 21.7021 8.93484 21.3425C4.75484 20.4991 1.74758 16.8317 1.74758 12.5725C1.74758 12.5335 1.74758 12.4963 1.74758 12.4591C2.99306 13.1519 4.38758 13.5363 5.81403 13.5788C1.8771 10.9514 0.663548 5.72131 3.04097 1.63221C7.59 7.22195 14.3018 10.6201 21.5068 10.9797C20.7847 7.87217 21.7711 4.61577 24.0989 2.43125C27.7076 -0.956258 33.3832 -0.78263 36.7755 2.81925C38.7821 2.42416 40.7053 1.6889 42.4653 0.647139C41.7965 2.71827 40.3966 4.47757 38.5266 5.59552C40.3026 5.38646 42.0377 4.91164 43.6718 4.18701C42.4689 5.98707 40.9537 7.55503 39.2008 8.8218Z" fill="var(--fill-0, white)"/>
</g>
</svg>
