<svg overflow="visible" style="display: block;" viewBox="0 0 44 44" fill="none" xmlns="http://www.w3.org/2000/svg">
<g id="Instagram svg" clip-path="url(#clip0_3274_621)">
<path id="Vector" d="M12.8885 0.154044C10.5477 0.264484 8.94915 0.638044 7.55171 1.18716C6.10543 1.7508 4.87959 2.50716 3.65991 3.73124C2.44023 4.95532 1.68915 6.18204 1.12947 7.63052C0.587829 9.03104 0.220869 10.6309 0.117469 12.973C0.0140687 15.3151 -0.00881136 16.068 0.00262864 22.0423C0.0140686 28.0166 0.0404687 28.7655 0.153989 31.1124C0.265749 33.4528 0.637989 35.0509 1.18711 36.4488C1.75163 37.895 2.50711 39.1204 3.73163 40.3406C4.95615 41.5607 6.18199 42.31 7.63399 42.8706C9.03319 43.4113 10.6335 43.78 12.9751 43.8826C15.3168 43.9851 16.0705 44.0088 22.0431 43.9974C28.0157 43.986 28.7676 43.9596 31.1141 43.8482C33.4607 43.7369 35.0504 43.362 36.4487 42.8156C37.895 42.2497 39.1213 41.4956 40.3405 40.2706C41.5597 39.0456 42.3104 37.818 42.8696 36.3687C43.4117 34.9695 43.78 33.3692 43.8816 31.0293C43.9841 28.681 44.0083 27.9312 43.9969 21.9578C43.9855 15.9844 43.9586 15.2355 43.8473 12.8894C43.736 10.5433 43.3633 8.95008 42.8146 7.55132C42.2492 6.10504 41.4946 4.88052 40.2705 3.65952C39.0465 2.43852 37.818 1.68832 36.3691 1.1304C34.969 0.588764 33.3696 0.219604 31.0279 0.118404C28.6862 0.0172037 27.9325 -0.00875632 21.9577 0.00268367C15.983 0.0141237 15.235 0.0396437 12.8885 0.154044ZM13.1454 39.9248C11.0004 39.8315 9.83575 39.4751 9.05959 39.1768C8.03175 38.7808 7.29959 38.302 6.52607 37.536C5.75255 36.77 5.27735 36.0352 4.87607 35.0095C4.57467 34.2334 4.21167 33.07 4.11135 30.925C4.00223 28.6066 3.97935 27.9106 3.96659 22.037C3.95383 16.1634 3.97627 15.4682 4.07791 13.149C4.16943 11.0058 4.52803 9.83976 4.82591 9.06404C5.22191 8.03488 5.69887 7.30404 6.46667 6.53096C7.23447 5.75788 7.96707 5.2818 8.99359 4.88052C9.76887 4.5778 10.9322 4.21788 13.0763 4.1158C15.3965 4.0058 16.0917 3.9838 21.9643 3.97104C27.837 3.95828 28.534 3.98028 30.855 4.08236C32.9982 4.17564 34.1647 4.53072 34.9395 4.83036C35.9678 5.22636 36.6995 5.702 37.4726 6.47112C38.2457 7.24024 38.7222 7.9702 39.1235 8.99892C39.4266 9.772 39.7865 10.9349 39.8877 13.0804C39.9982 15.4005 40.0233 16.0961 40.0338 21.9684C40.0444 27.8406 40.0237 28.538 39.9221 30.8564C39.8283 33.0014 39.4728 34.1665 39.1741 34.9435C38.7781 35.9709 38.3007 36.7035 37.5324 37.4762C36.7642 38.2488 36.0325 38.7249 35.0055 39.1262C34.2311 39.4284 33.0664 39.7892 30.9241 39.8913C28.6039 40.0004 27.9087 40.0233 22.0339 40.0361C16.159 40.0488 15.466 40.0251 13.1459 39.9248H13.1454ZM31.0803 10.2419C31.0811 10.7641 31.2368 11.2743 31.5277 11.708C31.8185 12.1417 32.2315 12.4793 32.7143 12.6783C33.197 12.8773 33.728 12.9287 34.2399 12.8259C34.7519 12.7231 35.2219 12.4708 35.5904 12.1009C35.959 11.7309 36.2096 11.26 36.3105 10.7477C36.4114 10.2354 36.3581 9.70461 36.1574 9.22256C35.9566 8.74052 35.6174 8.32883 35.1827 8.03957C34.7479 7.75032 34.2372 7.59648 33.715 7.59752C33.015 7.59892 32.3442 7.87829 31.8501 8.37418C31.356 8.87008 31.0791 9.5419 31.0803 10.2419V10.2419ZM10.7039 22.022C10.7162 28.2612 15.7832 33.3076 22.0211 33.2957C28.259 33.2838 33.3089 28.2172 33.297 21.978C33.2851 15.7388 28.2167 10.6912 21.978 10.7035C15.7392 10.7158 10.692 15.7837 10.7039 22.022ZM14.6665 22.0141C14.6636 20.5637 15.0909 19.145 15.8944 17.9374C16.6978 16.7299 17.8413 15.7876 19.1802 15.2299C20.5191 14.6722 21.9933 14.5241 23.4164 14.8042C24.8395 15.0844 26.1476 15.7802 27.1752 16.8038C28.2029 17.8274 28.9039 19.1327 29.1897 20.5547C29.4755 21.9767 29.3332 23.4515 28.7808 24.7926C28.2284 26.1337 27.2907 27.2809 26.0863 28.0891C24.8819 28.8973 23.4649 29.3302 22.0145 29.3331C21.0514 29.3351 20.0974 29.1474 19.2069 28.7807C18.3163 28.4139 17.5068 27.8753 16.8244 27.1957C16.1421 26.516 15.6003 25.7086 15.2301 24.8196C14.8598 23.9305 14.6683 22.9772 14.6665 22.0141" fill="var(--fill-0, white)"/>
</g>
<defs>
<clipPath id="clip0_3274_621">
<rect width="44" height="44" fill="white"/>
</clipPath>
</defs>
</svg>
