<svg overflow="visible" style="display: block;" viewBox="0 0 220.532 45" fill="none" xmlns="http://www.w3.org/2000/svg">
<g id="Celebrity Logo">
<path id="path10804" d="M81.2688 45L103.015 21.5264L83.3555 0H98.1821L110.483 13.3053L122.893 0H137.83L118.061 21.5264L139.807 45H124.541L110.593 29.7476L96.6446 45H81.2688Z" fill="var(--fill-0, #005092)"/>
<path id="path10816" d="M216.359 14.0625C218.665 14.0625 220.532 15.9014 220.532 18.1731C220.532 20.5529 218.665 22.3918 216.359 22.3918C214.052 22.3918 212.185 20.5529 212.185 18.1731C212.185 15.9014 214.052 14.0625 216.359 14.0625ZM216.359 14.7115C214.491 14.7115 212.954 16.3341 212.954 18.1731C212.954 20.1202 214.491 21.7428 216.359 21.7428C218.226 21.7428 219.763 20.2284 219.763 18.2813C219.763 16.3341 218.226 14.7115 216.359 14.7115ZM215.59 20.6611H214.821V16.0096C215.26 15.9014 215.59 15.9014 216.139 15.9014C216.798 15.9014 217.347 16.0096 217.567 16.226C217.896 16.4423 218.006 16.7668 218.006 17.1995C218.006 17.8486 217.567 18.1731 217.127 18.2813C217.567 18.3894 217.786 18.7139 217.896 19.363C218.006 20.1202 218.116 20.3365 218.226 20.5529H217.457C217.347 20.4447 217.237 20.012 217.127 19.363C217.017 18.8221 216.688 18.4976 216.139 18.4976H215.59V20.6611ZM215.59 18.0649H216.139C216.798 18.0649 217.237 17.8485 217.237 17.3077C217.237 16.875 216.908 16.5505 216.139 16.5505C215.919 16.5505 215.7 16.5505 215.59 16.5505V18.0649Z" fill="var(--fill-0, #005092)"/>
<path id="path10820" d="M10.6532 19.1467C10.2139 17.5241 9.11565 16.226 7.02894 16.226C3.84395 16.226 2.52602 18.9303 2.52602 21.7428C2.52602 24.5553 3.84395 27.2596 7.02894 27.2596C9.33531 27.2596 10.5434 25.5289 10.7631 23.4736H13.2891C13.0694 26.9351 10.5434 29.3149 7.02894 29.3149C2.63585 29.3149 0 25.8534 0 21.7428C0 17.6322 2.63585 14.1707 7.02894 14.1707C10.3238 14.1707 12.9596 16.0096 13.2891 19.1467H10.6532Z" fill="var(--fill-0, #005092)"/>
<path id="path10824" d="M16.9126 24.3388C16.9126 25.9614 17.7912 27.4758 19.7681 27.4758C21.0861 27.4758 21.9647 26.935 22.404 25.7451H24.6005C24.0514 28.0167 22.0745 29.3148 19.7681 29.3148C16.4733 29.3148 14.6063 27.0431 14.6063 23.7979C14.6063 20.7691 16.5831 18.2811 19.7681 18.2811C23.1728 18.2811 25.1497 21.31 24.8202 24.447L16.9126 24.3388ZM22.404 22.8244C22.2942 21.31 21.3057 20.0119 19.7681 20.0119C18.1207 20.0119 17.0225 21.2018 16.9126 22.8244H22.404Z" fill="var(--fill-0, #005092)"/>
<path id="path10826" d="M26.581 28.9903H28.8874V14.4951H26.581V28.9903Z" fill="var(--fill-0, #005092)"/>
<path id="path10838" d="M33.0618 24.3388C33.0618 25.9614 33.9404 27.4758 35.9173 27.4758C37.2352 27.4758 38.1139 26.935 38.5532 25.7451H40.7497C40.2006 28.0167 38.2237 29.3148 35.9173 29.3148C32.6225 29.3148 30.7554 27.0431 30.7554 23.7979C30.7554 20.7691 32.7323 18.2811 35.9173 18.2811C39.322 18.2811 41.2988 21.31 40.9694 24.447L33.0618 24.3388ZM38.5532 22.8244C38.4433 21.31 37.4549 20.0119 35.9173 20.0119C34.2699 20.0119 33.1716 21.2018 33.0618 22.8244H38.5532Z" fill="var(--fill-0, #005092)"/>
<path id="path10842" d="M42.6171 14.4951H44.9235V19.9037C45.5825 18.9302 46.9004 18.2812 48.1085 18.2812C51.5131 18.2812 53.0507 20.7691 53.0507 23.9061C53.0507 26.7186 51.623 29.423 48.438 29.423C47.0102 29.423 45.4726 29.0985 44.7038 27.6922V29.0985H42.5073L42.6171 14.4951ZM47.8888 20.1201C45.9119 20.1201 44.9235 21.6345 44.9235 23.798C44.9235 25.9614 46.0218 27.4759 47.8888 27.4759C50.0854 27.4759 50.8542 25.6369 50.8542 23.798C50.8542 21.8509 49.8657 20.1201 47.8888 20.1201Z" fill="var(--fill-0, #005092)"/>
<path id="path10846" d="M55.2449 18.4975H57.4415V20.5528C57.6611 19.471 59.0889 18.2811 60.5166 18.2811C61.0658 18.2811 61.1756 18.2811 61.3952 18.3893V20.6609C61.0658 20.6609 60.7363 20.5528 60.4068 20.5528C58.7594 20.5528 57.5513 21.8508 57.5513 24.1225V29.0984H55.2449V18.4975Z" fill="var(--fill-0, #005092)"/>
<path id="path10848" d="M63.3709 14.4951H65.6773V16.6586H63.3709V14.4951ZM63.3709 18.4975H65.6773V28.9903H63.3709V18.4975Z" fill="var(--fill-0, #005092)"/>
<path id="path10860" d="M67.6568 18.4976H69.414V15.3606H71.7204V18.4976H73.8071V20.2284H71.7204V25.8534C71.7204 26.8269 71.8302 27.2596 72.8187 27.2596C73.1482 27.2596 73.4777 27.2596 73.8071 27.1514V28.9904C73.258 28.9904 72.8187 29.0986 72.2696 29.0986C69.8534 29.0986 69.414 28.125 69.3042 26.3942V20.2284H67.6568V18.4976Z" fill="var(--fill-0, #005092)"/>
<path id="path10864" d="M75.3457 18.4976H77.8717L80.6174 26.286L83.3631 18.4976H85.7792L81.6058 29.5312C80.837 31.3702 80.2879 33.1009 77.8717 33.1009C77.3226 33.1009 76.7734 33.1009 76.2243 32.9928V31.1538C76.5538 31.262 76.9931 31.262 77.3226 31.262C78.4208 31.262 78.6405 30.7211 78.97 29.7476L79.1896 28.8822L75.3457 18.4976Z" fill="var(--fill-0, #005092)"/>
<path id="path10868" d="M145.847 19.1467C145.408 17.5241 144.309 16.226 142.223 16.226C139.038 16.226 137.72 18.9303 137.72 21.7428C137.72 24.5553 139.038 27.2596 142.223 27.2596C144.529 27.2596 145.737 25.5289 145.957 23.4736H148.483C148.263 26.9351 145.737 29.3149 142.223 29.3149C137.829 29.3149 135.194 25.8534 135.194 21.7428C135.194 17.6322 137.829 14.1707 142.223 14.1707C145.517 14.1707 148.153 16.0096 148.483 19.1467H145.847Z" fill="var(--fill-0, #005092)"/>
<path id="path10872" d="M150.571 18.4975H152.768V20.5528C152.988 19.471 154.415 18.2811 155.843 18.2811C156.392 18.2811 156.502 18.2811 156.722 18.3893V20.6609C156.392 20.6609 156.063 20.5528 155.733 20.5528C154.086 20.5528 152.878 21.8508 152.878 24.1225V29.0984H150.571V18.4975Z" fill="var(--fill-0, #005092)"/>
<path id="path10876" d="M168.144 28.9903H165.838V27.4759C165.289 28.5576 163.971 29.2067 162.763 29.2067C160.017 29.2067 158.809 27.8004 158.809 25.0961V18.3893H161.115V24.8797C161.115 26.7187 161.884 27.3677 163.202 27.3677C165.179 27.3677 165.838 26.1778 165.838 24.5552V18.4975H168.144V28.9903Z" fill="var(--fill-0, #005092)"/>
<path id="path10878" d="M170.895 14.4951H173.201V16.6586H170.895V14.4951ZM170.895 18.4975H173.201V28.9903H170.895V18.4975Z" fill="var(--fill-0, #005092)"/>
<path id="path10890" d="M177.917 25.6371C178.027 26.9352 179.125 27.4761 180.334 27.4761C181.212 27.4761 182.75 27.2597 182.75 26.0698C182.64 24.8799 180.993 24.6636 179.235 24.339C177.478 24.0145 175.831 23.3655 175.831 21.202C175.831 18.9304 178.357 18.1732 180.334 18.1732C182.53 18.1732 184.507 19.0386 184.837 21.4184H182.42C182.201 20.3366 181.322 20.0121 180.224 20.0121C179.565 20.0121 178.247 20.1203 178.247 21.0938C178.247 22.2838 180.004 22.3919 181.761 22.8246C183.519 23.2573 185.166 23.7982 185.166 25.8535C185.166 28.3415 182.64 29.315 180.443 29.315C177.808 29.315 175.721 28.1251 175.721 25.6371H177.917V25.6371Z" fill="var(--fill-0, #005092)"/>
<path id="path10894" d="M188.793 24.3388C188.793 25.9614 189.672 27.4758 191.649 27.4758C192.967 27.4758 193.845 26.935 194.285 25.7451H196.481C195.932 28.0167 193.955 29.3148 191.649 29.3148C188.354 29.3148 186.487 27.0431 186.487 23.7979C186.487 20.7691 188.464 18.2811 191.649 18.2811C195.053 18.2811 197.03 21.31 196.701 24.447L188.793 24.3388ZM194.285 22.8244C194.175 21.31 193.186 20.0119 191.649 20.0119C190.001 20.0119 188.903 21.2018 188.793 22.8244H194.285Z" fill="var(--fill-0, #005092)"/>
<path id="path10898" d="M200.761 25.6371C200.871 26.9352 201.969 27.4761 203.177 27.4761C204.056 27.4761 205.593 27.2597 205.593 26.0698C205.484 24.8799 203.836 24.6636 202.079 24.339C200.322 24.0145 198.674 23.3655 198.674 21.202C198.674 18.9304 201.2 18.1732 203.177 18.1732C205.374 18.1732 207.351 19.0386 207.68 21.4184H205.264C205.044 20.3366 204.166 20.0121 203.067 20.0121C202.408 20.0121 201.091 20.1203 201.091 21.0938C201.091 22.2838 202.848 22.3919 204.605 22.8246C206.362 23.2573 208.01 23.7982 208.01 25.8535C208.01 28.3415 205.484 29.315 203.287 29.315C200.651 29.315 198.565 28.1251 198.565 25.6371H200.761V25.6371Z" fill="var(--fill-0, #005092)"/>
</g>
</svg>
