<svg overflow="visible" style="display: block;" viewBox="0 0 18 13.6252" fill="none" xmlns="http://www.w3.org/2000/svg">
<g id="Group">
<path id="Vector" d="M17.7441 10.4556V13.0923C17.744 13.2481 17.6202 13.3697 17.4727 13.3697C17.3251 13.3697 17.2013 13.2481 17.2012 13.0923V12.2281H0.798828V13.0923C0.798712 13.2481 0.674914 13.3697 0.527344 13.3697C0.379773 13.3697 0.255975 13.2481 0.255859 13.0923V10.4556H17.7441Z" stroke="var(--stroke-0, #595959)" stroke-width="0.510752"/>
<path id="Vector_2" d="M1.93945 5.96454H16.0605C16.9863 5.96454 17.744 6.72637 17.7441 7.66864V8.8786H0.255859V7.66864C0.255992 6.72637 1.01375 5.96454 1.93945 5.96454Z" stroke="var(--stroke-0, #595959)" stroke-width="0.510752"/>
<path id="Vector_3" d="M7.02539 3.60547H10.9795C11.3237 3.60556 11.6084 3.88959 11.6084 4.24414V4.3877H6.39648V4.24414C6.39648 3.88957 6.68109 3.60549 7.02539 3.60547Z" stroke="var(--stroke-0, #595959)" stroke-width="0.510752"/>
<path id="Vector_4" d="M4.19727 0.255859H13.7998C14.7255 0.255987 15.4833 1.01776 15.4834 1.95996V4.3877H13.1699V4.24414C13.1699 3.02487 12.1885 2.02842 10.9756 2.02832H7.02148C5.80845 2.02832 4.82617 3.0248 4.82617 4.24414V4.3877H2.51367V1.95996C2.51379 1.01767 3.27151 0.255859 4.19727 0.255859Z" stroke="var(--stroke-0, #595959)" stroke-width="0.510752"/>
</g>
</svg>
