<svg overflow="visible" style="display: block;" viewBox="0 0 17.8804 18" fill="none" xmlns="http://www.w3.org/2000/svg">
<g id="airplane-mode (1)" clip-path="url(#clip0_3288_683)">
<path id="Vector" d="M0.253464 13.3347C0.412389 13.4469 0.615514 13.4742 0.798039 13.4079L7.45012 10.9973L7.45053 14.6298L5.87601 15.9505C5.74041 16.0645 5.66197 16.2333 5.66211 16.4111V17.3673C5.66211 17.557 5.75119 17.7355 5.9022 17.8487C6.05335 17.962 6.24884 17.9966 6.42932 17.9422L8.9402 17.1836L11.4511 17.9422C11.5071 17.9592 11.5654 17.9679 11.6239 17.9679C11.9524 17.9664 12.218 17.698 12.2183 17.3673V16.4111C12.2183 16.233 12.1397 16.064 12.0037 15.95L10.4303 14.63V10.9973L17.0821 13.4079C17.2647 13.4743 17.468 13.4469 17.6269 13.3347C17.7859 13.2223 17.8804 13.039 17.8804 12.8436V11.3346C17.8809 11.13 17.7773 10.9393 17.6057 10.8295L10.4303 6.20648V1.57052C10.4304 1.14728 10.2529 0.743529 9.9415 0.459258C9.63006 0.17485 9.21371 0.0361472 8.79532 0.0774832C8.02143 0.171691 7.44194 0.83705 7.45012 1.62175V6.20648L0.274745 10.8291C0.103133 10.9391 -0.000543523 11.1299 2.14333e-06 11.3346V12.8436C0.00013856 13.039 0.0946753 13.2222 0.253464 13.3347V13.3347ZM0.596006 11.3346L7.90889 6.623C7.99442 6.56793 8.04612 6.47276 8.04612 6.37045V1.62175C8.03603 1.14563 8.3828 0.737899 8.85166 0.67459C9.10308 0.649321 9.35327 0.732406 9.54043 0.903106C9.7276 1.07381 9.83441 1.31619 9.83427 1.57052V6.37045C9.83427 6.47276 9.88598 6.56793 9.97151 6.623L17.2844 11.3346V12.8436L10.2332 10.2884C10.1419 10.2552 10.0403 10.2689 9.96087 10.325C9.88147 10.3811 9.83414 10.4727 9.83427 10.5705V14.6298C9.83414 14.8079 9.91285 14.977 10.0487 15.091L11.6223 16.411V17.3672L9.11045 16.6086C8.99899 16.5752 8.88045 16.5754 8.76913 16.6089L6.25811 17.3673L6.25784 16.4111L7.83222 15.0904C7.96796 14.9765 8.04626 14.8077 8.04612 14.6298V10.5705C8.04626 10.4727 7.99892 10.3811 7.91953 10.325C7.84014 10.2689 7.73851 10.2552 7.64724 10.2884L0.596006 12.8436V11.3346Z" fill="var(--fill-0, #595959)"/>
</g>
<defs>
<clipPath id="clip0_3288_683">
<rect width="17.8804" height="18" fill="white"/>
</clipPath>
</defs>
</svg>
