<svg overflow="visible" style="display: block;" viewBox="0 0 19 18.9036" fill="none" xmlns="http://www.w3.org/2000/svg">
<g id="Ship">
<path id="Vector" d="M5.84473 4.01892H13.1523C13.6366 4.01901 14.1008 4.21169 14.4434 4.55408C14.786 4.8967 14.9785 5.36153 14.9785 5.84607V7.30994L11.3652 6.00037V5.99939L11.1367 5.92322C9.99098 5.56641 8.75724 5.59156 7.62402 5.99939L7.62305 6.00037L4.01758 7.30994V5.84607C4.01758 5.36153 4.21011 4.8967 4.55273 4.55408C4.89535 4.21146 5.36019 4.01892 5.84473 4.01892Z" stroke="var(--stroke-0, #595959)" stroke-width="0.73055"/>
<path id="Vector_2" d="M8.37598 8.06055C9.10395 7.7991 9.90093 7.7991 10.6289 8.06055V8.05957L16.3594 10.1436C16.7998 10.3034 17.162 10.6266 17.3711 11.0459C17.5801 11.4652 17.6198 11.9486 17.4824 12.3965L16.4932 15.6113C16.4597 15.6073 16.4273 15.5961 16.4014 15.5742L16.3994 15.5723C15.4472 14.7801 14.2475 14.3467 13.0088 14.3467C11.7701 14.3467 10.5704 14.7801 9.61816 15.5723V15.5732C9.58545 15.6005 9.54356 15.6152 9.50098 15.6152C9.4586 15.6152 9.41737 15.6003 9.38477 15.5732V15.5723C8.43259 14.78 7.23279 14.3468 5.99414 14.3467C4.75533 14.3467 3.55483 14.7799 2.60254 15.5723L2.60156 15.5742C2.57554 15.5961 2.54322 15.6064 2.50977 15.6104L1.52051 12.3984C1.38241 11.9497 1.4221 11.465 1.63184 11.0449C1.84171 10.6248 2.20566 10.3017 2.64746 10.1426L2.64844 10.1416L8.375 8.05957L8.37598 8.06055Z" stroke="var(--stroke-0, #595959)" stroke-width="0.73055"/>
<path id="Vector_3" d="M8.77051 0.365234H10.2314C10.7159 0.365234 11.1808 0.557844 11.5234 0.900391C11.7787 1.15563 11.9504 1.47868 12.0215 1.82715H6.98047C7.05155 1.47867 7.22327 1.15564 7.47852 0.900391C7.82114 0.557771 8.28597 0.365234 8.77051 0.365234Z" stroke="var(--stroke-0, #595959)" stroke-width="0.73055"/>
<path id="Vector_4" d="M13.0078 16.3549C13.7767 16.355 14.5214 16.6248 15.1123 17.1167V17.1157C15.506 17.444 16.0021 17.6244 16.5146 17.6245C17.0272 17.6245 17.5233 17.4438 17.917 17.1157L17.918 17.1167C18.0298 17.0236 18.1745 16.9784 18.3193 16.9917C18.464 17.005 18.5975 17.0753 18.6904 17.187C18.7834 17.2987 18.8286 17.4427 18.8154 17.5874C18.8022 17.7321 18.7318 17.8664 18.6201 17.9594C18.0291 18.4514 17.2836 18.7202 16.5146 18.7202C15.8419 18.7201 15.1876 18.5144 14.6387 18.1333L14.4102 17.9594C14.0165 17.6312 13.5204 17.4517 13.0078 17.4516C12.5592 17.4516 12.1227 17.5888 11.7568 17.8432L11.6045 17.9594C11.0135 18.4513 10.2689 18.7202 9.5 18.7202C8.82718 18.7202 8.173 18.5144 7.62402 18.1333L7.39551 17.9594C7.00172 17.631 6.50494 17.4516 5.99219 17.4516C5.47965 17.4517 4.98353 17.6312 4.58984 17.9594C3.99922 18.4517 3.2542 18.7214 2.48535 18.7212H2.48438C1.71564 18.7215 0.971362 18.4516 0.380859 17.9594H0.379883C0.268184 17.8664 0.197825 17.7321 0.18457 17.5874C0.171448 17.4427 0.216622 17.2987 0.30957 17.187C0.402528 17.0753 0.535978 17.005 0.680664 16.9917C0.825517 16.9784 0.970226 17.0236 1.08203 17.1167V17.1157C1.47583 17.4441 1.97259 17.6245 2.48535 17.6245C2.99772 17.6244 3.49313 17.4437 3.88672 17.1157L3.8877 17.1167C4.47864 16.6248 5.22333 16.355 5.99219 16.3549C6.76092 16.3549 7.50575 16.624 8.09668 17.1157C8.49048 17.4441 8.98724 17.6245 9.5 17.6245C10.0127 17.6245 10.5095 17.445 10.9033 17.1167C11.4943 16.6248 12.2389 16.3549 13.0078 16.3549Z" stroke="var(--stroke-0, #595959)" stroke-width="0.365275"/>
</g>
</svg>
