<svg overflow="visible" style="display: block;" viewBox="0 0 100 99.4925" fill="none" xmlns="http://www.w3.org/2000/svg">
<g id="Harbor">
<path id="Vector" d="M40.7888 33.3871C46.7303 31.2488 53.2313 31.2488 59.1727 33.3871L80.7681 41.2214V30.7679C80.7681 27.7078 79.5525 24.7731 77.3887 22.6093C75.2249 20.4455 72.2901 19.2299 69.2301 19.2299H30.77C27.7099 19.2299 24.7751 20.4455 22.6113 22.6093C20.4475 24.7731 19.2319 27.7078 19.2319 30.7679V41.2214L40.7888 33.3871Z" fill="var(--fill-0, white)"/>
<path id="Vector_2" d="M11.6552 83.6661C12.0857 83.9283 12.5748 84.079 13.0783 84.1045C13.7519 84.1087 14.405 83.8728 14.9205 83.4392C19.5872 79.5563 25.4664 77.4302 31.5372 77.4302C37.608 77.4302 43.4872 79.5563 48.1539 83.4392C48.6716 83.8706 49.3241 84.1069 49.998 84.1069C50.6719 84.1069 51.3245 83.8706 51.8422 83.4392C56.5089 79.5563 62.388 77.4302 68.4589 77.4302C74.5297 77.4302 80.4089 79.5563 85.0756 83.4392C85.5916 83.8751 86.2462 84.1124 86.9217 84.1084C87.4246 84.0831 87.9134 83.9338 88.3447 83.6738L93.8445 65.8091C94.7125 62.9797 94.46 59.9249 93.1393 57.2764C91.8186 54.6279 89.5307 52.5881 86.7486 51.5788L56.5805 40.6138C52.329 39.0869 47.6786 39.0869 43.4271 40.6138L13.2744 51.5711C10.4837 52.5759 8.18712 54.6169 6.8615 57.2703C5.53587 59.9237 5.28302 62.9857 6.15544 65.8206L11.6552 83.6661Z" fill="var(--fill-0, white)"/>
<path id="Vector_3" d="M53.846 0H46.154C43.0939 0 40.1592 1.21561 37.9954 3.37941C35.8316 5.54321 34.616 8.47796 34.616 11.538H65.3841C65.3841 8.47796 64.1684 5.54321 62.0046 3.37941C59.8408 1.21561 56.9061 0 53.846 0Z" fill="var(--fill-0, white)"/>
<path id="Vector_4" d="M13.0783 99.4925C8.80583 99.495 4.66802 97.9978 1.38642 95.2619C0.602023 94.6091 0.10908 93.6714 0.0160369 92.6551C-0.0770065 91.6389 0.237471 90.6273 0.890287 89.8429C1.5431 89.0585 2.48078 88.5655 3.49705 88.4725C4.51331 88.3794 5.52492 88.6939 6.30932 89.3467C8.20914 90.9311 10.6045 91.7988 13.0783 91.7988C15.5521 91.7988 17.9475 90.9311 19.8473 89.3467C23.1306 86.6139 27.2674 85.1176 31.5391 85.1176C35.8109 85.1176 39.9477 86.6139 43.231 89.3467C45.1308 90.9311 47.5262 91.7988 50 91.7988C52.4738 91.7988 54.8692 90.9311 56.769 89.3467C60.0523 86.6139 64.1891 85.1176 68.4608 85.1176C72.7326 85.1176 76.8694 86.6139 80.1527 89.3467C82.0525 90.9311 84.4479 91.7988 86.9217 91.7988C89.3955 91.7988 91.7909 90.9311 93.6907 89.3467C94.4751 88.6939 95.4867 88.3794 96.5029 88.4725C97.5192 88.5655 98.4569 89.0585 99.1097 89.8429C99.7625 90.6273 100.077 91.6389 99.984 92.6551C99.8909 93.6714 99.398 94.6091 98.6136 95.2619C95.3303 97.9947 91.1935 99.491 86.9217 99.491C82.6499 99.491 78.5131 97.9947 75.2298 95.2619C73.33 93.6775 70.9346 92.8098 68.4608 92.8098C65.9871 92.8098 63.5917 93.6775 61.6919 95.2619C58.4086 97.9947 54.2718 99.491 50 99.491C45.7282 99.491 41.5914 97.9947 38.3081 95.2619C36.4083 93.6775 34.0129 92.8098 31.5391 92.8098C29.0654 92.8098 26.67 93.6775 24.7702 95.2619C21.4882 97.9972 17.3507 99.4944 13.0783 99.4925V99.4925Z" fill="var(--fill-0, white)"/>
</g>
</svg>
