<svg overflow="visible" style="display: block;" viewBox="0 0 48 35.9501" fill="none" xmlns="http://www.w3.org/2000/svg">
<g id="Group">
<path id="Vector" d="M0 31.5313V34.5439C0 35.3205 0.629625 35.9501 1.40625 35.9501C2.18288 35.9501 2.8125 35.3205 2.8125 34.5439V32.9376H45.1875V34.5439C45.1875 35.3205 45.8171 35.9501 46.5938 35.9501C47.3704 35.9501 48 35.3205 48 34.5439V31.5313V26.9125H0V31.5313Z" fill="var(--fill-0, white)"/>
<path id="Vector_2" d="M42.8282 15.0625H5.17181C2.32013 15.0625 0 17.3827 0 20.2344V24.1H48V20.2344C48 17.3827 45.6799 15.0625 42.8282 15.0625V15.0625Z" fill="var(--fill-0, white)"/>
<path id="Vector_3" d="M18.7283 8.83753C17.4272 8.83753 16.3688 9.89587 16.3688 11.1968V12.2499H31.6313V11.1968C31.6313 9.89587 30.5729 8.83753 29.2719 8.83753H18.7283Z" fill="var(--fill-0, white)"/>
<path id="Vector_4" d="M13.5562 11.1968C13.5562 8.34506 15.8764 6.02503 18.7282 6.02503H29.272C32.1238 6.02503 34.4438 8.34506 34.4438 11.1968V12.2499H41.9752V5.17181C41.9752 2.32003 39.655 0 36.8032 0H11.1969C8.34516 0 6.02512 2.32003 6.02512 5.17181V12.2499H13.5562V11.1968Z" fill="var(--fill-0, white)"/>
</g>
</svg>
