<svg overflow="visible" style="display: block;" viewBox="0 0 48 48" fill="none" xmlns="http://www.w3.org/2000/svg">
<g id="travel-guide" clip-path="url(#clip0_3261_508)">
<path id="Vector" d="M27.2812 44.3753V32.4011L21.9746 39.0686L27.2812 44.3753Z" fill="var(--fill-0, white)"/>
<path id="Vector_2" d="M17.9062 1.96746V9.87434H25.4132L17.9062 1.96746Z" fill="var(--fill-0, white)"/>
<path id="Vector_3" d="M27.2813 27.8848V12.6868H2.87128C2.09222 12.6868 1.46063 13.3184 1.46063 14.0975V27.8849L14.3709 44.1058L27.2813 27.8848ZM6.93019 24.0264C6.93019 21.3812 7.68244 19.1787 9.10575 17.6569C10.4397 16.2305 12.3447 15.445 14.4696 15.445C16.5944 15.445 18.4992 16.2305 19.8334 17.6569C21.2566 19.1786 22.0088 21.3812 22.0088 24.0264C22.0088 29.4444 15.683 35.2374 15.4136 35.4814C15.1458 35.7241 14.8076 35.8454 14.4696 35.8454C14.1315 35.8454 13.7933 35.7241 13.5255 35.4814C13.2561 35.2375 6.93019 29.4445 6.93019 24.0264Z" fill="var(--fill-0, white)"/>
<path id="Vector_4" d="M1.81323 48H13.8759L8.52995 41.2833L1.81323 48Z" fill="var(--fill-0, white)"/>
<path id="Vector_5" d="M16.1682 46.364L17.4704 48H26.9286L20.2119 41.2833L16.1682 46.364Z" fill="var(--fill-0, white)"/>
<path id="Vector_6" d="M19.1963 24.0264C19.1963 20.3602 17.4735 18.2575 14.4696 18.2575C11.4655 18.2575 9.74268 20.3602 9.74268 24.0264C9.74268 26.9227 12.6095 30.5302 14.4696 32.4703C16.3293 30.5307 19.1963 26.9229 19.1963 24.0264V24.0264ZM12.0693 23.435C12.0693 22.1115 13.146 21.0347 14.4696 21.0347C15.7931 21.0347 16.8698 22.1114 16.8698 23.435C16.8698 24.7586 15.7931 25.8352 14.4696 25.8352C13.146 25.8352 12.0693 24.7585 12.0693 23.435V23.435Z" fill="var(--fill-0, white)"/>
<path id="Vector_7" d="M37.125 9.30312H39.5081V12.267H37.125V9.30312Z" fill="var(--fill-0, white)"/>
<path id="Vector_8" d="M45.1331 0H19.9165L29.7073 10.3123C29.9554 10.5737 30.0937 10.9202 30.0937 11.2806V38.1258H45.1331C45.9097 38.1258 46.5394 37.4962 46.5394 36.7195V1.40625C46.5394 0.629625 45.9097 0 45.1331 0V0ZM40.9144 31.5323H35.7187C34.9421 31.5323 34.3125 30.9027 34.3125 30.1261C34.3125 29.3495 34.9421 28.7198 35.7187 28.7198H40.9144C41.691 28.7198 42.3206 29.3495 42.3206 30.1261C42.3206 30.9027 41.691 31.5323 40.9144 31.5323ZM40.9144 25.9073H35.7187C34.9421 25.9073 34.3125 25.2777 34.3125 24.5011C34.3125 23.7245 34.9421 23.0948 35.7187 23.0948H40.9144C41.691 23.0948 42.3206 23.7245 42.3206 24.5011C42.3206 25.2777 41.691 25.9073 40.9144 25.9073ZM40.9144 20.2823H35.7187C34.9421 20.2823 34.3125 19.6527 34.3125 18.8761C34.3125 18.0995 34.9421 17.4698 35.7187 17.4698H40.9144C41.691 17.4698 42.3206 18.0995 42.3206 18.8761C42.3206 19.6527 41.691 20.2823 40.9144 20.2823ZM42.3206 13.6732C42.3206 14.4499 41.691 15.0795 40.9144 15.0795H35.7187C34.9421 15.0795 34.3125 14.4499 34.3125 13.6732V7.89684C34.3125 7.12022 34.9421 6.49059 35.7187 6.49059H40.9144C41.691 6.49059 42.3206 7.12022 42.3206 7.89684V13.6732Z" fill="var(--fill-0, white)"/>
<path id="Vector_9" d="M1.46063 32.4012V44.3751L6.76725 39.0685L1.46063 32.4012Z" fill="var(--fill-0, white)"/>
</g>
<defs>
<clipPath id="clip0_3261_508">
<rect width="48" height="48" fill="white"/>
</clipPath>
</defs>
</svg>
