<svg overflow="visible" style="display: block;" viewBox="0 0 48 47.7565" fill="none" xmlns="http://www.w3.org/2000/svg">
<g id="Harbor">
<path id="Vector" d="M19.5786 16.0258C22.4305 14.9995 25.551 14.9995 28.4029 16.0258L38.7687 19.7863V14.7686C38.7687 13.2998 38.1852 11.8911 37.1466 10.8525C36.1079 9.81387 34.6993 9.23038 33.2304 9.23038H14.7696C13.3007 9.23038 11.8921 9.81387 10.8534 10.8525C9.8148 11.8911 9.23131 13.2998 9.23131 14.7686V19.7863L19.5786 16.0258Z" fill="var(--fill-0, white)"/>
<path id="Vector_2" d="M5.59452 40.1597C5.80116 40.2856 6.03593 40.3579 6.27757 40.3702C6.60091 40.3722 6.9144 40.259 7.16184 40.0508C9.40186 38.187 12.2239 37.1665 15.1379 37.1665C18.0519 37.1665 20.8738 38.187 23.1139 40.0508C23.3624 40.2579 23.6756 40.3713 23.9991 40.3713C24.3225 40.3713 24.6358 40.2579 24.8843 40.0508C27.1243 38.187 29.9463 37.1665 32.8603 37.1665C35.7743 37.1665 38.5963 38.187 40.8363 40.0508C41.0839 40.26 41.3982 40.374 41.7224 40.372C41.9638 40.3599 42.1985 40.2882 42.4055 40.1634L45.0454 31.5884C45.462 30.2302 45.3408 28.764 44.7069 27.4927C44.073 26.2214 42.9747 25.2423 41.6393 24.7578L27.1586 19.4946C25.1179 18.7617 22.8858 18.7617 20.845 19.4946L6.37172 24.7541C5.03217 25.2365 3.92982 26.2161 3.29352 27.4897C2.65722 28.7634 2.53585 30.2331 2.95461 31.5939L5.59452 40.1597Z" fill="var(--fill-0, white)"/>
<path id="Vector_3" d="M25.8461 0H22.1539C20.6851 0 19.2764 0.583493 18.2378 1.62212C17.1991 2.66074 16.6157 4.06942 16.6157 5.53826H31.3843C31.3843 4.06942 30.8008 2.66074 29.7622 1.62212C28.7236 0.583493 27.3149 0 25.8461 0Z" fill="var(--fill-0, white)"/>
<path id="Vector_4" d="M6.27758 47.7564C4.2268 47.7577 2.24065 47.039 0.665483 45.7258C0.288971 45.4124 0.0523586 44.9623 0.00769772 44.4745C-0.0369631 43.9867 0.113986 43.5011 0.427338 43.1246C0.74069 42.7481 1.19078 42.5115 1.67858 42.4668C2.16639 42.4222 2.65196 42.5731 3.02847 42.8865C3.94039 43.647 5.09017 44.0635 6.27758 44.0635C7.46499 44.0635 8.61478 43.647 9.52669 42.8865C11.1027 41.5747 13.0883 40.8565 15.1388 40.8565C17.1892 40.8565 19.1749 41.5747 20.7509 42.8865C21.6628 43.647 22.8126 44.0635 24 44.0635C25.1874 44.0635 26.3372 43.647 27.2491 42.8865C28.8251 41.5747 30.8108 40.8565 32.8612 40.8565C34.9117 40.8565 36.8973 41.5747 38.4733 42.8865C39.3852 43.647 40.535 44.0635 41.7224 44.0635C42.9098 44.0635 44.0596 43.647 44.9715 42.8865C45.348 42.5731 45.8336 42.4222 46.3214 42.4668C46.8092 42.5115 47.2593 42.7481 47.5727 43.1246C47.886 43.5011 48.037 43.9867 47.9923 44.4745C47.9476 44.9623 47.711 45.4124 47.3345 45.7258C45.7585 47.0375 43.7729 47.7557 41.7224 47.7557C39.672 47.7557 37.6863 47.0375 36.1103 45.7258C35.1984 44.9653 34.0486 44.5487 32.8612 44.5487C31.6738 44.5487 30.524 44.9653 29.6121 45.7258C28.0361 47.0375 26.0505 47.7557 24 47.7557C21.9495 47.7557 19.9639 47.0375 18.3879 45.7258C17.476 44.9653 16.3262 44.5487 15.1388 44.5487C13.9514 44.5487 12.8016 44.9653 11.8897 45.7258C10.3144 47.0387 8.32831 47.7573 6.27758 47.7564V47.7564Z" fill="var(--fill-0, white)"/>
</g>
</svg>
