<svg overflow="visible" style="display: block;" viewBox="0 0 48 47.716" fill="none" xmlns="http://www.w3.org/2000/svg">
<path id="Vector" d="M46.8922 35.1878C47.1456 35.2794 47.428 35.2413 47.6484 35.0864C47.8689 34.9315 48 34.6788 48 34.4093V30.2465C48 29.9642 47.8561 29.7016 47.6184 29.5496L27.3102 16.5524V3.31099C27.3105 2.37642 26.9158 1.48543 26.2236 0.85811C25.5311 0.230425 24.6061 -0.0753615 23.6759 0.0158251C21.9489 0.230059 20.6609 1.71175 20.6898 3.45162V16.5524L0.381592 29.5496C0.143921 29.7016 0 29.9646 0 30.2465V34.4093C0 34.6788 0.131104 34.9315 0.351562 35.0864C0.572021 35.2413 0.85437 35.2794 1.10779 35.1882L20.6898 28.1386V39.337C20.6895 39.5827 20.5803 39.8156 20.3917 39.9727L16.0221 43.6143C15.8335 43.7714 15.724 44.0043 15.724 44.2501V46.8883C15.724 47.1501 15.8478 47.3962 16.0576 47.5522C16.2675 47.7086 16.5388 47.7562 16.7897 47.6811L23.7623 45.5893C23.9172 45.5428 24.0828 45.5428 24.2377 45.5893L31.2103 47.6811C31.4612 47.7562 31.7325 47.7086 31.9424 47.5522C32.1522 47.3962 32.276 47.1501 32.276 46.8883V44.2504C32.276 44.0047 32.1665 43.7718 31.9779 43.6147L27.6083 39.9731C27.4197 39.816 27.3105 39.5831 27.3102 39.3374V28.1386L46.8922 35.1878Z" fill="var(--fill-0, white)"/>
</svg>
