<svg overflow="visible" style="display: block;" viewBox="0 0 100 75.1009" fill="none" xmlns="http://www.w3.org/2000/svg">
<g id="Group">
<path id="Vector" d="M76.17 0H23.8302C22.4455 0 21.2498 0.969534 20.9636 2.32462L18.5681 13.6719H81.4319L79.0364 2.32462C78.7504 0.96973 77.5547 0 76.17 0V0ZM32.715 9.86642C30.5312 9.88654 29.08 7.47365 30.133 5.55782C31.2687 3.38809 34.4984 3.54688 35.4199 5.81583C36.2355 7.70021 34.7666 9.89494 32.715 9.86642ZM44.4338 9.86642C42.25 9.88576 40.7988 7.47423 41.8517 5.55782C42.9836 3.38946 46.2207 3.54805 47.1387 5.81583C47.9545 7.70177 46.4857 9.89396 44.4338 9.86642ZM55.5666 9.86642C53.5145 9.89435 52.0457 7.70138 52.8615 5.81564C53.8529 3.41876 57.2809 3.41915 58.2717 5.81564C59.0873 7.70119 57.6188 9.89455 55.5666 9.86642V9.86642ZM67.2854 9.86642C65.0994 9.884 63.6537 7.47814 64.7014 5.55782C65.8397 3.38985 69.0688 3.54669 69.9905 5.81583C70.8067 7.70002 69.3364 9.89377 67.2854 9.86642V9.86642Z" fill="var(--fill-0, white)"/>
<path id="Vector_2" d="M50 34.6977C50.3424 34.6977 50.6848 34.7577 51.0111 34.8776L88.2604 46.0179L82.6667 19.5208C82.5975 19.5257 82.5286 19.5313 82.4581 19.5313H17.5421C17.4716 19.5313 17.4027 19.5257 17.3335 19.5208L11.7398 46.0179L48.9891 34.8776C49.3154 34.7579 49.6576 34.6977 50 34.6977V34.6977ZM70.4395 26.9095C71.3602 24.6415 74.592 24.4819 75.7266 26.6516C76.7801 28.5679 75.3278 30.9798 73.1446 30.9602C71.0924 30.987 69.6239 28.7962 70.4395 26.9095V26.9095ZM58.7207 26.9095C59.7129 24.5128 63.1387 24.5134 64.1309 26.9095C64.9473 28.793 63.477 30.9886 61.4258 30.9602C59.3744 30.9889 57.9045 28.7936 58.7207 26.9095V26.9095ZM26.8556 30.9602C24.6722 30.9804 23.2211 28.5677 24.2736 26.6516C25.4062 24.4825 28.6423 24.6419 29.5605 26.9096C30.3769 28.7936 28.9066 30.9886 26.8556 30.9602ZM38.5744 30.9602C36.3914 30.9798 34.9386 28.5677 35.9924 26.6516C37.1248 24.4827 40.3613 24.6417 41.2793 26.9096C42.0943 28.7944 40.6264 30.988 38.5744 30.9602ZM47.2955 29.1653C46.4824 27.2802 47.9473 25.0872 50 25.1145V25.1141C51.1131 25.1175 52.2236 25.7255 52.7045 26.9093C53.5176 28.7944 52.0527 30.9872 50 30.96L49.9998 30.9602C48.8869 30.9573 47.7764 30.3493 47.2955 29.1653V29.1653Z" fill="var(--fill-0, white)"/>
<path id="Vector_3" d="M14.5558 62.9786C14.6015 63.0181 14.649 63.0589 14.697 63.1003C14.7451 63.0589 14.7925 63.0181 14.8382 62.9786C16.731 61.345 20.2542 58.304 26.4644 58.304C32.6748 58.304 36.198 61.3448 38.0908 62.9786C38.1363 63.0181 38.1838 63.0589 38.2318 63.1001C38.2797 63.0589 38.3267 63.0183 38.3722 62.979C39.9449 61.6216 42.6437 59.2956 47.0707 58.546V41.8262L6.61536 53.8282L9.2806 59.5296C11.7519 60.5593 13.4382 62.014 14.5558 62.9786V62.9786Z" fill="var(--fill-0, white)"/>
<path id="Vector_4" d="M52.9299 58.5464C57.3553 59.2968 60.0532 61.622 61.625 62.9786C61.6707 63.0181 61.7182 63.0591 61.7662 63.1005C61.8143 63.0591 61.8617 63.0182 61.9075 62.9786C63.8006 61.3448 67.3239 58.304 73.534 58.304C79.7444 58.304 83.2676 61.3446 85.1604 62.9784C85.2063 63.0181 85.2542 63.0593 85.3024 63.1007C85.3507 63.0591 85.3983 63.0179 85.4444 62.9782C86.562 62.0138 88.2485 60.5591 90.7204 59.529L93.3854 53.828L52.9303 41.826V58.5464H52.9299Z" fill="var(--fill-0, white)"/>
<path id="Vector_5" d="M96.963 64.1638C93.0003 64.1968 90.8477 66.0546 89.2723 67.4142C87.9518 68.5538 87.1548 69.2415 85.3022 69.2415C83.4497 69.2415 82.6526 68.5536 81.3321 67.4142C79.7424 66.0423 77.5653 64.1634 73.5338 64.1634C69.5024 64.1634 67.3254 66.0423 65.7358 67.4142C64.4155 68.5538 63.6186 69.2415 61.766 69.2415C59.9137 69.2415 59.1168 68.5536 57.7965 67.4144C56.2069 66.0425 54.0299 64.1634 49.9986 64.1634C45.9672 64.1634 43.7904 66.0425 42.2008 67.4144C40.8805 68.5536 40.0838 69.2415 38.2316 69.2415C36.3793 69.2415 35.5824 68.5536 34.2623 67.4144C32.6726 66.0425 30.4957 64.1634 26.4642 64.1634C22.433 64.1634 20.256 66.0423 18.6664 67.4144C17.346 68.5538 16.5492 69.2415 14.6968 69.2415C12.8445 69.2415 12.0478 68.5536 10.7275 67.4144C9.15208 66.0546 6.99993 64.197 3.03723 64.164C1.43058 64.1505 0.0481577 65.3997 0.00128266 67.0056C-0.0471549 68.6636 1.28253 70.0228 2.92961 70.0228C4.78176 70.0228 5.57864 70.7105 6.89876 71.8499C8.48841 73.2218 10.6652 75.1009 14.6966 75.1009C18.7281 75.1009 20.905 73.222 22.4947 71.8499C23.815 70.7105 24.6117 70.0228 26.464 70.0228C28.3164 70.0228 29.1132 70.7105 30.4336 71.8499C32.0232 73.2218 34.2002 75.1009 38.2314 75.1009C42.2627 75.1009 44.4394 73.222 46.0291 71.8499C47.3494 70.7105 48.1461 70.0228 49.9984 70.0228C51.8508 70.0228 52.6477 70.7105 53.9678 71.8499C55.5574 73.2218 57.7344 75.1009 61.7658 75.1009C65.7973 75.1009 67.9743 73.222 69.5641 71.8499C70.8844 70.7105 71.6813 70.0228 73.5336 70.0228C75.3862 70.0228 76.1833 70.7105 77.5038 71.8501C79.0934 73.222 81.2706 75.1009 85.302 75.1009C89.3335 75.1009 91.5106 73.222 93.1003 71.8501C94.4208 70.7105 95.2179 70.0228 97.0704 70.0228C98.7175 70.0228 100.047 68.6636 99.9987 67.0056C99.952 65.3997 98.5696 64.1505 96.963 64.1638Z" fill="var(--fill-0, white)"/>
</g>
</svg>
