<svg overflow="visible" style="display: block;" viewBox="0 0 100 102.782" fill="none" xmlns="http://www.w3.org/2000/svg">
<g id="train" clip-path="url(#clip0_3261_463)">
<path id="Vector" d="M29.9583 31.9719H-1.49012e-06V38.8506H36.6508L29.9583 31.9719Z" fill="var(--fill-0, white)"/>
<path id="Vector_2" d="M65.152 38.8506H88.8695L69.2192 18.6545C65.7028 15.0395 61.0275 13.0485 56.0532 13.0485H38.6612L62.7846 37.8437C63.4171 38.493 64.2586 38.8506 65.152 38.8506V38.8506Z" fill="var(--fill-0, white)"/>
<path id="Vector_3" d="M2.92969 70.6758H86.6203C93.998 70.6758 100 64.5076 100 56.9208C100 52.6448 98.3803 48.626 95.4391 45.6022L94.7288 44.873H65.152C62.6945 44.873 60.3828 43.8896 58.6426 42.1033L30.3749 13.0485H2.92969C1.31149 13.0485 -1.49012e-06 14.3965 -1.49012e-06 16.0597V25.9495H31.1722C31.9489 25.9495 32.6942 26.2671 33.2436 26.8317L45.7954 39.7335C46.6331 40.5946 46.8842 41.8892 46.431 43.0145C45.977 44.1398 44.9089 44.8737 43.7241 44.8737H-1.49012e-06V67.6647C-1.49012e-06 69.3279 1.31149 70.6758 2.92969 70.6758Z" fill="var(--fill-0, white)"/>
<path id="Vector_4" d="M97.0703 83.5777H71.5294C73.0537 81.6086 74.1325 79.2616 74.614 76.6982H44.2139C44.6945 79.2616 45.7733 81.6086 47.2977 83.5777H27.597C29.1214 81.6086 30.201 79.2616 30.6816 76.6982H0.282286C0.762938 79.2616 1.8425 81.6086 3.36685 83.5777H2.92969C1.31149 83.5777 -1.49012e-06 84.9257 -1.49012e-06 86.5889C-1.49012e-06 88.2513 1.31149 89.6001 2.92969 89.6001H97.0703C98.6885 89.6001 100 88.2513 100 86.5889C100 84.9257 98.6885 83.5777 97.0703 83.5777V83.5777Z" fill="var(--fill-0, white)"/>
</g>
<defs>
<clipPath id="clip0_3261_463">
<rect width="100" height="102.782" fill="white"/>
</clipPath>
</defs>
</svg>
