<svg overflow="visible" style="display: block;" viewBox="0 0 105.001 105" fill="none" xmlns="http://www.w3.org/2000/svg">
<g id="Group">
<path id="Vector" d="M100.078 47.5781C98.6239 47.5781 97.3153 48.2126 96.4136 49.2188H88.443C87.7646 41.7264 84.7883 34.8881 80.2243 29.4158L85.8763 23.7638C85.9651 23.7686 86.0539 23.7766 86.1427 23.7766C87.4031 23.7766 88.6633 23.2969 89.6226 22.3377C89.623 22.3375 89.6232 22.3373 89.6235 22.3369C91.5418 20.4182 91.5418 17.2959 89.6226 15.3763C87.7043 13.458 84.5816 13.4578 82.6621 15.377C81.6355 16.404 81.1638 17.7756 81.2362 19.1233L75.584 24.7755C70.1119 20.2117 63.2736 17.2354 55.7813 16.557V8.58642C56.7874 7.68469 57.4219 6.37608 57.4219 4.92188C57.4219 2.20808 55.2138 0 52.5 0C49.7862 0 47.5781 2.20808 47.5781 4.92188C47.5781 6.37608 48.2126 7.68469 49.2188 8.58642V16.557C41.7264 17.2354 34.8881 20.2117 29.4158 24.7757L23.7638 19.1235C23.8362 17.776 23.3648 16.4042 22.3379 15.3772C22.3377 15.377 22.3375 15.3768 22.3371 15.3766C20.4186 13.4583 17.2959 13.458 15.3766 15.3772C13.4583 17.2961 13.4583 20.4184 15.3774 22.3379C16.3367 23.2971 17.5965 23.7766 18.8571 23.7766C18.9461 23.7766 19.0347 23.7686 19.1235 23.7638L24.7757 29.416C20.2117 34.8881 17.2354 41.7264 16.557 49.2188H8.58642C7.68469 48.2126 6.37608 47.5781 4.92188 47.5781C2.20808 47.5781 0 49.7862 0 52.5C0 55.2138 2.20808 57.4219 4.92188 57.4219C6.37608 57.4219 7.68469 56.7874 8.58642 55.7812H16.557C17.2354 63.2736 20.2117 70.1119 24.7757 75.5842L19.1235 81.2362C17.776 81.1638 16.4042 81.6354 15.3772 82.6621C15.3768 82.6623 15.3766 82.6625 15.3763 82.6629C13.458 84.5816 13.458 87.7039 15.3772 89.6234C16.3365 90.5826 17.5963 91.0621 18.8569 91.0621C20.1173 91.0621 21.3782 90.5822 22.3379 89.6226C23.3646 88.5956 23.8362 87.224 23.7638 85.8765L29.416 80.2243C34.8881 84.7881 41.7266 87.7644 49.219 88.443V96.4136C48.2128 97.3153 47.5783 98.6239 47.5783 100.078C47.5783 102.792 49.7864 105 52.5002 105C55.214 105 57.4221 102.792 57.4221 100.078C57.4221 98.6239 56.7876 97.3153 55.7815 96.4136V88.443C63.2738 87.7646 70.1121 84.7883 75.5844 80.2243L81.2366 85.8765C81.1642 87.224 81.6357 88.5956 82.6625 89.6228C82.6627 89.6232 82.6629 89.6234 82.6633 89.6237C83.6227 90.5828 84.8825 91.0623 86.1431 91.0623C87.4035 91.0623 88.6643 90.5824 89.6241 89.6228C91.5424 87.7041 91.5424 84.5818 89.6232 82.6623C88.5964 81.6357 87.2247 81.164 85.8771 81.2364L80.2249 75.5842C84.7887 70.1121 87.765 63.2736 88.4436 55.7812H96.4142C97.3159 56.7874 98.6245 57.4219 100.079 57.4219C102.793 57.4219 105.001 55.2138 105.001 52.5C105.001 49.7862 102.792 47.5781 100.078 47.5781V47.5781ZM72.0581 67.4178L61.3817 56.7414C61.531 56.4301 61.6629 56.1094 61.7794 55.7812H76.8902C76.3098 60.117 74.5964 64.0982 72.0581 67.4178ZM37.5822 72.0581L48.2586 61.3817C48.5699 61.531 48.8906 61.6629 49.2188 61.7794V76.8901C44.883 76.3098 40.9018 74.5963 37.5822 72.0581ZM28.1099 55.7812H43.2206C43.3371 56.1094 43.469 56.4303 43.6183 56.7414L32.9419 67.4178C30.4037 64.0982 28.6902 60.117 28.1099 55.7812ZM32.9419 37.5822L43.6183 48.2586C43.469 48.5699 43.3371 48.8906 43.2206 49.2188H28.1099C28.6902 44.883 30.4037 40.9018 32.9419 37.5822V37.5822ZM67.4178 32.9419L56.7414 43.6183C56.4301 43.469 56.1094 43.3371 55.7813 43.2206V28.1099C60.117 28.6902 64.0982 30.4037 67.4178 32.9419ZM76.8902 49.2188H61.7794C61.6629 48.8906 61.531 48.5697 61.3817 48.2586L72.0581 37.5822C74.5964 40.9018 76.3098 44.883 76.8902 49.2188ZM55.7813 52.5C55.7813 54.3092 54.3092 55.7812 52.5 55.7812C50.6908 55.7812 49.2188 54.3092 49.2188 52.5C49.2188 50.6908 50.6908 49.2188 52.5 49.2188C54.3092 49.2188 55.7813 50.6908 55.7813 52.5V52.5ZM49.2188 43.2206C48.8906 43.3371 48.5697 43.469 48.2586 43.6183L37.5822 32.9419C40.9018 30.4039 44.8832 28.6902 49.2188 28.1101V43.2206ZM55.7813 61.7794C56.1094 61.6629 56.4303 61.531 56.7414 61.3817L67.4178 72.0581C64.0982 74.5961 60.1168 76.3098 55.7813 76.8899V61.7794Z" fill="var(--fill-0, white)"/>
</g>
</svg>
