<svg overflow="visible" style="display: block;" viewBox="0 0 176 78.2221" fill="none" xmlns="http://www.w3.org/2000/svg">
<g id="Yacth">
<path id="Vector" d="M8.52064 41.9047C2.38857 51.9618 0 54.6856 0 60.3567C0 68.4443 5.21016 72.1878 11.3562 78.2221H124.904C129.528 78.2221 136.582 74.0316 143.971 68.4443H19.5556C19.1851 68.4443 18.8298 68.2972 18.5679 68.0352C18.3059 67.7733 18.1587 67.418 18.1587 67.0475C18.1587 66.6771 18.3059 66.3218 18.5679 66.0598C18.8298 65.7979 19.1851 65.6507 19.5556 65.6507H147.547C157.538 57.3636 167.038 48.502 176 39.111L8.52064 41.9047ZM57.2698 51.6824H30.7302C30.3597 51.6824 30.0044 51.5353 29.7425 51.2733C29.4805 51.0114 29.3333 50.6561 29.3333 50.2856C29.3333 49.9152 29.4805 49.5599 29.7425 49.2979C30.0044 49.0359 30.3597 48.8888 30.7302 48.8888H57.2698C57.6403 48.8888 57.9956 49.0359 58.2575 49.2979C58.5195 49.5599 58.6667 49.9152 58.6667 50.2856C58.6667 50.6561 58.5195 51.0114 58.2575 51.2733C57.9956 51.5353 57.6403 51.6824 57.2698 51.6824ZM90.7937 51.6824H85.2064C84.8359 51.6824 84.4806 51.5353 84.2186 51.2733C83.9567 51.0114 83.8095 50.6561 83.8095 50.2856C83.8095 49.9152 83.9567 49.5599 84.2186 49.2979C84.4806 49.0359 84.8359 48.8888 85.2064 48.8888H90.7937C91.1641 48.8888 91.5194 49.0359 91.7814 49.2979C92.0433 49.5599 92.1905 49.9152 92.1905 50.2856C92.1905 50.6561 92.0433 51.0114 91.7814 51.2733C91.5194 51.5353 91.1641 51.6824 90.7937 51.6824ZM104.762 51.6824H99.1746C98.8041 51.6824 98.4489 51.5353 98.1869 51.2733C97.9249 51.0114 97.7778 50.6561 97.7778 50.2856C97.7778 49.9152 97.9249 49.5599 98.1869 49.2979C98.4489 49.0359 98.8041 48.8888 99.1746 48.8888H104.762C105.132 48.8888 105.488 49.0359 105.75 49.2979C106.012 49.5599 106.159 49.9152 106.159 50.2856C106.159 50.6561 106.012 51.0114 105.75 51.2733C105.488 51.5353 105.132 51.6824 104.762 51.6824ZM129.905 51.6824H124.317C123.947 51.6824 123.592 51.5353 123.33 51.2733C123.068 51.0114 122.921 50.6561 122.921 50.2856C122.921 49.9152 123.068 49.5599 123.33 49.2979C123.592 49.0359 123.947 48.8888 124.317 48.8888H129.905C130.275 48.8888 130.631 49.0359 130.892 49.2979C131.154 49.5599 131.302 49.9152 131.302 50.2856C131.302 50.6561 131.154 51.0114 130.892 51.2733C130.631 51.5353 130.275 51.6824 129.905 51.6824ZM145.27 51.6824H139.683C139.312 51.6824 138.957 51.5353 138.695 51.2733C138.433 51.0114 138.286 50.6561 138.286 50.2856C138.286 49.9152 138.433 49.5599 138.695 49.2979C138.957 49.0359 139.312 48.8888 139.683 48.8888H145.27C145.64 48.8888 145.996 49.0359 146.258 49.2979C146.52 49.5599 146.667 49.9152 146.667 50.2856C146.667 50.6561 146.52 51.0114 146.258 51.2733C145.996 51.5353 145.64 51.6824 145.27 51.6824Z" fill="var(--fill-0, white)"/>
<path id="Vector_2" d="M68.5283 38.1053L74.786 38.0075L78.3479 30.1574C78.8787 28.9701 75.8476 29.3332 122.823 29.3332L107.695 22.3491H11.1746V25.1428C22.419 26.3859 59.5467 31.3167 68.5283 38.1053V38.1053Z" fill="var(--fill-0, white)"/>
<path id="Vector_3" d="M77.8591 37.9518L139.291 36.9322L128.885 32.1271H80.513L77.8591 37.9518Z" fill="var(--fill-0, white)"/>
<path id="Vector_4" d="M29.1936 30.4229L27.5733 38.8039H30.367L31.9035 30.9118L29.1936 30.4229Z" fill="var(--fill-0, white)"/>
<path id="Vector_5" d="M101.172 19.5556L85.1644 8.38095H62.3822L54.0013 11.1746H36.7924L22.8241 0H11.3562L25.4641 19.5556H101.172Z" fill="var(--fill-0, white)"/>
</g>
</svg>
